<svg version="1.2" width="500" baseProfile="tiny" xmlns="http://www.w3.org/2000/svg" viewBox="0 0 277.33 141.31"><linearGradient id="a" gradientUnits="userSpaceOnUse" x1="138.666" y1="140.834" x2="138.666" y2="107.704"><stop offset="0" stop-color="#e3e5e8" stop-opacity="0"/><stop offset="1" stop-color="#e3e5e8"/></linearGradient><path fill="url(#a)" d="M277.33 141.31H0c13.94-19.59 62.08-35.36 138.67-35.36s112.21 14.59 138.66 35.36z"/><linearGradient id="b" gradientUnits="userSpaceOnUse" x1="135.69" y1="116.14" x2="143.516" y2="58.487"><stop offset="0" stop-color="#dcdee2" stop-opacity="0"/><stop offset="1" stop-color="#dcdee2"/></linearGradient><path fill="url(#b)" d="M132.29 51.69c-13.65 19.54-27.3 39.07-40.96 58.61 5.05 4.49 12.37 9.7 22.29 13.22 31.76 11.28 62.34-4.53 67.19-7.13-5.3-20-10.61-40.01-15.91-60.01-10.87-1.57-21.74-3.13-32.61-4.69z"/><path fill="#FCFCFC" d="M186.04 47.29c2.48-6.77 3.84-10.36 3.48-17.56-.25-4.93-2.34-11.44-5.22-16.02-1.29-2.05-5.5-6.88-11.29-10.21C167.8.51 161.56-.14 155.56.02c-10.27.27-20.08 1.71-29.59 12.87-2 2.34-8.09 12.09-9.32 19.93-.76-.25-1.02.73-1.2 1.5-.63 2.79-.94 5.66-.94 8.52 6.6.63 13.2 1.26 19.8 1.9 8.36.8 16.74 1.6 24.95 3.39 8.57 1.87 16.87 4.79 25.15 7.7.45-3.44 1.29-6.83 2.49-10.09l-.86 1.55z"/><path fill="#969395" d="M161.17 54.89l28.1 5.62c1 .2 7.49 2.07 8.35 2.62 1.09.7 3.06 1.35 2.9 2.59-2.25 2.4-23.53-.56-31.81-1.94-11.96-1.99-23.92-3.98-35.89-5.97-2.88-.48-5.76-.95-8.61-1.52-9.29-1.87-17.18-4.23-26.2-7.74-1.13-.44-2.04-2.28-.79-3.6-.26-.03 16.27 2.61 25.74 3.66 5.57.62 11.15 1.25 16.68 2.14 4.33.7 8.62 1.56 12.91 2.41 2.89.58 5.76 1.16 8.62 1.73z"/><path fill="#DCDEE2" d="M120.07 40.7c2.95-.08 17.8-3.72 20.74-3.4 3.09.34 6.14.95 9.18 1.57 10.74 2.18 20.77 5.12 29.55 11.67 2.93 2.18 6.52 3.34 9.47 5.47 2.37 1.71 10.47 5.26 11.61 7.81.55 1.24-.55 2.56-1.86 2.21-9.49-2.55-24.72-5.87-34.48-6.97-13.84-1.56-21.95-4.43-38.79-6.89-3.74-.55-9.5-2.02-13.2-2.77-3.67-.75-10.69-1.24-14.75-2.11-2.18-.47-1.78-2.23.34-2.9 8.17-2.54 13.73-3.45 22.19-3.69z"/><path fill="#6E44FF" d="M127.32 28.46c-.05-3.78 3.2-6.91 6.75-8.2 3.55-1.29 7.43-1.22 11.19-1.57.43-.04.89-.09 1.25-.33.53-.34.77-.98.94-1.59.87-3.21-.25-6.83-1.72-9.81.3-1.6 1.98-1.31 2.87 1.19.61 1.72 1.07 3.48 1.61 5.22 4.37-1.32 10.05-1.02 14.31.63.64-2.02 1.98-4.92 3.94-6.2.23-.15.54.05.48.32-.33 1.63-1.56 3.91-1.8 5.3-.6 3.44.27 6.95 1.13 10.33 4.93 3.28 10.17 6.96 12.07 12.57.16.46.28 1 .01 1.41-.35.55-1.22.5-1.73.1-.51-.41-.77-1.04-1.04-1.64-1.78-3.86-5.49-8.08-9.6-9.19h-.01c-.83-.21-1.51.71-1.15 1.48 1.21 2.58 4.03 3.1 4.65 9.01-2.35-.94-4.31-2.71-5.44-4.64-.71-1.21-1.99-3.23-2.92-4.64-.29-.44-.98-.23-.98.3.01 1.49-.03 3.14.07 4.34.05.56.06 1.2-.37 1.56-.7.59-1.77-.19-2.08-1.05-.46-1.24-.4-5.13-.67-6.43-.14-.66-.41-1.04-.8-1.2-.72-.29-1.5.31-1.53 1.09-.05 1.31-.19 3.07-.18 4.01.01.83-.04 1.8-.88 2.17-.64.29-1.4.02-1.82-.53-.96-1.26-.17-5.63-.44-7.03-.08-.45-.32-.74-.65-.91-.78-.39-1.72.2-1.82 1.07-.28 2.42-1.11 5.92-2.99 6.39-.61-1.9-.64-5.26-.32-7.58.1-.74-.63-1.3-1.32-1.01-1.41.59-2.92 2.64-3.86 3.78-1.29 1.55-2.81 3.45-4.81 3.23-.88-.8-.33-2.27.39-3.22.45-.59 1.46-1.69 2.06-2.7.46-.78-.04-1.77-.93-1.92-3.08-.52-6.73.25-8.53 4.26-.49 1.09-2.23 2.17-3.33 1.63z"/><path fill="#CDD0D3" d="M185.58 53.64l2.13-4.71c.72-1.58 1.27-3.38.76-5-.44-1.4-1.31-2.03-6.8-4.47-5.44-2.42-10.55-3.26-16.2-5.17-2.97-1-5.17-1.84-8.25-2.4-7.48-1.38-15.03-2.76-22.63-2.57-3.71.09-7.4.56-11.09 1.02-2.59.33-5.18.66-7.77.98-1.22-.34-1.71 1.56-1.62 2.82.18 2.59-.28 4.51-.1 7.11 3.52.71 7.76 1.62 11.33 1.94 16.43 1.45 32.65 4.61 48.84 7.76 3.39.65 10.96 2.76 11.4 2.69z"/><path fill="#FFF" d="M151.56 14.81c-1.04.2-1.97.68-2.4 1.71-.36.85-.37 1.84-.01 2.69.44 1.03 1.22 1.74 2.3 2.05.89.25 1.78 0 2.56-.44 1.26-.7 1.75-2.65 1.13-3.91-.47-.96-1.13-1.53-2.15-1.84-.72-.22-1.61-.07-2.28.22-.96.41-1.37 1.17-1.41 2.19 0 .14 0 .27.02.41.11 1.16 1.13 2.06 2.31 1.97 1.15-.09 2.08-1.14 1.97-2.31-.01-.14-.02-.27-.01-.41l-1.41 2.19c.13-.05.25-.1.38-.14-.42.08-.52.1-.3.08.19-.03.49.06-.27-.03.44.05-.53-.25-.16-.05-.37-.26-.47-.32-.31-.19.23.19-.39-.47-.21-.23.18.24-.26-.61-.13-.23.08.23-.08-.7-.06-.21.04-.48.04-.61.02-.4-.02.17-.14.48.12-.3-.01.04-.03.07-.05.11-.13.27.36-.5.17-.26-.18.23.52-.4.18-.18.41-.2.51-.25.32-.18-.31.12.63-.1.29-.06-.22.01-.1.02.33.03-.19-.01-.43-.15.21.1-.19-.09-.1-.03.25.18-.15-.1-.3-.36.14.17-.31-.38.19.51.02.05-.06-.21-.04-.11.06.32-.02-.08-.02-.16-.02-.25.01.51-.06.57-.33.99.13-.16.05-.09-.25.21.02-.01.05-.03.07-.04-.22.16-.47.25-.74.27 1.15-.21 2.07-1.05 1.97-2.31-.1-1.08-1.17-2.19-2.32-1.97zM160.21 15.7c-1.82.86-2.41 2.72-1.96 4.6.25 1.02 1.17 1.74 2.13 2.01 1.14.32 2.23-.25 3.04-.99.73-.67 1.02-1.91.94-2.87-.12-1.38-1.07-2.34-2.36-2.7-1.14-.32-2.35.26-3.16 1.01-.41.38-.62.91-.76 1.44-.18.75.1 1.44.45 2.09.56 1.03 2.11 1.15 2.99.53 1.04-.72 1.09-1.96.53-2.99.35.65.34 1.26-.08 1.85.14-.16.07-.1-.2.18.18-.12.11-.08-.23.11.48-.23-.4.03-.07.01-.36.03-.54-.03-.94-.32-.19-.16-.32-.36-.4-.59.07.21.06.12-.04-.27.06.34.1-.59 0-.03-.06.21-.03.14.07-.21-.1.2-.05.14.14-.17-.04.06-.09.11-.14.16.08-.08.16-.16.25-.24.36-.16.43-.2.22-.13.41-.07.51-.1.29-.07.44.04.56.05.34.01.52.09.7.32.96.62-.29-.34.2.47.09.17-.11-.31.09.66.05.17-.05-.5-.06.5-.02.15.02-.19.19-.6-.07.12.07-.19.31-.51-.11.1.03-.04.07-.08.1-.12-.1.09-.19.18-.29.27.17-.12.07-.07-.3.14 1.06-.5 1.71-1.57 1.29-2.75-.37-1.03-1.7-1.79-2.75-1.29z"/><path fill="#969395" d="M143.89 7.71c.49.54.95.94 1.69 1.07 1.15.2 2.29-.54 2.51-1.7.22-1.13-.55-2.32-1.7-2.51l1.02.69c-.39-.44-.75-.77-1.36-.88-.56-.11-1.16.02-1.63.35-.86.59-1.31 2.11-.53 2.98zM168.02 6.24c-.03.01-.06.03-.09.04-.87.43-1.49 1.16-1.41 2.19v.04c.08 1.03.81 1.65 1.73 1.94l.09.03c1.12.35 2.31-.65 2.51-1.7.24-1.24-.59-2.17-1.7-2.51l-.09-.03 1.73 1.94v-.04l-1.41 2.19c.03-.01.06-.03.09-.04 1.05-.52 1.72-1.56 1.28-2.75-.34-1.02-1.68-1.81-2.73-1.3z"/><path fill="#2E2C2D" d="M152.19 16.45l-.09.03c-.68.22-1.27.9-1.38 1.61 0 .03-.01.06-.01.09-.18 1.16.53 2.29 1.71 2.51 1.12.21 2.34-.55 2.51-1.7.01-.03.01-.06.02-.09-.46.54-.92 1.08-1.38 1.61l.09-.03c1.11-.36 1.67-1.68 1.29-2.75-.42-1.13-1.64-1.64-2.76-1.28zM162.2 21.39c2.76-.22 2.42-4.5-.34-4.28-2.76.22-2.42 4.5.34 4.28z"/><path fill="#DCDEE2" d="M123.79 36.09c-.09.01-.18.01-.27.02-2.76.22-2.42 4.5.34 4.28.09-.01.18-.01.27-.02 2.76-.22 2.41-4.5-.34-4.28-.09.01-.18.01-.27.02-2.76.22-2.42 4.5.34 4.28.09-.01.18-.01.27-.02 2.76-.22 2.41-4.5-.34-4.28zM139.56 38.58c.04.4.09.15.15-.75l.71-.83c.88-.2 1.12-.29.72-.27-1.17.05-2.06 1.18-1.97 2.31.1 1.2 1.14 2.01 2.31 1.97 1.44-.06 2.54-1.34 2.36-2.77-.14-1.16-1.11-2.06-2.31-1.97-1.13.09-2.11 1.14-1.97 2.31zM161.65 40.26c-.14.01-.29.02-.43.04-1.16.09-2.06 1.14-1.97 2.31.09 1.17 1.14 2.06 2.31 1.97l.43-.03c1.17-.09 2.06-1.14 1.97-2.31a2.17 2.17 0 00-2.31-1.98zM184.41 47.8l-.03-.43c-.09-1.17-1.14-2.06-2.31-1.97-1.17.09-2.06 1.14-1.97 2.31.01.14.02.28.04.43.09 1.17 1.14 2.06 2.31 1.97 1.15-.1 2.05-1.15 1.96-2.31z"/><path fill="#FFF" d="M162.85 6.59c4.2-.73 8.7 3.58 11.68 6 3.31 2.68 6.01 8.29 6.43 12.51.28 2.75 4.55 2.42 4.28-.34-.51-5.15-3.39-10.92-7-14.63-3.52-3.61-10.32-8.75-15.73-7.82-2.7.47-2.39 4.75.34 4.28z"/><path fill="#EAECEE" d="M199.64 87.82v4.58c0 5.25 4.26 9.5 9.5 9.5h4.17v-5.15h-4.17c-2.4 0-4.35-1.95-4.35-4.35v-4.58a2.58 2.58 0 00-2.58-2.58 2.581 2.581 0 00-2.57 2.58zm0 0"/><path fill="#EAECEE" d="M212.69 102.51v4.92h3.98c5.01 0 9.07-4.06 9.07-9.07v-4.37c0-1.36-1.1-2.46-2.46-2.46-1.36 0-2.46 1.1-2.46 2.46v4.38c0 1.1-.44 2.15-1.21 2.93a4.14 4.14 0 01-2.93 1.22l-3.99-.01zm0 0"/><path fill="#EAECEE" d="M208.97 117.09h7.44l1.4-30.95c.06-1.22-.46-2.42-1.43-3.3-.97-.88-2.3-1.38-3.69-1.38-1.39 0-2.73.5-3.69 1.38-.97.88-1.48 2.07-1.43 3.3l1.4 30.95zm0 0"/><path fill="#E3E5E8" d="M199.95 85.56a3.034 3.034 0 015.18 2.14v4.37a3.557 3.557 0 002.85 3.5l-.14-3.48h-1.41c-.77 0-.77-1.15 0-1.15h1.37l-.16-4.07h-1.43c-.77 0-.77-1.15 0-1.15h1.4c.03-1.07.41-2.11 1.08-2.95l-.93-1.25a.566.566 0 01.12-.8c.25-.19.61-.14.8.12l.83 1.11a5.02 5.02 0 012.61-1.09v-1.43c0-.77 1.15-.77 1.15 0v1.43c.96.11 1.86.48 2.61 1.09l.82-1.11c.46-.61 1.38.07.92.68l-.93 1.25c.67.84 1.05 1.88 1.08 2.95h1.4c.77 0 .77 1.15 0 1.15h-1.43l-.16 4.07h1.37c.77 0 .77 1.15 0 1.15h-1.41l-.08 1.94c-.03.77-1.18.72-1.15-.05l.1-2.44v-.03c0-.02 0-.04.01-.06l.21-5.38a3.949 3.949 0 00-3.94-4.1c-1.07 0-2.1.44-2.85 1.21a3.97 3.97 0 00-1.1 2.89l.21 5.38c0 .02 0 .04.01.06v.03l.19 4.67v.02l.38 9.61c.01.32-.23.58-.55.6h-.02c-.31 0-.56-.24-.57-.55l-.36-9.15a4.683 4.683 0 01-4.04-4.67V87.7c0-1.04-.84-1.88-1.89-1.89-1.04 0-1.88.84-1.89 1.89v4.37c0 3.61 2.29 6.83 5.7 8.02.32.09.49.43.38.74-.11.31-.45.47-.76.34a9.67 9.67 0 01-6.47-9.11V87.7c0-.8.32-1.58.89-2.14zm0 0M216.19 117.1h-.02c-.32-.01-.56-.24-.55-.52l.45-11.14c.01-.28.28-.5.59-.49.32.01.56.24.55.52l-.44 11.14c-.02.27-.27.49-.58.49zm0 0"/><path fill="#EAECEE" d="M82.45 92.86v3.46a7.16 7.16 0 01-7.16 7.16h-3.15V99.6h3.15c1.81 0 3.28-1.47 3.28-3.28v-3.46c0-1.07.87-1.94 1.94-1.94.52 0 1.01.2 1.37.57.36.36.57.86.57 1.37zm0 0"/><path fill="#EAECEE" d="M72.61 103.94v3.71h-3c-3.78 0-6.84-3.06-6.84-6.84v-3.3c0-1.02.83-1.85 1.85-1.85s1.85.83 1.85 1.85v3.3c0 .83.33 1.62.92 2.21.59.59 1.38.92 2.21.92h3.01zm0 0"/><path fill="#EAECEE" d="M75.41 114.93H69.8L68.75 91.6c-.04-.92.35-1.82 1.07-2.49.73-.67 1.73-1.04 2.79-1.04s2.06.38 2.79 1.04c.73.67 1.12 1.56 1.07 2.49l-1.06 23.33zm0 0"/><path fill="#E3E5E8" d="M82.21 91.16a2.29 2.29 0 00-3.91 1.62v3.3c.01 1.28-.89 2.38-2.15 2.64l.1-2.62h1.06c.58 0 .58-.87 0-.87H76.3l.12-3.07h1.08c.58 0 .58-.87 0-.87h-1.06c-.03-.81-.31-1.59-.81-2.23l.7-.94c.14-.19.1-.46-.09-.61a.444.444 0 00-.61.09l-.62.84c-.56-.46-1.25-.74-1.97-.82v-1.08c0-.58-.87-.58-.87 0v1.08c-.72.08-1.4.36-1.97.82l-.62-.84c-.34-.46-1.04.05-.69.52l.7.94c-.5.64-.79 1.42-.82 2.23h-1.05c-.58 0-.58.87 0 .87h1.08l.12 3.07h-1.03c-.58 0-.58.87 0 .87h1.06l.06 1.47c.02.58.89.54.87-.03l-.07-1.84v-.02-.05l-.16-4.06c-.03-.81.27-1.6.83-2.18a2.972 2.972 0 015.11 2.18l-.16 4.06v.06l-.14 3.52v.02l-.29 7.25c-.01.24.18.44.42.45h.02c.23 0 .42-.18.43-.42l.27-6.9a3.545 3.545 0 003.05-3.52v-3.3c0-.78.64-1.42 1.42-1.42.78 0 1.42.64 1.42 1.42v3.3c0 2.72-1.72 5.15-4.3 6.05a.434.434 0 10.28.82 7.285 7.285 0 004.88-6.86v-3.3a2.33 2.33 0 00-.68-1.64zm0 0M69.97 114.94h.02c.24-.01.43-.18.42-.39l-.34-8.4c-.01-.21-.21-.37-.45-.37-.24.01-.43.18-.42.39l.34 8.4c0 .2.19.36.43.37zm0 0"/></svg>