<svg version="1.1" id="Layer_1" xmlns="http://www.w3.org/2000/svg" xmlns:xlink="http://www.w3.org/1999/xlink" x="0" y="0" viewBox="0 0 352.9 92.3" xml:space="preserve"><style>.st0{fill:#6a7889}</style><path class="st0" d="M312.3 15.7c1.8-.4 2.9-2.2 2.5-4-.4-1.8-2.2-3-3.9-2.6-1.8.4-2.9 2.2-2.5 4 .3 1.8 2.1 3 3.9 2.6zm-1-4.6c.7-.2 1.3.3 1.5 1s-.3 1.4-.9 1.5c-.7.2-1.3-.3-1.5-1-.2-.6.2-1.3.9-1.5zM278.5 33.3l-1.5-.5c-.1 0-.3-.2-.3-.3l-.5-1.5c-.1-.4-.5-.7-.9-.7s-.8.3-.9.7l-.5 1.5c0 .1-.2.3-.3.3l-1.5.5c-.4.1-.6.5-.6.9s.3.8.6.9l1.5.5c.1 0 .3.2.3.3l.5 1.5c.1.4.5.7.9.7s.8-.3.9-.7l.5-1.5c0-.1.2-.3.3-.3l1.5-.5c.4-.1.6-.5.6-.9.1-.4-.2-.7-.6-.9zm-3.1 1.9c-.2-.4-.6-.8-1-1 .4-.2.8-.6 1-1 .2.4.6.8 1 1-.5.3-.8.6-1 1zM255.1 3.3l-1.5-.5c-.1 0-.3-.2-.3-.3l-.5-1.5c-.1-.4-.5-.7-.9-.7s-.8.3-.9.7l-.5 1.5c0 .1-.2.3-.3.3l-1.5.5c-.4.1-.6.5-.6.9s.3.8.6.9l1.5.5c.1 0 .3.2.3.3l.5 1.5c.1.4.5.7.9.7s.8-.3.9-.7l.5-1.5c0-.1.2-.3.3-.3l1.5-.5c.4-.1.6-.5.6-.9s-.2-.7-.6-.9zm-3.2 1.9c-.2-.4-.6-.8-1-1 .4-.2.8-.6 1-1 .2.4.6.8 1 1-.4.3-.8.6-1 1zM114.4 26.3l-1.5-.5c-.1 0-.3-.2-.3-.3l-.5-1.5c-.1-.4-.5-.7-.9-.7s-.8.3-.9.7l-.5 1.5c0 .1-.2.3-.3.3l-1.5.5c-.4.1-.6.5-.6.9s.3.8.6.9l1.5.5c.1 0 .3.2.3.3l.5 1.5c.1.4.5.7.9.7s.8-.3.9-.7l.5-1.5c0-.1.2-.3.3-.3l1.5-.5c.4-.1.6-.5.6-.9.1-.4-.2-.7-.6-.9zm-3.1 1.9c-.2-.4-.6-.8-1-1 .4-.2.8-.6 1-1 .2.4.6.8 1 1-.5.3-.8.6-1 1zM50.3 22.3l-1.5-.5c-.1 0-.3-.2-.3-.3L48 20c-.1-.4-.5-.7-.9-.7s-.8.3-.9.7l-.5 1.5c0 .1-.2.3-.3.3l-1.4.5c-.4.1-.6.5-.6.9s.3.8.6.9l1.5.5c.1 0 .3.2.3.3l.5 1.5c.1.4.5.7.9.7s.8-.3.9-.7l.5-1.5c0-.1.2-.3.3-.3l1.5-.5c.4-.1.6-.5.6-.9-.1-.4-.3-.7-.7-.9zm-3.2 1.9c-.2-.4-.6-.8-1-1 .4-.2.8-.6 1-1 .2.4.6.8 1 1-.4.3-.8.6-1 1zM8 12.7c1.8-.4 2.9-2.2 2.5-4-.4-1.8-2.2-3-3.9-2.6-1.8.4-2.9 2.2-2.5 4 .4 1.8 2.1 3 3.9 2.6zM7 8.1c.7-.2 1.3.3 1.5 1 .1.7-.3 1.4-.9 1.5-.7.2-1.3-.3-1.5-1-.2-.6.2-1.3.9-1.5zM86.7 6.7c1.8-.4 2.9-2.2 2.5-4C88.8.9 87-.3 85.3.1c-1.8.4-2.9 2.2-2.5 4 .4 1.8 2.2 3 3.9 2.6zm-.9-4.6c.7-.2 1.3.3 1.5 1 .1.7-.3 1.4-.9 1.5-.7.2-1.3-.3-1.5-1-.2-.6.2-1.3.9-1.5zM230.4 17.7c1.8-.4 2.9-2.2 2.5-4-.4-1.8-2.2-3-3.9-2.6-1.8.4-2.9 2.2-2.5 4 .3 1.8 2.1 3 3.9 2.6zm-1-4.6c.7-.2 1.3.3 1.5 1 .1.7-.3 1.4-.9 1.5s-1.3-.3-1.5-1 .2-1.3.9-1.5z"/><defs><path id="SVGID_1_" d="M0 36.3h54.6v56H0z"/></defs><clipPath id="SVGID_2_"><use xlink:href="#SVGID_1_" overflow="visible"/></clipPath><g clip-path="url(#SVGID_2_)"><path class="st0" d="M36.9 67.2c2-1 4.1-1.7 6.1-2.1.6-.1.9-.7.8-1.3-.1-.6-.7-1-1.3-.8-2.3.5-4.7 1.3-7 2.5-1.3-1.6-2.8-3.3-4.4-4.9-1.7-1.8-3.5-3.4-5.1-4.8 1.4-1.9 2.6-3.9 3.5-6.2 1.4-3.5 2.1-7.6 2.1-12 0-.6-.5-1.1-1.1-1.1-.6 0-1.1.5-1.1 1.1 0 6.8-1.7 12.5-5.1 16.9-.6-.5-1.3-1-1.8-1.4-3.2-2.2-5-2.7-6.1-1.7-.3.3-.4.6-.5 1L.1 90.8c-.2.4-.1.9.2 1.2.2.2.5.3.8.3.1 0 .3 0 .4-.1L39 76.1c.4-.1.7-.2.9-.4h.1c1-1.1.5-3-1.6-6.3-.4-.8-.9-1.5-1.5-2.2zM8.5 84.6c-.2 1.4-.7 2.4-1 2.7l-4.4 1.9 4.5-11c.9 2.2 1.2 4.4.9 6.4zm6.5-3.7c-.4 2.5-1.6 3.7-1.9 4l-2.8 1.2c.6-2.3.8-5.9-1.6-10.7l3.2-7.8c3.3 6.5 3.6 10.7 3.1 13.3zm3.8 1.5l-2.3 1c.2-.6.4-1.2.6-1.9.9-4.5-.5-10-4.1-16.4l1.2-2.8c.9 1.1 2 2.7 2.4 3.7.2.4.6.7 1 .7.1 0 .3 0 .4-.1.5-.2.8-.9.6-1.4-.6-1.5-2.2-3.8-3.4-5.1l1.8-4.3c.3.6.7 1.2 1.2 1.9.3.5.7 1 1 1.5 3.6 5.7 3.6 11.5 2.9 15.4-1 4-2.7 7-3.3 7.8zm8.2-3.5l-5 2.2c.7-1.6 1.5-3.8 1.9-6.2.5-2.7.7-6.2-.2-10.1.5.5 1 1.1 1.6 1.6 1.6 1.6 3.2 3.2 4.7 4.5-.1 5.2-2.5 7.5-3 8zm3.7-1.6c.6-1.2 1.1-2.8 1.3-4.7.6.5 1.3 1 1.9 1.4.7.5 1.3.9 1.9 1.2l-5.1 2.1zm3.8-5.6c-2.3-1.7-5.1-4.1-7.7-6.8-2.7-2.7-5-5.5-6.7-7.9-1.6-2.3-2-3.5-2.1-4 .5.1 1.6.6 3.9 2.2.3.2.7.5 1 .8-.1.1-.1.2-.2.2-.4.4-.4 1.1 0 1.5.2.2.5.3.8.3.3 0 .5-.1.8-.3l.4-.4c1.6 1.4 3.3 3 5 4.7 1.4 1.5 2.8 3 4 4.4l-.6.3c-.5.3-.7 1-.4 1.5.2.4.6.5.9.5.2 0 .4 0 .5-.1.3-.2.6-.3.9-.5.5.6.9 1.2 1.3 1.8 1.6 2.3 2 3.5 2.1 4-.5-.1-1.7-.5-3.9-2.2z"/><path class="st0" d="M19.3 67.9c-.2-.6-.9-.8-1.4-.5-.5.2-.8.9-.6 1.4.2.4.6.7 1 .7.1 0 .2 0 .4-.1.5-.2.8-.8.6-1.5 0 .1 0 0 0 0zM39.8 53.3c.2.2.5.3.8.3.3 0 .5-.1.8-.3 2.4-2.4 6.2-3.6 9.1-3.8.6 0 1-.6 1-1.2s-.6-1-1.1-1c-3.2.3-7.6 1.6-10.4 4.4-.6.4-.6 1.1-.2 1.6zM53.8 47.5c-.7-.2-1.2.2-1.4.8-.1.6.2 1.2.8 1.3h.4c.5 0 .9-.3 1-.8.1-.5-.2-1.1-.8-1.3zM48.3 55.3c-1.8 0-3.2 1.5-3.2 3.3 0 1.8 1.4 3.3 3.2 3.3 1.8 0 3.2-1.5 3.2-3.3 0-1.8-1.5-3.3-3.2-3.3zm0 4.4c-.6 0-1.1-.5-1.1-1.1 0-.6.5-1.1 1.1-1.1.6 0 1.1.5 1.1 1.1-.1.6-.5 1.1-1.1 1.1zM21.2 46.8c1.8 0 3.2-1.5 3.2-3.3 0-1.8-1.4-3.3-3.2-3.3S18 41.7 18 43.5c0 1.8 1.4 3.3 3.2 3.3zm0-4.4c.6 0 1.1.5 1.1 1.1 0 .6-.5 1.1-1.1 1.1s-1.1-.5-1.1-1.1c0-.6.5-1.1 1.1-1.1zM47.9 68.5c0-.6-.5-1.1-1.1-1.1-.6 0-1.1.5-1.1 1.1 0 .6.5 1.1 1.1 1.1.6 0 1.1-.5 1.1-1.1zM35.8 46.7c.6 0 1.1-.5 1.1-1.1 0-.6-.5-1.1-1.1-1.1-.6 0-1.1.5-1.1 1.1 0 .7.5 1.1 1.1 1.1zM50.1 75.6c-.6 0-1.1.5-1.1 1.1 0 .6.5 1.1 1.1 1.1.6 0 1.1-.5 1.1-1.1-.1-.6-.6-1.1-1.1-1.1zM14.8 39.6c.6 0 1.1-.5 1.1-1.1 0-.6-.5-1.1-1.1-1.1-.6 0-1.1.5-1.1 1.1.1.6.6 1.1 1.1 1.1zM11.5 46.3l-1.5-.5c-.1 0-.3-.2-.3-.3L9.3 44c-.1-.4-.5-.7-.9-.7s-.8.3-.9.7L7 45.5c0 .1-.2.3-.3.3l-1.5.5c-.4.1-.6.5-.6.9s.3.8.6.9l1.5.5c.1 0 .3.2.3.3l.5 1.5c.1.4.5.7.9.7s.8-.3.9-.7l.5-1.4c0-.1.2-.3.3-.3l1.5-.5c.4-.1.6-.5.6-.9 0-.5-.3-.8-.7-1zm-3.1 1.9c-.2-.4-.6-.8-1-1 .4-.2.8-.6 1-1 .2.4.6.8 1 1-.5.3-.8.6-1 1zM38.1 54.1l-1.5-.5c-.1 0-.3-.2-.3-.3l-.5-1.5c-.1-.4-.5-.7-.9-.7s-.8.3-.9.7l-.5 1.5c0 .1-.2.3-.3.3l-1.5.5c-.4.1-.6.5-.6.9s.3.8.6.9l1.5.5c.1 0 .3.2.3.3l.5 1.5c.1.4.5.7.9.7s.8-.3.9-.7l.5-1.5c0-.1.2-.3.3-.3l1.5-.5c.4-.1.6-.5.6-.9.1-.4-.2-.8-.6-.9zM34.9 56c-.2-.4-.6-.8-1-1 .4-.2.8-.6 1-1 .2.4.6.8 1 1-.4.2-.7.6-1 1zM48 82.2l-1.5-.5c-.1 0-.3-.2-.3-.3l-.5-1.5c-.1-.4-.5-.7-.9-.7s-.8.3-.9.7l-.5 1.5c0 .1-.2.3-.3.3l-1.5.5c-.4.1-.6.5-.6.9s.3.8.6.9l1.5.5c.1 0 .3.2.3.3l.5 1.5c.1.4.5.7.9.7s.8-.3.9-.7l.5-1.5c0-.1.2-.3.3-.3L48 84c.4-.1.6-.5.6-.9.1-.4-.2-.8-.6-.9zm-3.1 1.9c-.2-.4-.6-.8-1-1 .4-.2.8-.6 1-1 .2.4.6.8 1 1-.5.2-.8.6-1 1z"/></g><path class="st0" d="M346.6 57.1l-27.8 6.3 1.4-4.4c.2-.6-.1-1.1-.7-1.3l-7.8-2.5c-.3-.1-.5-.1-.8.1-.2.1-.4.4-.5.6l-3.2 10.5c-.4-.4-.8-.6-1.3-.8-1.9-.6-3.9.5-4.4 2.4-.3 1-.2 2 .2 2.8-.8.5-1.5 1.2-1.7 2.1-.3.9-.2 1.9.2 2.8.4.9 1.2 1.5 2.1 1.8.5.2 1 .2 1.5.1l-3.2 10.5c-.1.3-.1.6.1.8.1.2.3.4.6.5L309 92c.2.1.4.1.5 0 .3-.1.6-.3.8-.7l6.7-21.8 4.1 18.8c.1.6.7.9 1.2.8l29.7-6.8c.6-.1.9-.7.8-1.3l-5-23.1c-.1-.5-.6-.9-1.2-.8zm-34.5.5l5.8 1.9-3.6 11.7-5.8-1.9 3.6-11.7zm.8 18.3l-5.8-1.9.9-2.8 5.8 1.9-.9 2.8zm-9.5-7.3c.2-.5.6-.9 1.1-1 .2-.1.5 0 .8 0 .8.3 1.2 1.1 1 1.9l-.4 1.5-1.4-.5c-.9-.2-1.3-1.1-1.1-1.9zm1.3 5.9c-.2.8-1.1 1.3-1.9 1-.8-.3-1.2-1.1-1-1.9.1-.4.4-.7.7-.9.1-.1.2-.1.4-.1.3-.1.5 0 .8 0l1.4.5-.4 1.4zm4 15.1l-5.8-1.9 3.6-11.7 5.8 1.9-3.6 11.7zm9.6-23.8l10.4-2.4 4.6 21-10.4 2.4-4.6-21zm32.3 14.6l-10.4 2.4-1.2-5.6c-.1-.6-.7-.9-1.2-.8-.6.1-.9.7-.8 1.3l1.2 5.6-2.8.6-4.6-21 2.8-.6 1.3 6.2c.1.6.7.9 1.2.8.6-.1.9-.7.8-1.3l-1.3-6.2 10.4-2.4 4.6 21z"/><path class="st0" d="M331 57.2c.6-.1.9-.7.8-1.3l-2.4-11.1c-.1-.6-.7-.9-1.2-.8-.6.1-.9.7-.8 1.3l2.4 11.1c.1.6.7 1 1.2.8zM337.1 55.9c.6-.1.9-.7.8-1.3-.9-3.9-.2-8 1.9-11.4.3-.5.2-1.1-.3-1.5-.5-.3-1.1-.2-1.4.3-2.4 3.9-3.2 8.5-2.2 13 .1.6.7 1 1.2.9zM323.7 57.8c.1.6.7.9 1.2.8.6-.1.9-.7.8-1.3-1-4.5-3.6-8.3-7.4-10.8-.5-.3-1.1-.2-1.4.3-.3.5-.2 1.1.3 1.5 3.4 2.3 5.6 5.6 6.5 9.5zM312 46.6c1.8-.4 2.9-2.2 2.5-4-.4-1.8-2.2-3-3.9-2.6-1.8.4-2.9 2.2-2.5 4 .4 1.8 2.2 3 3.9 2.6zm-1-4.6c.7-.2 1.3.3 1.5 1 .1.7-.3 1.4-.9 1.5-.7.2-1.3-.3-1.5-1-.1-.6.3-1.3.9-1.5zM321.1 41c.3-.1.5-.2.6-.5s.2-.5.1-.8c-.1-.3-.2-.5-.5-.7-.2-.1-.5-.2-.8-.1-.3.1-.5.2-.6.5-.1.2-.2.5-.1.8.1.3.2.5.5.7.2.1.5.1.8.1zM341.9 50.8c.2.1.5.2.8.1.3-.1.5-.2.6-.5.1-.2.2-.5.1-.8-.1-.3-.2-.5-.5-.7-.2-.1-.5-.2-.8-.1-.3.1-.5.2-.6.5-.1.2-.2.5-.1.8.1.3.3.6.5.7zM342.5 38.5c.3-.1.5-.2.6-.5.1-.2.2-.5.1-.8-.1-.3-.2-.5-.5-.7-.2-.1-.5-.2-.8-.1-.3.1-.5.2-.6.5-.1.2-.2.5-.1.8.1.3.2.5.5.7.3.1.6.1.8.1zM336.7 71.8c-.3.1-.5.2-.6.5-.1.2-.2.5-.1.8.1.3.2.5.5.7.2.1.5.2.8.1.3-.1.5-.2.6-.5.1-.2.2-.5.1-.8-.1-.3-.2-.5-.5-.7-.2-.1-.5-.2-.8-.1zM332.7 26.3l-1.5-.2c-.1 0-.3-.1-.3-.2l-.8-1.3c-.2-.3-.6-.5-1-.4s-.7.4-.7.8l-.2 1.5c0 .1-.1.3-.2.4l-1.3.8c-.3.2-.5.6-.4 1 .1.4.4.7.8.7l1.5.2c.1 0 .3.1.3.2l.8 1.3c.2.3.6.5 1 .4.4-.1.7-.4.7-.8l.2-1.5c0-.1.1-.3.2-.4l1.3-.8c.3-.2.5-.6.4-1 0-.4-.4-.7-.8-.7zm-2.5 2.5c-.3-.4-.7-.6-1.1-.7.4-.3.6-.7.7-1.2.3.4.7.6 1.1.7-.4.3-.6.7-.7 1.2z"/></svg>