<svg width="25" height="25" fill="none" xmlns="http://www.w3.org/2000/svg" viewBox="0 0 24 24"><path d="M19.55 12v10H3.91V12" fill="curentColor"/><path d="M19.55 12v10H3.91V12" stroke="#6A7889" stroke-width="2" stroke-linecap="round" stroke-linejoin="round"/><path d="M21.506 7H1.956v5h19.55V7z" fill="curentColor" stroke="#6A7889" stroke-width="2" stroke-linecap="round" stroke-linejoin="round"/><path d="M11.73 22V7M11.73 7H7.332c-.649 0-1.27-.263-1.729-.732A2.53 2.53 0 014.888 4.5c0-.663.257-1.299.715-1.768A2.416 2.416 0 017.332 2c3.42 0 4.398 5 4.398 5zM11.73 7h4.4c.648 0 1.27-.263 1.727-.732a2.53 2.53 0 00.716-1.768 2.53 2.53 0 00-.716-1.768A2.416 2.416 0 0016.13 2c-3.421 0-4.399 5-4.399 5z" stroke="#6A7889" stroke-width="2" stroke-linecap="round" stroke-linejoin="round"/></svg>