<svg width="150" height="125" viewBox="0 0 150 125" fill="none" xmlns="http://www.w3.org/2000/svg">
<path d="M149.508 28.8765C149.508 19.2415 134.456 11.4307 115.888 11.4307C105.037 11.4307 73.4451 11.4307 62.5936 11.4307C44.0259 11.4307 28.9739 19.2415 28.9739 28.8765C28.9739 35.7451 36.6236 41.686 47.7427 44.5315C50.5862 45.2592 52.9865 47.138 54.4762 49.6668C59.3362 57.9162 71.5495 63.768 85.8483 63.768C99.1551 63.768 110.655 58.7001 116.104 51.3483C118.372 48.2889 121.698 46.1824 125.462 45.6033C139.365 43.4642 149.508 36.7854 149.508 28.8765Z" fill="url(#paint0_radial)"/>
<path d="M119.041 11.5077C118.003 11.4577 116.951 11.4307 115.888 11.4307C105.987 11.4307 78.8243 11.4307 65.8982 11.4307C61.7664 15.9418 59.3193 21.5424 59.3193 27.6098C59.3193 29.2898 60.1596 30.7804 61.6473 32.0824L92.8517 63.2868C103.108 61.8618 111.638 57.373 116.103 51.3486C118.371 48.2892 121.697 46.1827 125.461 45.6036C133.822 44.3171 140.818 41.388 145.071 37.5383L119.041 11.5077Z" fill="url(#paint1_linear)"/>
<path d="M125.515 27.6098C125.515 42.5409 59.3198 42.5409 59.3198 27.6098C59.3198 12.6786 74.1381 0.574463 92.4175 0.574463C110.697 0.574463 125.515 12.6786 125.515 27.6098Z" fill="url(#paint2_linear)"/>
<path d="M116.338 23.3009C117.707 23.3009 118.817 22.1909 118.817 20.8218C118.817 19.4526 117.707 18.3427 116.338 18.3427C114.969 18.3427 113.859 19.4526 113.859 20.8218C113.859 22.1909 114.969 23.3009 116.338 23.3009Z" fill="url(#paint3_linear)"/>
<path d="M111.735 29.1903C112.816 29.1903 113.692 28.314 113.692 27.233C113.692 26.152 112.816 25.2756 111.735 25.2756C110.654 25.2756 109.777 26.152 109.777 27.233C109.777 28.314 110.654 29.1903 111.735 29.1903Z" fill="url(#paint4_linear)"/>
<path d="M120.266 30.0553C120.918 30.0553 121.446 29.527 121.446 28.8753C121.446 28.2236 120.918 27.6953 120.266 27.6953C119.614 27.6953 119.086 28.2236 119.086 28.8753C119.086 29.527 119.614 30.0553 120.266 30.0553Z" fill="url(#paint5_linear)"/>
<path d="M98.0285 7.01212C100.986 12.6548 95.9567 21.1215 86.795 25.9236C77.6332 30.7256 67.8091 30.0439 64.8517 24.4012C61.8944 18.7586 66.9235 10.2918 76.0853 5.48977C85.247 0.687708 95.0708 1.36947 98.0285 7.01212Z" fill="url(#paint6_linear)"/>
<path d="M149.508 71.9801C149.508 58.1765 127.529 44.6671 100.417 44.6671C87.2169 44.6671 48.6269 44.6671 35.3208 44.6671C15.5419 44.6671 -0.492188 52.9277 -0.492188 63.1174C-0.492188 66.1198 0.899871 68.9542 3.36958 71.4592C8.3887 76.5503 10.5622 83.6203 9.32075 90.4683C9.06281 91.8906 8.92928 93.3465 8.92928 94.8277C8.92928 111.058 24.9634 124.215 44.7422 124.215C51.639 124.215 58.0799 122.615 63.5443 119.843C69.1322 117.008 75.5978 116.21 81.8237 117.374C84.7722 117.925 87.8413 118.216 90.9937 118.216C109.01 118.216 124.319 108.715 129.878 95.4912C130.959 92.9195 132.948 90.7886 135.518 89.4501C144.173 84.9445 149.508 78.7801 149.508 71.9801Z" fill="url(#paint7_radial)"/>
<path d="M140.742 86.2348L106.949 52.4424C104.03 49.3821 100.474 46.748 96.4473 44.6671C85.8399 44.6671 67.264 44.6671 52.5626 44.6671C41.0493 50.6168 33.4034 61.1083 33.4034 73.0598C33.4034 75.1633 34.4643 77.0271 36.3399 78.6536L74.5955 116.909C76.9982 116.772 79.4284 116.926 81.8237 117.374C84.7723 117.925 87.8414 118.216 90.9937 118.216C109.01 118.216 124.319 108.715 129.878 95.4912C130.959 92.9195 132.948 90.7886 135.518 89.4504C137.429 88.4559 139.177 87.3801 140.742 86.2348Z" fill="url(#paint8_linear)"/>
<path d="M115.612 73.0597C115.612 91.603 33.4034 91.603 33.4034 73.0597C33.4034 54.5165 51.8064 39.4844 74.5076 39.4844C97.2087 39.4844 115.612 54.5168 115.612 73.0597Z" fill="url(#paint9_linear)"/>
<g opacity="0.6">
<g opacity="0.6">
<path opacity="0.6" d="M67.5702 75.8077C68.9394 75.8077 70.0493 74.6977 70.0493 73.3285C70.0493 71.9594 68.9394 70.8494 67.5702 70.8494C66.201 70.8494 65.0911 71.9594 65.0911 73.3285C65.0911 74.6977 66.201 75.8077 67.5702 75.8077Z" fill="url(#paint10_linear)"/>
<path opacity="0.6" d="M62.9671 81.6971C64.0481 81.6971 64.9245 80.8207 64.9245 79.7397C64.9245 78.6587 64.0481 77.7823 62.9671 77.7823C61.8861 77.7823 61.0098 78.6587 61.0098 79.7397C61.0098 80.8207 61.8861 81.6971 62.9671 81.6971Z" fill="url(#paint11_linear)"/>
<path opacity="0.6" d="M71.4981 82.5621C72.1498 82.5621 72.6781 82.0338 72.6781 81.3821C72.6781 80.7304 72.1498 80.2021 71.4981 80.2021C70.8464 80.2021 70.3181 80.7304 70.3181 81.3821C70.3181 82.0338 70.8464 82.5621 71.4981 82.5621Z" fill="url(#paint12_linear)"/>
</g>
<g opacity="0.6">
<path opacity="0.6" d="M80.6785 77.0288C81.6903 77.0288 82.5106 76.2086 82.5106 75.1967C82.5106 74.1849 81.6903 73.3647 80.6785 73.3647C79.6667 73.3647 78.8464 74.1849 78.8464 75.1967C78.8464 76.2086 79.6667 77.0288 80.6785 77.0288Z" fill="url(#paint13_linear)"/>
<path opacity="0.6" d="M74.8803 77.2665C75.679 77.2665 76.3264 76.619 76.3264 75.8203C76.3264 75.0216 75.679 74.3741 74.8803 74.3741C74.0816 74.3741 73.4341 75.0216 73.4341 75.8203C73.4341 76.619 74.0816 77.2665 74.8803 77.2665Z" fill="url(#paint14_linear)"/>
<path opacity="0.6" d="M78.1787 82.1999C78.6603 82.1999 79.0508 81.8095 79.0508 81.3279C79.0508 80.8462 78.6603 80.4558 78.1787 80.4558C77.6971 80.4558 77.3066 80.8462 77.3066 81.3279C77.3066 81.8095 77.6971 82.1999 78.1787 82.1999Z" fill="url(#paint15_linear)"/>
</g>
</g>
<path d="M80.0983 50.5951C83.9274 57.9007 78.953 68.0574 68.9877 73.2804C59.0224 78.5033 47.8398 76.8154 44.0106 69.5098C40.1815 62.2042 45.1559 52.0474 55.1212 46.8245C65.0865 41.6016 76.2692 43.2895 80.0983 50.5951Z" fill="url(#paint16_linear)"/>
<defs>
<radialGradient id="paint0_radial" cx="0" cy="0" r="1" gradientUnits="userSpaceOnUse" gradientTransform="translate(72.1032 23.9507) scale(69.211 46.8804)">
<stop stop-color="#F8F6FB"/>
<stop offset="0.5047" stop-color="#F7F4FB"/>
<stop offset="0.7657" stop-color="#F5ECFB"/>
<stop offset="0.9705" stop-color="#F0DFFB"/>
<stop offset="1" stop-color="#EFDCFB"/>
</radialGradient>
<linearGradient id="paint1_linear" x1="111.631" y1="54.9801" x2="81.0135" y2="-16.0755" gradientUnits="userSpaceOnUse">
<stop stop-color="#EFDCFB" stop-opacity="0"/>
<stop offset="0.0287" stop-color="#E9D6F7" stop-opacity="0.029"/>
<stop offset="0.2203" stop-color="#C5B5DE" stop-opacity="0.22"/>
<stop offset="0.4138" stop-color="#AA9BCB" stop-opacity="0.414"/>
<stop offset="0.6078" stop-color="#9688BD" stop-opacity="0.608"/>
<stop offset="0.8028" stop-color="#8A7DB5" stop-opacity="0.803"/>
<stop offset="1" stop-color="#8679B2"/>
</linearGradient>
<linearGradient id="paint2_linear" x1="88.0342" y1="14.8068" x2="102.152" y2="50.6892" gradientUnits="userSpaceOnUse">
<stop stop-color="#FFA936"/>
<stop offset="0.4112" stop-color="#FF8548"/>
<stop offset="0.7781" stop-color="#FF6C54"/>
<stop offset="1" stop-color="#FF6359"/>
</linearGradient>
<linearGradient id="paint3_linear" x1="118.558" y1="24.0053" x2="112.223" y2="14.1201" gradientUnits="userSpaceOnUse">
<stop stop-color="#F82814" stop-opacity="0"/>
<stop offset="0.2454" stop-color="#F12817" stop-opacity="0.245"/>
<stop offset="0.6052" stop-color="#DD2820" stop-opacity="0.605"/>
<stop offset="1" stop-color="#C0272D"/>
</linearGradient>
<linearGradient id="paint4_linear" x1="113.524" y1="29.751" x2="108.523" y2="21.9469" gradientUnits="userSpaceOnUse">
<stop stop-color="#F82814" stop-opacity="0"/>
<stop offset="0.2454" stop-color="#F12817" stop-opacity="0.245"/>
<stop offset="0.6052" stop-color="#DD2820" stop-opacity="0.605"/>
<stop offset="1" stop-color="#C0272D"/>
</linearGradient>
<linearGradient id="paint5_linear" x1="121.421" y1="30.3964" x2="118.406" y2="25.6915" gradientUnits="userSpaceOnUse">
<stop stop-color="#F82814" stop-opacity="0"/>
<stop offset="0.2454" stop-color="#F12817" stop-opacity="0.245"/>
<stop offset="0.6052" stop-color="#DD2820" stop-opacity="0.605"/>
<stop offset="1" stop-color="#C0272D"/>
</linearGradient>
<linearGradient id="paint6_linear" x1="82.7224" y1="17.6008" x2="67.0466" y2="-12.2825" gradientUnits="userSpaceOnUse">
<stop stop-color="white" stop-opacity="0"/>
<stop offset="1" stop-color="white"/>
</linearGradient>
<radialGradient id="paint7_radial" cx="0" cy="0" r="1" gradientUnits="userSpaceOnUse" gradientTransform="translate(59.4267 44.7881) scale(81.4025)">
<stop stop-color="#F8F6FB"/>
<stop offset="0.5047" stop-color="#F7F4FB"/>
<stop offset="0.7657" stop-color="#F5ECFB"/>
<stop offset="0.9705" stop-color="#F0DFFB"/>
<stop offset="1" stop-color="#EFDCFB"/>
</radialGradient>
<linearGradient id="paint8_linear" x1="93.4926" y1="102.573" x2="69.2961" y2="17.7783" gradientUnits="userSpaceOnUse">
<stop stop-color="#EFDCFB" stop-opacity="0"/>
<stop offset="0.0287" stop-color="#E9D6F7" stop-opacity="0.029"/>
<stop offset="0.2203" stop-color="#C5B5DE" stop-opacity="0.22"/>
<stop offset="0.4138" stop-color="#AA9BCB" stop-opacity="0.414"/>
<stop offset="0.6078" stop-color="#9688BD" stop-opacity="0.608"/>
<stop offset="0.8028" stop-color="#8A7DB5" stop-opacity="0.803"/>
<stop offset="1" stop-color="#8679B2"/>
</linearGradient>
<linearGradient id="paint9_linear" x1="68.0549" y1="47.293" x2="78.9684" y2="88.4824" gradientUnits="userSpaceOnUse">
<stop stop-color="#FFD945"/>
<stop offset="0.3043" stop-color="#FFCD3E"/>
<stop offset="0.8558" stop-color="#FFAD2B"/>
<stop offset="1" stop-color="#FFA325"/>
</linearGradient>
<linearGradient id="paint10_linear" x1="69.7708" y1="76.5443" x2="63.4361" y2="66.6589" gradientUnits="userSpaceOnUse">
<stop stop-color="#F82814" stop-opacity="0"/>
<stop offset="0.2454" stop-color="#F12817" stop-opacity="0.245"/>
<stop offset="0.6052" stop-color="#DD2820" stop-opacity="0.605"/>
<stop offset="1" stop-color="#C0272D"/>
</linearGradient>
<linearGradient id="paint11_linear" x1="64.7371" y1="82.2896" x2="59.7363" y2="74.4859" gradientUnits="userSpaceOnUse">
<stop stop-color="#F82814" stop-opacity="0"/>
<stop offset="0.2454" stop-color="#F12817" stop-opacity="0.245"/>
<stop offset="0.6052" stop-color="#DD2820" stop-opacity="0.605"/>
<stop offset="1" stop-color="#C0272D"/>
</linearGradient>
<linearGradient id="paint12_linear" x1="72.6342" y1="82.9352" x2="69.6193" y2="78.2303" gradientUnits="userSpaceOnUse">
<stop stop-color="#F82814" stop-opacity="0"/>
<stop offset="0.2454" stop-color="#F12817" stop-opacity="0.245"/>
<stop offset="0.6052" stop-color="#DD2820" stop-opacity="0.605"/>
<stop offset="1" stop-color="#C0272D"/>
</linearGradient>
<linearGradient id="paint13_linear" x1="80.0436" y1="77.9011" x2="82.3655" y2="69.5437" gradientUnits="userSpaceOnUse">
<stop stop-color="#F82814" stop-opacity="0"/>
<stop offset="0.2454" stop-color="#F12817" stop-opacity="0.245"/>
<stop offset="0.6052" stop-color="#DD2820" stop-opacity="0.605"/>
<stop offset="1" stop-color="#C0272D"/>
</linearGradient>
<linearGradient id="paint14_linear" x1="74.4007" y1="77.9598" x2="76.2341" y2="71.3624" gradientUnits="userSpaceOnUse">
<stop stop-color="#F82814" stop-opacity="0"/>
<stop offset="0.2454" stop-color="#F12817" stop-opacity="0.245"/>
<stop offset="0.6052" stop-color="#DD2820" stop-opacity="0.605"/>
<stop offset="1" stop-color="#C0272D"/>
</linearGradient>
<linearGradient id="paint15_linear" x1="77.9355" y1="82.6256" x2="79.0406" y2="78.6481" gradientUnits="userSpaceOnUse">
<stop stop-color="#F82814" stop-opacity="0"/>
<stop offset="0.2454" stop-color="#F12817" stop-opacity="0.245"/>
<stop offset="0.6052" stop-color="#DD2820" stop-opacity="0.605"/>
<stop offset="1" stop-color="#C0272D"/>
</linearGradient>
<linearGradient id="paint16_linear" x1="63.8962" y1="63.6115" x2="43.594" y2="24.9246" gradientUnits="userSpaceOnUse">
<stop stop-color="white" stop-opacity="0"/>
<stop offset="1" stop-color="white"/>
</linearGradient>
</defs>
</svg>
