<svg class="logo-svg" width="115" height="48" viewBox="0 0 115 48" fill="none" xmlns="http://www.w3.org/2000/svg">
<path d="M23.7563 0H24.2427C27.3624 0 30.4515 0.614474 33.3338 1.80834C36.216 3.0022 38.8349 4.75207 41.0409 6.95805C43.2468 9.16402 44.9967 11.7829 46.1906 14.6651C47.3845 17.5474 47.9989 20.6366 47.9989 23.7563V24.2427C47.9989 30.5432 45.496 36.5857 41.0409 41.0409C36.5857 45.496 30.5432 47.9989 24.2427 47.9989H0V23.7563C0 17.4557 2.50289 11.4132 6.95805 6.95805C11.4132 2.50288 17.4557 0 23.7563 0Z" fill="white"/>
<path d="M31.9278 15.5987C31.3041 14.9684 30.456 14.6113 29.5694 14.6056C29.1249 14.6015 28.6842 14.6873 28.2738 14.858C27.8634 15.0287 27.4917 15.2806 27.1812 15.5987C26.7117 16.0681 26.3919 16.6662 26.2623 17.3173C26.1327 17.9685 26.1992 18.6435 26.4532 19.2569C26.7072 19.8703 27.1375 20.3946 27.6895 20.7635C28.2415 21.1323 28.8905 21.3292 29.5545 21.3292C30.2184 21.3292 30.8674 21.1323 31.4195 20.7635C31.9715 20.3946 32.4017 19.8703 32.6558 19.2569C32.9098 18.6435 32.9762 17.9685 32.8467 17.3173C32.7171 16.6662 32.3973 16.0681 31.9278 15.5987ZM31.0926 19.51C30.7878 19.8178 30.3984 20.028 29.9739 20.114C29.5493 20.2 29.1088 20.1579 28.7083 19.9931C28.3077 19.8283 27.9652 19.5482 27.7241 19.1883C27.483 18.8284 27.3543 18.4051 27.3543 17.9719C27.3543 17.5388 27.483 17.1154 27.7241 16.7556C27.9652 16.3957 28.3077 16.1156 28.7083 15.9508C29.1088 15.786 29.5493 15.7439 29.9739 15.8299C30.3984 15.9159 30.7878 16.1261 31.0926 16.4338C31.4993 16.8424 31.7276 17.3954 31.7276 17.9719C31.7276 18.5484 31.4993 19.1015 31.0926 19.51ZM31.9278 15.5987C31.3041 14.9684 30.456 14.6113 29.5694 14.6056C29.1249 14.6015 28.6842 14.6873 28.2738 14.858C27.8634 15.0287 27.4917 15.2806 27.1812 15.5987C26.7117 16.0681 26.3919 16.6662 26.2623 17.3173C26.1327 17.9685 26.1992 18.6435 26.4532 19.2569C26.7072 19.8703 27.1375 20.3946 27.6895 20.7635C28.2415 21.1323 28.8905 21.3292 29.5545 21.3292C30.2184 21.3292 30.8674 21.1323 31.4195 20.7635C31.9715 20.3946 32.4017 19.8703 32.6558 19.2569C32.9098 18.6435 32.9762 17.9685 32.8467 17.3173C32.7171 16.6662 32.3973 16.0681 31.9278 15.5987ZM31.0926 19.51C30.7878 19.8178 30.3984 20.028 29.9739 20.114C29.5493 20.2 29.1088 20.1579 28.7083 19.9931C28.3077 19.8283 27.9652 19.5482 27.7241 19.1883C27.483 18.8284 27.3543 18.4051 27.3543 17.9719C27.3543 17.5388 27.483 17.1154 27.7241 16.7556C27.9652 16.3957 28.3077 16.1156 28.7083 15.9508C29.1088 15.786 29.5493 15.7439 29.9739 15.8299C30.3984 15.9159 30.7878 16.1261 31.0926 16.4338C31.4993 16.8424 31.7276 17.3954 31.7276 17.9719C31.7276 18.5484 31.4993 19.1015 31.0926 19.51ZM31.9278 15.5987C31.3041 14.9684 30.456 14.6113 29.5694 14.6056C29.1249 14.6015 28.6842 14.6873 28.2738 14.858C27.8634 15.0287 27.4917 15.2806 27.1812 15.5987C26.7117 16.0681 26.3919 16.6662 26.2623 17.3173C26.1327 17.9685 26.1992 18.6435 26.4532 19.2569C26.7072 19.8703 27.1375 20.3946 27.6895 20.7635C28.2415 21.1323 28.8905 21.3292 29.5545 21.3292C30.2184 21.3292 30.8674 21.1323 31.4195 20.7635C31.9715 20.3946 32.4017 19.8703 32.6558 19.2569C32.9098 18.6435 32.9762 17.9685 32.8467 17.3173C32.7171 16.6662 32.3973 16.0681 31.9278 15.5987ZM31.0926 19.51C30.7878 19.8178 30.3984 20.028 29.9739 20.114C29.5493 20.2 29.1088 20.1579 28.7083 19.9931C28.3077 19.8283 27.9652 19.5482 27.7241 19.1883C27.483 18.8284 27.3543 18.4051 27.3543 17.9719C27.3543 17.5388 27.483 17.1154 27.7241 16.7556C27.9652 16.3957 28.3077 16.1156 28.7083 15.9508C29.1088 15.786 29.5493 15.7439 29.9739 15.8299C30.3984 15.9159 30.7878 16.1261 31.0926 16.4338C31.4993 16.8424 31.7276 17.3954 31.7276 17.9719C31.7276 18.5484 31.4993 19.1015 31.0926 19.51ZM31.9278 15.5987C31.3041 14.9684 30.456 14.6113 29.5694 14.6056C29.1249 14.6015 28.6842 14.6873 28.2738 14.858C27.8634 15.0287 27.4917 15.2806 27.1812 15.5987C26.7117 16.0681 26.3919 16.6662 26.2623 17.3173C26.1327 17.9685 26.1992 18.6435 26.4532 19.2569C26.7072 19.8703 27.1375 20.3946 27.6895 20.7635C28.2415 21.1323 28.8905 21.3292 29.5545 21.3292C30.2184 21.3292 30.8674 21.1323 31.4195 20.7635C31.9715 20.3946 32.4017 19.8703 32.6558 19.2569C32.9098 18.6435 32.9762 17.9685 32.8467 17.3173C32.7171 16.6662 32.3973 16.0681 31.9278 15.5987ZM31.0926 19.51C30.7878 19.8178 30.3984 20.028 29.9739 20.114C29.5493 20.2 29.1088 20.1579 28.7083 19.9931C28.3077 19.8283 27.9652 19.5482 27.7241 19.1883C27.483 18.8284 27.3543 18.4051 27.3543 17.9719C27.3543 17.5388 27.483 17.1154 27.7241 16.7556C27.9652 16.3957 28.3077 16.1156 28.7083 15.9508C29.1088 15.786 29.5493 15.7439 29.9739 15.8299C30.3984 15.9159 30.7878 16.1261 31.0926 16.4338C31.4993 16.8424 31.7276 17.3954 31.7276 17.9719C31.7276 18.5484 31.4993 19.1015 31.0926 19.51ZM31.9278 15.5987C31.3041 14.9684 30.456 14.6113 29.5694 14.6056C29.1249 14.6015 28.6842 14.6873 28.2738 14.858C27.8634 15.0287 27.4917 15.2806 27.1812 15.5987C26.7117 16.0681 26.3919 16.6662 26.2623 17.3173C26.1327 17.9685 26.1992 18.6435 26.4532 19.2569C26.7072 19.8703 27.1375 20.3946 27.6895 20.7635C28.2415 21.1323 28.8905 21.3292 29.5545 21.3292C30.2184 21.3292 30.8674 21.1323 31.4195 20.7635C31.9715 20.3946 32.4017 19.8703 32.6558 19.2569C32.9098 18.6435 32.9762 17.9685 32.8467 17.3173C32.7171 16.6662 32.3973 16.0681 31.9278 15.5987ZM31.0926 19.51C30.7878 19.8178 30.3984 20.028 29.9739 20.114C29.5493 20.2 29.1088 20.1579 28.7083 19.9931C28.3077 19.8283 27.9652 19.5482 27.7241 19.1883C27.483 18.8284 27.3543 18.4051 27.3543 17.9719C27.3543 17.5388 27.483 17.1154 27.7241 16.7556C27.9652 16.3957 28.3077 16.1156 28.7083 15.9508C29.1088 15.786 29.5493 15.7439 29.9739 15.8299C30.3984 15.9159 30.7878 16.1261 31.0926 16.4338C31.4993 16.8424 31.7276 17.3954 31.7276 17.9719C31.7276 18.5484 31.4993 19.1015 31.0926 19.51ZM31.9278 15.5987C31.3041 14.9684 30.456 14.6113 29.5694 14.6056C29.1249 14.6015 28.6842 14.6873 28.2738 14.858C27.8634 15.0287 27.4917 15.2806 27.1812 15.5987C26.7117 16.0681 26.3919 16.6662 26.2623 17.3173C26.1327 17.9685 26.1992 18.6435 26.4532 19.2569C26.7072 19.8703 27.1375 20.3946 27.6895 20.7635C28.2415 21.1323 28.8905 21.3292 29.5545 21.3292C30.2184 21.3292 30.8674 21.1323 31.4195 20.7635C31.9715 20.3946 32.4017 19.8703 32.6558 19.2569C32.9098 18.6435 32.9762 17.9685 32.8467 17.3173C32.7171 16.6662 32.3973 16.0681 31.9278 15.5987ZM31.0926 19.51C30.7878 19.8178 30.3984 20.028 29.9739 20.114C29.5493 20.2 29.1088 20.1579 28.7083 19.9931C28.3077 19.8283 27.9652 19.5482 27.7241 19.1883C27.483 18.8284 27.3543 18.4051 27.3543 17.9719C27.3543 17.5388 27.483 17.1154 27.7241 16.7556C27.9652 16.3957 28.3077 16.1156 28.7083 15.9508C29.1088 15.786 29.5493 15.7439 29.9739 15.8299C30.3984 15.9159 30.7878 16.1261 31.0926 16.4338C31.4993 16.8424 31.7276 17.3954 31.7276 17.9719C31.7276 18.5484 31.4993 19.1015 31.0926 19.51ZM31.9278 15.5987C31.3041 14.9684 30.456 14.6113 29.5694 14.6056C29.1249 14.6015 28.6842 14.6873 28.2738 14.858C27.8634 15.0287 27.4917 15.2806 27.1812 15.5987C26.7117 16.0681 26.3919 16.6662 26.2623 17.3173C26.1327 17.9685 26.1992 18.6435 26.4532 19.2569C26.7072 19.8703 27.1375 20.3946 27.6895 20.7635C28.2415 21.1323 28.8905 21.3292 29.5545 21.3292C30.2184 21.3292 30.8674 21.1323 31.4195 20.7635C31.9715 20.3946 32.4017 19.8703 32.6558 19.2569C32.9098 18.6435 32.9762 17.9685 32.8467 17.3173C32.7171 16.6662 32.3973 16.0681 31.9278 15.5987ZM31.0926 19.51C30.7878 19.8178 30.3984 20.028 29.9739 20.114C29.5493 20.2 29.1088 20.1579 28.7083 19.9931C28.3077 19.8283 27.9652 19.5482 27.7241 19.1883C27.483 18.8284 27.3543 18.4051 27.3543 17.9719C27.3543 17.5388 27.483 17.1154 27.7241 16.7556C27.9652 16.3957 28.3077 16.1156 28.7083 15.9508C29.1088 15.786 29.5493 15.7439 29.9739 15.8299C30.3984 15.9159 30.7878 16.1261 31.0926 16.4338C31.4993 16.8424 31.7276 17.3954 31.7276 17.9719C31.7276 18.5484 31.4993 19.1015 31.0926 19.51ZM31.9278 15.5987C31.3041 14.9684 30.456 14.6113 29.5694 14.6056C29.1249 14.6015 28.6842 14.6873 28.2738 14.858C27.8634 15.0287 27.4917 15.2806 27.1812 15.5987C26.7117 16.0681 26.3919 16.6662 26.2623 17.3173C26.1327 17.9685 26.1992 18.6435 26.4532 19.2569C26.7072 19.8703 27.1375 20.3946 27.6895 20.7635C28.2415 21.1323 28.8905 21.3292 29.5545 21.3292C30.2184 21.3292 30.8674 21.1323 31.4195 20.7635C31.9715 20.3946 32.4017 19.8703 32.6558 19.2569C32.9098 18.6435 32.9762 17.9685 32.8467 17.3173C32.7171 16.6662 32.3973 16.0681 31.9278 15.5987ZM31.0926 19.51C30.7878 19.8178 30.3984 20.028 29.9739 20.114C29.5493 20.2 29.1088 20.1579 28.7083 19.9931C28.3077 19.8283 27.9652 19.5482 27.7241 19.1883C27.483 18.8284 27.3543 18.4051 27.3543 17.9719C27.3543 17.5388 27.483 17.1154 27.7241 16.7556C27.9652 16.3957 28.3077 16.1156 28.7083 15.9508C29.1088 15.786 29.5493 15.7439 29.9739 15.8299C30.3984 15.9159 30.7878 16.1261 31.0926 16.4338C31.4993 16.8424 31.7276 17.3954 31.7276 17.9719C31.7276 18.5484 31.4993 19.1015 31.0926 19.51ZM31.9278 15.5987C31.3041 14.9684 30.456 14.6113 29.5694 14.6056C29.1249 14.6015 28.6842 14.6873 28.2738 14.858C27.8634 15.0287 27.4917 15.2806 27.1812 15.5987C26.7117 16.0681 26.3919 16.6662 26.2623 17.3173C26.1327 17.9685 26.1992 18.6435 26.4532 19.2569C26.7072 19.8703 27.1375 20.3946 27.6895 20.7635C28.2415 21.1323 28.8905 21.3292 29.5545 21.3292C30.2184 21.3292 30.8674 21.1323 31.4195 20.7635C31.9715 20.3946 32.4017 19.8703 32.6558 19.2569C32.9098 18.6435 32.9762 17.9685 32.8467 17.3173C32.7171 16.6662 32.3973 16.0681 31.9278 15.5987ZM31.0926 19.51C30.7878 19.8178 30.3984 20.028 29.9739 20.114C29.5493 20.2 29.1088 20.1579 28.7083 19.9931C28.3077 19.8283 27.9652 19.5482 27.7241 19.1883C27.483 18.8284 27.3543 18.4051 27.3543 17.9719C27.3543 17.5388 27.483 17.1154 27.7241 16.7556C27.9652 16.3957 28.3077 16.1156 28.7083 15.9508C29.1088 15.786 29.5493 15.7439 29.9739 15.8299C30.3984 15.9159 30.7878 16.1261 31.0926 16.4338C31.4993 16.8424 31.7276 17.3954 31.7276 17.9719C31.7276 18.5484 31.4993 19.1015 31.0926 19.51ZM31.9278 15.5987C31.3041 14.9684 30.456 14.6113 29.5694 14.6056C29.1249 14.6015 28.6842 14.6873 28.2738 14.858C27.8634 15.0287 27.4917 15.2806 27.1812 15.5987C26.7117 16.0681 26.3919 16.6662 26.2623 17.3173C26.1327 17.9685 26.1992 18.6435 26.4532 19.2569C26.7072 19.8703 27.1375 20.3946 27.6895 20.7635C28.2415 21.1323 28.8905 21.3292 29.5545 21.3292C30.2184 21.3292 30.8674 21.1323 31.4195 20.7635C31.9715 20.3946 32.4017 19.8703 32.6558 19.2569C32.9098 18.6435 32.9762 17.9685 32.8467 17.3173C32.7171 16.6662 32.3973 16.0681 31.9278 15.5987ZM31.0926 19.51C30.7878 19.8178 30.3984 20.028 29.9739 20.114C29.5493 20.2 29.1088 20.1579 28.7083 19.9931C28.3077 19.8283 27.9652 19.5482 27.7241 19.1883C27.483 18.8284 27.3543 18.4051 27.3543 17.9719C27.3543 17.5388 27.483 17.1154 27.7241 16.7556C27.9652 16.3957 28.3077 16.1156 28.7083 15.9508C29.1088 15.786 29.5493 15.7439 29.9739 15.8299C30.3984 15.9159 30.7878 16.1261 31.0926 16.4338C31.4993 16.8424 31.7276 17.3954 31.7276 17.9719C31.7276 18.5484 31.4993 19.1015 31.0926 19.51ZM31.9278 15.5987C31.3041 14.9684 30.456 14.6113 29.5694 14.6056C29.1249 14.6015 28.6842 14.6873 28.2738 14.858C27.8634 15.0287 27.4917 15.2806 27.1812 15.5987C26.7117 16.0681 26.3919 16.6662 26.2623 17.3173C26.1327 17.9685 26.1992 18.6435 26.4532 19.2569C26.7072 19.8703 27.1375 20.3946 27.6895 20.7635C28.2415 21.1323 28.8905 21.3292 29.5545 21.3292C30.2184 21.3292 30.8674 21.1323 31.4195 20.7635C31.9715 20.3946 32.4017 19.8703 32.6558 19.2569C32.9098 18.6435 32.9762 17.9685 32.8467 17.3173C32.7171 16.6662 32.3973 16.0681 31.9278 15.5987ZM31.0926 19.51C30.7878 19.8178 30.3984 20.028 29.9739 20.114C29.5493 20.2 29.1088 20.1579 28.7083 19.9931C28.3077 19.8283 27.9652 19.5482 27.7241 19.1883C27.483 18.8284 27.3543 18.4051 27.3543 17.9719C27.3543 17.5388 27.483 17.1154 27.7241 16.7556C27.9652 16.3957 28.3077 16.1156 28.7083 15.9508C29.1088 15.786 29.5493 15.7439 29.9739 15.8299C30.3984 15.9159 30.7878 16.1261 31.0926 16.4338C31.4993 16.8424 31.7276 17.3954 31.7276 17.9719C31.7276 18.5484 31.4993 19.1015 31.0926 19.51ZM31.9278 15.5987C31.3041 14.9684 30.456 14.6113 29.5694 14.6056C29.1249 14.6015 28.6842 14.6873 28.2738 14.858C27.8634 15.0287 27.4917 15.2806 27.1812 15.5987C26.7117 16.0681 26.3919 16.6662 26.2623 17.3173C26.1327 17.9685 26.1992 18.6435 26.4532 19.2569C26.7072 19.8703 27.1375 20.3946 27.6895 20.7635C28.2415 21.1323 28.8905 21.3292 29.5545 21.3292C30.2184 21.3292 30.8674 21.1323 31.4195 20.7635C31.9715 20.3946 32.4017 19.8703 32.6558 19.2569C32.9098 18.6435 32.9762 17.9685 32.8467 17.3173C32.7171 16.6662 32.3973 16.0681 31.9278 15.5987ZM31.0926 19.51C30.7878 19.8178 30.3984 20.028 29.9739 20.114C29.5493 20.2 29.1088 20.1579 28.7083 19.9931C28.3077 19.8283 27.9652 19.5482 27.7241 19.1883C27.483 18.8284 27.3543 18.4051 27.3543 17.9719C27.3543 17.5388 27.483 17.1154 27.7241 16.7556C27.9652 16.3957 28.3077 16.1156 28.7083 15.9508C29.1088 15.786 29.5493 15.7439 29.9739 15.8299C30.3984 15.9159 30.7878 16.1261 31.0926 16.4338C31.4993 16.8424 31.7276 17.3954 31.7276 17.9719C31.7276 18.5484 31.4993 19.1015 31.0926 19.51ZM31.9278 15.5987C31.3041 14.9684 30.456 14.6113 29.5694 14.6056C29.1249 14.6015 28.6842 14.6873 28.2738 14.858C27.8634 15.0287 27.4917 15.2806 27.1812 15.5987C26.7117 16.0681 26.3919 16.6662 26.2623 17.3173C26.1327 17.9685 26.1992 18.6435 26.4532 19.2569C26.7072 19.8703 27.1375 20.3946 27.6895 20.7635C28.2415 21.1323 28.8905 21.3292 29.5545 21.3292C30.2184 21.3292 30.8674 21.1323 31.4195 20.7635C31.9715 20.3946 32.4017 19.8703 32.6558 19.2569C32.9098 18.6435 32.9762 17.9685 32.8467 17.3173C32.7171 16.6662 32.3973 16.0681 31.9278 15.5987ZM31.0926 19.51C30.7878 19.8178 30.3984 20.028 29.9739 20.114C29.5493 20.2 29.1088 20.1579 28.7083 19.9931C28.3077 19.8283 27.9652 19.5482 27.7241 19.1883C27.483 18.8284 27.3543 18.4051 27.3543 17.9719C27.3543 17.5388 27.483 17.1154 27.7241 16.7556C27.9652 16.3957 28.3077 16.1156 28.7083 15.9508C29.1088 15.786 29.5493 15.7439 29.9739 15.8299C30.3984 15.9159 30.7878 16.1261 31.0926 16.4338C31.4993 16.8424 31.7276 17.3954 31.7276 17.9719C31.7276 18.5484 31.4993 19.1015 31.0926 19.51ZM31.9278 15.5987C31.3041 14.9684 30.456 14.6113 29.5694 14.6056C29.1249 14.6015 28.6842 14.6873 28.2738 14.858C27.8634 15.0287 27.4917 15.2806 27.1812 15.5987C26.7117 16.0681 26.3919 16.6662 26.2623 17.3173C26.1327 17.9685 26.1992 18.6435 26.4532 19.2569C26.7072 19.8703 27.1375 20.3946 27.6895 20.7635C28.2415 21.1323 28.8905 21.3292 29.5545 21.3292C30.2184 21.3292 30.8674 21.1323 31.4195 20.7635C31.9715 20.3946 32.4017 19.8703 32.6558 19.2569C32.9098 18.6435 32.9762 17.9685 32.8467 17.3173C32.7171 16.6662 32.3973 16.0681 31.9278 15.5987ZM31.0926 19.51C30.7878 19.8178 30.3984 20.028 29.9739 20.114C29.5493 20.2 29.1088 20.1579 28.7083 19.9931C28.3077 19.8283 27.9652 19.5482 27.7241 19.1883C27.483 18.8284 27.3543 18.4051 27.3543 17.9719C27.3543 17.5388 27.483 17.1154 27.7241 16.7556C27.9652 16.3957 28.3077 16.1156 28.7083 15.9508C29.1088 15.786 29.5493 15.7439 29.9739 15.8299C30.3984 15.9159 30.7878 16.1261 31.0926 16.4338C31.4993 16.8424 31.7276 17.3954 31.7276 17.9719C31.7276 18.5484 31.4993 19.1015 31.0926 19.51ZM31.9278 15.5987C31.3041 14.9684 30.456 14.6113 29.5694 14.6056C29.1249 14.6015 28.6842 14.6873 28.2738 14.858C27.8634 15.0287 27.4917 15.2806 27.1812 15.5987C26.7117 16.0681 26.3919 16.6662 26.2623 17.3173C26.1327 17.9685 26.1992 18.6435 26.4532 19.2569C26.7072 19.8703 27.1375 20.3946 27.6895 20.7635C28.2415 21.1323 28.8905 21.3292 29.5545 21.3292C30.2184 21.3292 30.8674 21.1323 31.4195 20.7635C31.9715 20.3946 32.4017 19.8703 32.6558 19.2569C32.9098 18.6435 32.9762 17.9685 32.8467 17.3173C32.7171 16.6662 32.3973 16.0681 31.9278 15.5987ZM31.0926 19.51C30.7878 19.8178 30.3984 20.028 29.9739 20.114C29.5493 20.2 29.1088 20.1579 28.7083 19.9931C28.3077 19.8283 27.9652 19.5482 27.7241 19.1883C27.483 18.8284 27.3543 18.4051 27.3543 17.9719C27.3543 17.5388 27.483 17.1154 27.7241 16.7556C27.9652 16.3957 28.3077 16.1156 28.7083 15.9508C29.1088 15.786 29.5493 15.7439 29.9739 15.8299C30.3984 15.9159 30.7878 16.1261 31.0926 16.4338C31.4993 16.8424 31.7276 17.3954 31.7276 17.9719C31.7276 18.5484 31.4993 19.1015 31.0926 19.51Z" fill="#231F20"/>
<path d="M37.6707 9.99119C37.5303 9.84985 37.3588 9.74349 37.1698 9.68068C36.9808 9.61787 36.7797 9.60037 36.5827 9.6296L35.1107 9.89413C30.9583 10.6902 27.016 12.3386 23.5329 14.7354C20.0498 17.1322 17.1016 20.2252 14.8744 23.8191C14.8542 23.851 14.836 23.8842 14.82 23.9183C14.7869 23.9762 14.7591 24.0369 14.7368 24.0997C14.6418 24.3855 14.6578 24.7589 14.7794 25.1983C15.0013 26.0228 15.5805 27.0745 16.4338 28.1689C16.2023 27.8133 16.0227 27.4265 15.9005 27.0201C15.8266 26.8016 15.8177 26.5663 15.8749 26.3428C15.8886 26.3039 15.9054 26.2661 15.925 26.2298C15.929 26.2221 15.9345 26.2152 15.941 26.2095C15.9568 26.1841 15.9758 26.1608 15.9975 26.1402C16.1821 25.9567 16.5021 25.9343 16.9063 26.0495C17.6668 26.2628 18.726 26.9572 19.7255 27.9588C20.7249 28.9604 21.414 30.0089 21.6294 30.7694C21.7489 31.1779 21.7265 31.5011 21.5452 31.6856L21.5313 31.6974C21.514 31.7137 21.4954 31.7287 21.4758 31.7422C21.405 31.7889 21.325 31.8198 21.2412 31.8328C21.0353 31.8594 20.826 31.8393 20.6289 31.7742C20.2328 31.6471 19.8554 31.4678 19.5068 31.2409C20.582 32.0803 21.6134 32.6563 22.4347 32.8888C22.754 32.9932 23.0924 33.0256 23.4256 32.9837C23.5599 32.9498 23.6878 32.8944 23.8043 32.8195L23.895 32.7651C27.4532 30.5905 30.5186 27.6974 32.8952 24.2707C35.2718 20.8441 36.9074 16.9594 37.6973 12.8647L38.0248 11.1037V11.0813C38.0545 10.8846 38.038 10.6836 37.9766 10.4944C37.9151 10.3052 37.8104 10.1329 37.6707 9.99119ZM36.5422 12.6439C35.0755 20.2736 30.0719 27.3348 23.575 31.596C23.2251 30.3662 21.9526 28.5241 20.3409 26.9124C18.7292 25.3007 17.3543 24.4591 16.1213 24.1135C20.4668 17.575 27.6058 12.5287 35.3368 11.0568L36.7565 10.7976C36.7711 10.7971 36.7856 10.7995 36.7992 10.8049C36.8128 10.8102 36.8251 10.8182 36.8355 10.8285C36.8449 10.8389 36.8522 10.851 36.857 10.8641C36.8617 10.8773 36.8639 10.8913 36.8632 10.9053L36.5422 12.6439Z" fill="#231F20"/>
<path d="M32.8036 27.7498C32.7817 27.5825 32.7094 27.4259 32.5961 27.3009C32.4829 27.1758 32.3343 27.0883 32.17 27.05C32.0127 27.0154 31.8487 27.0278 31.6984 27.0859C31.5482 27.1439 31.4183 27.245 31.3252 27.3764C30.0234 28.9171 28.5717 30.3245 26.9915 31.5779L26.9776 31.5907C26.8041 31.6648 26.6654 31.8023 26.5899 31.9752C26.5143 32.148 26.5077 32.3432 26.5712 32.5208L28.1061 36.3426C28.1676 36.5414 28.2839 36.7189 28.4416 36.8548C28.5993 36.9906 28.7921 37.0793 28.9978 37.1106C29.0573 37.1209 29.1177 37.1259 29.1781 37.1255C29.3665 37.1255 29.552 37.0788 29.7178 36.9894C29.8837 36.9 30.0248 36.7709 30.1284 36.6136L31.0095 35.34C32.5419 33.1261 33.1826 30.4155 32.8036 27.7498ZM30.0367 34.668L29.1962 35.884L27.8096 32.4355C29.2126 31.3133 30.5185 30.0748 31.7135 28.7332C31.8276 30.8426 31.2378 32.9302 30.0367 34.668Z" fill="#231F20"/>
<path d="M20.614 15.5922C20.5751 15.4281 20.4871 15.2799 20.3617 15.1672C20.2362 15.0546 20.0794 14.9829 19.9122 14.9618C17.2461 14.5831 14.5353 15.2238 12.3209 16.7559L11.0889 17.6092C10.8983 17.7003 10.7391 17.846 10.6315 18.0277C10.5238 18.2095 10.4725 18.4191 10.4841 18.63C10.5002 18.8491 10.5825 19.0582 10.72 19.2296C10.8575 19.401 11.0438 19.5267 11.2542 19.59L15.044 21.1121L15.0771 21.1238C15.1494 21.1471 15.225 21.159 15.3011 21.159C15.5115 21.15 15.7147 21.0795 15.8856 20.9563L15.9336 20.9243L16.0402 20.8177L16.0925 20.759C17.2317 19.2657 18.6023 17.8471 20.2844 16.4359C20.4156 16.3427 20.5167 16.2132 20.5752 16.0633C20.6338 15.9134 20.6473 15.7496 20.614 15.5922ZM15.2467 19.9228L11.8153 18.5436L12.9886 17.7287C14.725 16.5271 16.8115 15.9365 18.9202 16.0498C17.572 17.2176 16.3416 18.5148 15.2467 19.9228Z" fill="#231F20"/>
<path fill-rule="evenodd" clip-rule="evenodd" d="M7.68727 42.7062C7.67767 42.7393 7.66914 42.7724 7.6606 42.8065C7.6015 43.0403 7.56929 43.2801 7.5646 43.5212C7.5629 44.0265 7.61655 44.5304 7.7246 45.024C7.75873 45.1968 7.85579 45.4102 7.85686 45.5862C7.85686 45.5862 7.83339 43.4838 11.396 41.9713C17.0844 39.5543 18.9745 35.7848 18.4454 33.0425C18.2396 33.4798 17.8673 33.8446 17.5281 34.299C17.2026 34.7375 16.8178 35.1288 16.3847 35.4616C16.0133 35.7466 15.609 35.9858 15.1804 36.1741C14.8285 36.3301 14.4614 36.4491 14.085 36.5293C13.7245 36.605 13.3159 36.684 12.9544 36.5762C12.9432 36.5745 12.9326 36.5704 12.9232 36.5641C12.9138 36.5578 12.9058 36.5496 12.9 36.54C12.8951 36.5251 12.8951 36.509 12.9 36.4941C12.9282 36.338 12.9838 36.1882 13.0642 36.0514C13.1055 35.9805 13.153 35.9134 13.2061 35.8509C13.2583 35.7912 13.3245 35.7443 13.3757 35.6845C13.3319 35.6963 13.2861 35.6931 13.2423 35.7016C13.1783 35.7144 13.1143 35.7293 13.0514 35.7453C12.8615 35.7933 12.6749 35.8531 12.4925 35.9245C12.0298 36.101 11.5997 36.3533 11.22 36.6712C10.6004 37.2007 10.023 37.7777 9.49309 38.397C9.49309 38.397 10.4136 33.3656 12.7368 31.2153C13.4144 30.5659 14.1933 30.0313 15.0428 29.6324C11.1453 29.018 6.93635 35.1736 5.18279 39.9095C2.90764 46.0566 0.0010376 48 0.0010376 48C0.62289 47.7077 1.18501 47.2619 1.73006 46.8491C2.48738 46.2752 3.22337 45.6758 3.95295 45.0624C4.58725 44.5291 5.21408 43.9876 5.83344 43.4379C6.01904 43.2726 6.20463 43.1062 6.3849 42.9356C6.6995 42.6242 7.08165 42.3895 7.50167 42.2497C7.63425 42.2068 7.7697 42.1733 7.907 42.1494C7.86753 42.1569 7.78967 42.4097 7.77367 42.4502C7.7406 42.5324 7.7118 42.6177 7.68727 42.7062Z" fill="#231F20"/>
<path class="logo-text" d="M67.1259 9.16888V11.1955H63.59V21.9686H61.03V11.1955H57.5101V9.16888H67.1259Z" fill="white"/>
<path class="logo-text" d="M77.897 17.4374H70.5372C70.5735 18.332 70.8152 18.9908 71.2625 19.4139C71.4852 19.6241 71.7472 19.7883 72.0335 19.8972C72.3197 20.0061 72.6246 20.0575 72.9307 20.0485C73.5224 20.0485 74.0148 19.9035 74.408 19.6133C74.7977 19.3285 75.0664 18.908 75.1611 18.4347H77.8629C77.7354 19.1232 77.4426 19.7703 77.0096 20.3205C76.5642 20.8851 75.9884 21.3331 75.3318 21.6261C74.5561 21.9613 73.716 22.1213 72.8715 22.0948C72.0269 22.0682 71.1985 21.8558 70.4455 21.4725C69.6913 21.0634 69.0735 20.4423 68.6684 19.6859C68.2418 18.9129 68.0284 18.0002 68.0284 16.9478C68.0284 15.8954 68.2418 14.9798 68.6684 14.2012C69.0705 13.4435 69.6886 12.8224 70.4444 12.4167C71.2493 11.9954 72.1472 11.7834 73.0555 11.8002C74.0461 11.8002 74.9133 12.0057 75.6571 12.4167C76.38 12.8079 76.9773 13.3959 77.3797 14.1127C77.9349 15.1273 78.1179 16.3042 77.897 17.4395V17.4374ZM74.7686 14.4433C74.3005 14.0191 73.6869 13.7918 73.0555 13.8087C72.4157 13.791 71.7931 14.018 71.3148 14.4433C70.8433 14.87 70.5834 15.4925 70.5351 16.311H75.4128C75.4491 15.4925 75.2343 14.87 74.7686 14.4433Z" fill="white"/>
<path class="logo-text" d="M85.9107 12.3965C86.5034 12.7807 86.9552 13.3471 87.1982 14.0103V11.925H89.7368V21.9707H87.1982V19.8672C86.9541 20.5323 86.5027 21.1014 85.9107 21.4907C85.307 21.8946 84.5817 22.0969 83.7348 22.0976C82.9306 22.1093 82.1392 21.8957 81.4501 21.4811C80.7582 21.0537 80.2068 20.4329 79.864 19.6955C79.4828 18.9133 79.2922 17.9974 79.2922 16.9478C79.2922 15.8983 79.4828 14.9827 79.864 14.2012C80.2076 13.4647 80.7589 12.8444 81.4501 12.4167C82.1394 12.0026 82.9307 11.7891 83.7348 11.8002C84.5817 11.7988 85.307 11.9976 85.9107 12.3965ZM82.6106 14.8082C82.127 15.3287 81.8852 16.0419 81.8852 16.9478C81.8852 17.8538 82.127 18.5649 82.6106 19.0811C83.0948 19.5938 83.7348 19.8505 84.5305 19.8512C84.887 19.8622 85.2418 19.7976 85.5716 19.6617C85.9014 19.5259 86.1987 19.3218 86.4441 19.063C86.9418 18.5375 87.1925 17.8332 87.1961 16.95C87.1961 16.0561 86.9454 15.345 86.4441 14.8167C86.1987 14.5577 85.9014 14.3535 85.5717 14.2175C85.2419 14.0815 84.8871 14.0167 84.5305 14.0274C83.7341 14.0281 83.0941 14.2883 82.6106 14.8082Z" fill="white"/>
<path class="logo-text" d="M107.734 12.9137C108.441 13.6689 108.795 14.7416 108.795 16.1318V21.9706H106.256V16.4241C106.256 15.6511 106.06 15.0559 105.667 14.6385C105.275 14.2211 104.733 14.0124 104.044 14.0124C103.333 14.0124 102.764 14.236 102.337 14.6833C101.91 15.1306 101.699 15.7834 101.702 16.6416V21.9749H99.1638V16.4283C99.1638 15.6554 98.9676 15.0602 98.575 14.6428C98.1825 14.2253 97.6414 14.0166 96.9516 14.0166C96.2405 14.0166 95.6716 14.2403 95.245 14.6876C94.8183 15.1348 94.605 15.7876 94.605 16.6459V21.9791H92.045V11.925H94.605V13.8289C94.8499 13.201 95.2924 12.6697 95.8658 12.3153C96.4695 11.9513 97.1641 11.7664 97.8689 11.782C98.6149 11.7645 99.3495 11.9663 99.9819 12.3623C100.596 12.7636 101.071 13.3457 101.341 14.0284C101.642 13.353 102.133 12.7801 102.755 12.3801C103.377 11.9802 104.102 11.7704 104.842 11.7767C106.063 11.7767 107.027 12.1557 107.734 12.9137Z" fill="white"/>
<path class="logo-text" d="M66.7272 38.4087C66.3787 38.9783 65.8756 39.4373 65.2766 39.7324C64.6366 40.0652 63.8569 40.2312 62.9374 40.2305C62.1044 40.245 61.2773 40.0878 60.5076 39.7687C59.827 39.4861 59.2349 39.0255 58.7935 38.4353C58.3604 37.8437 58.1058 37.1405 58.0597 36.4087H60.7796C60.8265 36.9018 61.0482 37.3618 61.4047 37.7058C61.7602 38.0506 62.2349 38.2227 62.8286 38.222C63.3598 38.222 63.7676 38.0798 64.0521 37.7954C64.1939 37.6509 64.3048 37.4791 64.3782 37.2904C64.4515 37.1017 64.4857 36.9001 64.4787 36.6978C64.492 36.337 64.369 35.9844 64.1342 35.7101C63.8921 35.4417 63.5953 35.2282 63.2638 35.084C62.9133 34.9275 62.4297 34.7462 61.8132 34.54C61.142 34.3255 60.4874 34.0621 59.8548 33.7517C59.3375 33.4836 58.8926 33.0947 58.5578 32.6179C58.2022 32.1201 58.0245 31.4734 58.0245 30.6776C58.0245 29.5776 58.4202 28.7104 59.2116 28.0761C60.0031 27.4418 61.052 27.1243 62.3582 27.1236C63.7093 27.1236 64.7881 27.45 65.5944 28.1028C66.4008 28.7556 66.8573 29.6259 66.964 30.7139H64.2078C64.1488 30.2813 63.9441 29.8818 63.6276 29.5811C63.3125 29.2846 62.8834 29.1364 62.3401 29.1364C61.8687 29.1364 61.4879 29.2604 61.1977 29.5086C60.9076 29.7568 60.7625 30.1162 60.7625 30.587C60.7505 30.9298 60.8704 31.2642 61.0975 31.5214C61.337 31.7803 61.6276 31.9869 61.9508 32.1283C62.4094 32.3292 62.8787 32.5047 63.3566 32.6541C64.0395 32.8874 64.7083 33.1598 65.3598 33.4701C65.8867 33.735 66.3389 34.1278 66.6749 34.6125C67.0376 35.1202 67.2189 35.7851 67.2189 36.6071C67.2225 37.2413 67.0525 37.8643 66.7272 38.4087Z" fill="white"/>
<path class="logo-text" d="M77.3883 30.5497C78.0804 30.9776 78.6321 31.5986 78.9755 32.3363C79.3566 33.1185 79.5468 34.034 79.5461 35.0829C79.5454 36.1317 79.3552 37.0476 78.9755 37.8306C78.6324 38.5681 78.0806 39.1889 77.3883 39.6161C76.6993 40.031 75.9078 40.2446 75.1036 40.2326C74.2581 40.2326 73.5359 40.0303 72.9372 39.6257C72.3489 39.2343 71.9006 38.6657 71.6572 38.0023V44.8928H69.0973V30.0579H71.6572V32.1432C71.8995 31.4817 72.3483 30.9159 72.9372 30.5294C73.5352 30.1305 74.2574 29.931 75.1036 29.931C75.9079 29.9202 76.6993 30.1345 77.3883 30.5497ZM72.3932 32.9528C71.8955 33.479 71.6444 34.1901 71.6402 35.0861C71.6402 35.9693 71.8912 36.6736 72.3932 37.1991C72.6384 37.4579 72.9355 37.6619 73.2652 37.7978C73.5948 37.9336 73.9494 37.9982 74.3057 37.9873C75.1036 37.9873 75.7435 37.7306 76.2257 37.2172C76.7078 36.7038 76.9496 35.9927 76.951 35.084C76.951 34.1773 76.7092 33.4641 76.2257 32.9443C75.7421 32.4244 75.1021 32.1645 74.3057 32.1645C73.9495 32.1534 73.595 32.2177 73.2655 32.3532C72.9359 32.4887 72.6386 32.6923 72.3932 32.9507V32.9528Z" fill="white"/>
<path class="logo-text" d="M87.4745 30.5294C88.0672 30.9136 88.519 31.48 88.7619 32.1432V30.0579H91.3005V40.1035H88.7545V38.0001C88.5103 38.6652 88.059 39.2343 87.467 39.6235C86.8633 40.0274 86.138 40.2298 85.2911 40.2305C84.4869 40.2421 83.6955 40.0286 83.0063 39.6139C82.3145 39.1866 81.763 38.5658 81.4202 37.8284C81.0391 37.0462 80.8485 36.1303 80.8485 35.0807C80.8485 34.0311 81.0391 33.1156 81.4202 32.3341C81.7635 31.5967 82.3148 30.9758 83.0063 30.5475C83.6957 30.1333 84.487 29.9198 85.2911 29.931C86.1394 29.931 86.8672 30.1304 87.4745 30.5294ZM84.1679 32.941C83.6844 33.4616 83.4426 34.1748 83.4426 35.0807C83.4426 35.9866 83.6844 36.6977 84.1679 37.214C84.6514 37.7267 85.2914 37.9834 86.0879 37.9841C86.4444 37.995 86.7991 37.9304 87.1289 37.7946C87.4587 37.6588 87.756 37.4547 88.0014 37.1959C88.5027 36.6704 88.7516 35.966 88.7481 35.0828C88.7481 34.189 88.4992 33.4779 88.0014 32.9496C87.7561 32.6906 87.4588 32.4864 87.129 32.3504C86.7992 32.2143 86.4444 32.1495 86.0879 32.1602C85.2929 32.161 84.6529 32.4212 84.1679 32.941Z" fill="white"/>
<path class="logo-text" d="M101.37 30.9827C102.234 31.6846 102.774 32.6396 102.992 33.8477H100.29C100.202 33.3514 99.9366 32.9038 99.5436 32.588C99.156 32.2801 98.6664 32.1258 98.0748 32.1251C97.7544 32.1188 97.4365 32.183 97.1436 32.3131C96.8507 32.4432 96.59 32.6361 96.3799 32.8781C95.9269 33.3795 95.7001 34.1137 95.6994 35.0808C95.6987 36.0478 95.9255 36.7824 96.3799 37.2844C96.5907 37.5252 96.8517 37.7168 97.1445 37.8458C97.4374 37.9748 97.7549 38.038 98.0748 38.0311C98.6671 38.0311 99.1567 37.8771 99.5436 37.5692C99.9368 37.2532 100.202 36.8052 100.29 36.3085H102.992C102.774 37.5173 102.234 38.4723 101.37 39.1735C100.506 39.8746 99.4266 40.2252 98.1324 40.2252C97.223 40.2423 96.3243 40.0272 95.5213 39.6001C94.7673 39.1907 94.1496 38.5697 93.7442 37.8135C93.3176 37.0405 93.1042 36.1278 93.1042 35.0754C93.1042 34.023 93.3176 33.1075 93.7442 32.3288C94.1465 31.5704 94.765 30.9485 95.5213 30.5422C96.3261 30.1209 97.2241 29.9089 98.1324 29.9257C99.4259 29.9292 100.505 30.2816 101.37 30.9827Z" fill="white"/>
<path class="logo-text" d="M114.162 35.5703H106.802C106.838 36.4656 107.08 37.1244 107.527 37.5468C107.75 37.7579 108.011 37.9231 108.298 38.033C108.584 38.1428 108.889 38.195 109.196 38.1868C109.788 38.1868 110.281 38.0417 110.674 37.7516C111.06 37.4671 111.326 37.0487 111.421 36.5783H114.122C113.995 37.2668 113.702 37.9139 113.269 38.4641C112.824 39.0286 112.249 39.4766 111.592 39.7697C110.816 40.1048 109.976 40.2648 109.132 40.2383C108.287 40.2117 107.458 39.9993 106.705 39.6161C105.951 39.2067 105.333 38.5856 104.928 37.8295C104.501 37.0565 104.288 36.1438 104.288 35.0914C104.288 34.039 104.501 33.1234 104.928 32.3448C105.33 31.5864 105.949 30.9645 106.705 30.5582C107.51 30.1369 108.408 29.9248 109.316 29.9417C110.307 29.9417 111.174 30.1472 111.919 30.5582C112.642 30.9493 113.239 31.5374 113.641 32.2541C114.054 33.0052 114.263 33.8508 114.248 34.7074C114.246 34.9971 114.217 35.2859 114.162 35.5703ZM111.034 32.5837C110.567 32.1579 109.953 31.9287 109.32 31.9437C108.68 31.9275 108.057 32.1564 107.58 32.5837C107.108 33.0104 106.848 33.6329 106.8 34.4514H111.678C111.714 33.628 111.5 33.0029 111.034 32.5763V32.5837Z" fill="white"/>
</svg>
