<svg width="163" height="68" viewBox="0 0 163 68" fill="none" xmlns="http://www.w3.org/2000/svg">
<path d="M33.7745 0H34.4635C43.3891 0 51.9491 3.54568 58.2605 9.85702C64.5718 16.1684 68.1175 24.7284 68.1175 33.654V34.343C68.1175 43.2686 64.5718 51.8286 58.2605 58.1399C51.9491 64.4513 43.3891 67.997 34.4635 67.997H0.120544V33.654C0.120544 24.7284 3.66622 16.1684 9.97756 9.85702C16.2889 3.54568 24.8489 0 33.7745 0Z" fill="url(#paint0_linear)" fill-opacity="0.65"/>
<path d="M45.3506 22.0975C44.4671 21.2047 43.2656 20.6988 42.0096 20.6907C41.38 20.6849 40.7556 20.8065 40.1742 21.0483C39.5928 21.29 39.0663 21.6469 38.6264 22.0975C37.9613 22.7625 37.5083 23.6098 37.3247 24.5323C37.1411 25.4547 37.2352 26.4109 37.5951 27.2799C37.955 28.1488 38.5645 28.8916 39.3465 29.4141C40.1285 29.9367 41.0479 30.2156 41.9885 30.2156C42.929 30.2156 43.8485 29.9367 44.6305 29.4141C45.4125 28.8916 46.022 28.1488 46.3819 27.2799C46.7418 26.4109 46.8359 25.4547 46.6523 24.5323C46.4687 23.6098 46.0157 22.7625 45.3506 22.0975ZM44.1659 27.6385C43.7341 28.0744 43.1824 28.3722 42.5811 28.4941C41.9797 28.6159 41.3557 28.5563 40.7882 28.3228C40.2208 28.0893 39.7355 27.6925 39.394 27.1827C39.0525 26.6729 38.8702 26.0732 38.8702 25.4596C38.8702 24.846 39.0525 24.2462 39.394 23.7364C39.7355 23.2266 40.2208 22.8298 40.7882 22.5963C41.3557 22.3629 41.9797 22.3033 42.5811 22.4251C43.1824 22.5469 43.7341 22.8447 44.1659 23.2807C44.7421 23.8595 45.0655 24.6429 45.0655 25.4596C45.0655 26.2763 44.7421 27.0597 44.1659 27.6385ZM45.349 22.0975C44.4656 21.2047 43.2641 20.6988 42.0081 20.6907C41.3785 20.6849 40.7541 20.8065 40.1727 21.0483C39.5913 21.29 39.0648 21.6469 38.6249 22.0975C37.9598 22.7625 37.5067 23.6098 37.3232 24.5323C37.1396 25.4547 37.2337 26.4109 37.5936 27.2799C37.9535 28.1488 38.563 28.8916 39.345 29.4141C40.127 29.9367 41.0464 30.2156 41.987 30.2156C42.9275 30.2156 43.8469 29.9367 44.629 29.4141C45.411 28.8916 46.0205 28.1488 46.3804 27.2799C46.7402 26.4109 46.8343 25.4547 46.6508 24.5323C46.4672 23.6098 46.0142 22.7625 45.349 22.0975ZM44.1659 27.6385C43.7341 28.0744 43.1824 28.3722 42.5811 28.4941C41.9797 28.6159 41.3557 28.5563 40.7882 28.3228C40.2208 28.0893 39.7355 27.6925 39.394 27.1827C39.0525 26.6729 38.8702 26.0732 38.8702 25.4596C38.8702 24.846 39.0525 24.2462 39.394 23.7364C39.7355 23.2266 40.2208 22.8298 40.7882 22.5963C41.3557 22.3629 41.9797 22.3033 42.5811 22.4251C43.1824 22.5469 43.7341 22.8447 44.1659 23.2807C44.7421 23.8595 45.0655 24.6429 45.0655 25.4596C45.0655 26.2763 44.7421 27.0597 44.1659 27.6385ZM45.349 22.0975C44.4656 21.2047 43.2641 20.6988 42.0081 20.6907C41.3785 20.6849 40.7541 20.8065 40.1727 21.0483C39.5913 21.29 39.0648 21.6469 38.6249 22.0975C37.9598 22.7625 37.5067 23.6098 37.3232 24.5323C37.1396 25.4547 37.2337 26.4109 37.5936 27.2799C37.9535 28.1488 38.563 28.8916 39.345 29.4141C40.127 29.9367 41.0464 30.2156 41.987 30.2156C42.9275 30.2156 43.8469 29.9367 44.629 29.4141C45.411 28.8916 46.0205 28.1488 46.3804 27.2799C46.7402 26.4109 46.8343 25.4547 46.6508 24.5323C46.4672 23.6098 46.0142 22.7625 45.349 22.0975ZM44.1659 27.6385C43.7341 28.0744 43.1824 28.3722 42.5811 28.4941C41.9797 28.6159 41.3557 28.5563 40.7882 28.3228C40.2208 28.0893 39.7355 27.6925 39.394 27.1827C39.0525 26.6729 38.8702 26.0732 38.8702 25.4596C38.8702 24.846 39.0525 24.2462 39.394 23.7364C39.7355 23.2266 40.2208 22.8298 40.7882 22.5963C41.3557 22.3629 41.9797 22.3033 42.5811 22.4251C43.1824 22.5469 43.7341 22.8447 44.1659 23.2807C44.7421 23.8595 45.0655 24.6429 45.0655 25.4596C45.0655 26.2763 44.7421 27.0597 44.1659 27.6385ZM45.349 22.0975C44.4656 21.2047 43.2641 20.6988 42.0081 20.6907C41.3785 20.6849 40.7541 20.8065 40.1727 21.0483C39.5913 21.29 39.0648 21.6469 38.6249 22.0975C37.9598 22.7625 37.5067 23.6098 37.3232 24.5323C37.1396 25.4547 37.2337 26.4109 37.5936 27.2799C37.9535 28.1488 38.563 28.8916 39.345 29.4141C40.127 29.9367 41.0464 30.2156 41.987 30.2156C42.9275 30.2156 43.8469 29.9367 44.629 29.4141C45.411 28.8916 46.0205 28.1488 46.3804 27.2799C46.7402 26.4109 46.8343 25.4547 46.6508 24.5323C46.4672 23.6098 46.0142 22.7625 45.349 22.0975ZM44.1659 27.6385C43.7341 28.0744 43.1824 28.3722 42.5811 28.4941C41.9797 28.6159 41.3557 28.5563 40.7882 28.3228C40.2208 28.0893 39.7355 27.6925 39.394 27.1827C39.0525 26.6729 38.8702 26.0732 38.8702 25.4596C38.8702 24.846 39.0525 24.2462 39.394 23.7364C39.7355 23.2266 40.2208 22.8298 40.7882 22.5963C41.3557 22.3629 41.9797 22.3033 42.5811 22.4251C43.1824 22.5469 43.7341 22.8447 44.1659 23.2807C44.7421 23.8595 45.0655 24.6429 45.0655 25.4596C45.0655 26.2763 44.7421 27.0597 44.1659 27.6385ZM45.349 22.0975C44.4656 21.2047 43.2641 20.6988 42.0081 20.6907C41.3785 20.6849 40.7541 20.8065 40.1727 21.0483C39.5913 21.29 39.0648 21.6469 38.6249 22.0975C37.9598 22.7625 37.5067 23.6098 37.3232 24.5323C37.1396 25.4547 37.2337 26.4109 37.5936 27.2799C37.9535 28.1488 38.563 28.8916 39.345 29.4141C40.127 29.9367 41.0464 30.2156 41.987 30.2156C42.9275 30.2156 43.8469 29.9367 44.629 29.4141C45.411 28.8916 46.0205 28.1488 46.3804 27.2799C46.7402 26.4109 46.8343 25.4547 46.6508 24.5323C46.4672 23.6098 46.0142 22.7625 45.349 22.0975ZM44.1659 27.6385C43.7341 28.0744 43.1824 28.3722 42.5811 28.4941C41.9797 28.6159 41.3557 28.5563 40.7882 28.3228C40.2208 28.0893 39.7355 27.6925 39.394 27.1827C39.0525 26.6729 38.8702 26.0732 38.8702 25.4596C38.8702 24.846 39.0525 24.2462 39.394 23.7364C39.7355 23.2266 40.2208 22.8298 40.7882 22.5963C41.3557 22.3629 41.9797 22.3033 42.5811 22.4251C43.1824 22.5469 43.7341 22.8447 44.1659 23.2807C44.7421 23.8595 45.0655 24.6429 45.0655 25.4596C45.0655 26.2763 44.7421 27.0597 44.1659 27.6385ZM45.349 22.0975C44.4656 21.2047 43.2641 20.6988 42.0081 20.6907C41.3785 20.6849 40.7541 20.8065 40.1727 21.0483C39.5913 21.29 39.0648 21.6469 38.6249 22.0975C37.9598 22.7625 37.5067 23.6098 37.3232 24.5323C37.1396 25.4547 37.2337 26.4109 37.5936 27.2799C37.9535 28.1488 38.563 28.8916 39.345 29.4141C40.127 29.9367 41.0464 30.2156 41.987 30.2156C42.9275 30.2156 43.8469 29.9367 44.629 29.4141C45.411 28.8916 46.0205 28.1488 46.3804 27.2799C46.7402 26.4109 46.8343 25.4547 46.6508 24.5323C46.4672 23.6098 46.0142 22.7625 45.349 22.0975ZM44.1659 27.6385C43.7341 28.0744 43.1824 28.3722 42.5811 28.4941C41.9797 28.6159 41.3557 28.5563 40.7882 28.3228C40.2208 28.0893 39.7355 27.6925 39.394 27.1827C39.0525 26.6729 38.8702 26.0732 38.8702 25.4596C38.8702 24.846 39.0525 24.2462 39.394 23.7364C39.7355 23.2266 40.2208 22.8298 40.7882 22.5963C41.3557 22.3629 41.9797 22.3033 42.5811 22.4251C43.1824 22.5469 43.7341 22.8447 44.1659 23.2807C44.7421 23.8595 45.0655 24.6429 45.0655 25.4596C45.0655 26.2763 44.7421 27.0597 44.1659 27.6385ZM45.349 22.0975C44.4656 21.2047 43.2641 20.6988 42.0081 20.6907C41.3785 20.6849 40.7541 20.8065 40.1727 21.0483C39.5913 21.29 39.0648 21.6469 38.6249 22.0975C37.9598 22.7625 37.5067 23.6098 37.3232 24.5323C37.1396 25.4547 37.2337 26.4109 37.5936 27.2799C37.9535 28.1488 38.563 28.8916 39.345 29.4141C40.127 29.9367 41.0464 30.2156 41.987 30.2156C42.9275 30.2156 43.8469 29.9367 44.629 29.4141C45.411 28.8916 46.0205 28.1488 46.3804 27.2799C46.7402 26.4109 46.8343 25.4547 46.6508 24.5323C46.4672 23.6098 46.0142 22.7625 45.349 22.0975ZM44.1659 27.6385C43.7341 28.0744 43.1824 28.3722 42.5811 28.4941C41.9797 28.6159 41.3557 28.5563 40.7882 28.3228C40.2208 28.0893 39.7355 27.6925 39.394 27.1827C39.0525 26.6729 38.8702 26.0732 38.8702 25.4596C38.8702 24.846 39.0525 24.2462 39.394 23.7364C39.7355 23.2266 40.2208 22.8298 40.7882 22.5963C41.3557 22.3629 41.9797 22.3033 42.5811 22.4251C43.1824 22.5469 43.7341 22.8447 44.1659 23.2807C44.7421 23.8595 45.0655 24.6429 45.0655 25.4596C45.0655 26.2763 44.7421 27.0597 44.1659 27.6385ZM45.349 22.0975C44.4656 21.2047 43.2641 20.6988 42.0081 20.6907C41.3785 20.6849 40.7541 20.8065 40.1727 21.0483C39.5913 21.29 39.0648 21.6469 38.6249 22.0975C37.9598 22.7625 37.5067 23.6098 37.3232 24.5323C37.1396 25.4547 37.2337 26.4109 37.5936 27.2799C37.9535 28.1488 38.563 28.8916 39.345 29.4141C40.127 29.9367 41.0464 30.2156 41.987 30.2156C42.9275 30.2156 43.8469 29.9367 44.629 29.4141C45.411 28.8916 46.0205 28.1488 46.3804 27.2799C46.7402 26.4109 46.8343 25.4547 46.6508 24.5323C46.4672 23.6098 46.0142 22.7625 45.349 22.0975ZM44.1659 27.6385C43.7341 28.0744 43.1824 28.3722 42.5811 28.4941C41.9797 28.6159 41.3557 28.5563 40.7882 28.3228C40.2208 28.0893 39.7355 27.6925 39.394 27.1827C39.0525 26.6729 38.8702 26.0732 38.8702 25.4596C38.8702 24.846 39.0525 24.2462 39.394 23.7364C39.7355 23.2266 40.2208 22.8298 40.7882 22.5963C41.3557 22.3629 41.9797 22.3033 42.5811 22.4251C43.1824 22.5469 43.7341 22.8447 44.1659 23.2807C44.7421 23.8595 45.0655 24.6429 45.0655 25.4596C45.0655 26.2763 44.7421 27.0597 44.1659 27.6385ZM45.349 22.0975C44.4656 21.2047 43.2641 20.6988 42.0081 20.6907C41.3785 20.6849 40.7541 20.8065 40.1727 21.0483C39.5913 21.29 39.0648 21.6469 38.6249 22.0975C37.9598 22.7625 37.5067 23.6098 37.3232 24.5323C37.1396 25.4547 37.2337 26.4109 37.5936 27.2799C37.9535 28.1488 38.563 28.8916 39.345 29.4141C40.127 29.9367 41.0464 30.2156 41.987 30.2156C42.9275 30.2156 43.8469 29.9367 44.629 29.4141C45.411 28.8916 46.0205 28.1488 46.3804 27.2799C46.7402 26.4109 46.8343 25.4547 46.6508 24.5323C46.4672 23.6098 46.0142 22.7625 45.349 22.0975ZM44.1659 27.6385C43.7341 28.0744 43.1824 28.3722 42.5811 28.4941C41.9797 28.6159 41.3557 28.5563 40.7882 28.3228C40.2208 28.0893 39.7355 27.6925 39.394 27.1827C39.0525 26.6729 38.8702 26.0732 38.8702 25.4596C38.8702 24.846 39.0525 24.2462 39.394 23.7364C39.7355 23.2266 40.2208 22.8298 40.7882 22.5963C41.3557 22.3629 41.9797 22.3033 42.5811 22.4251C43.1824 22.5469 43.7341 22.8447 44.1659 23.2807C44.7421 23.8595 45.0655 24.6429 45.0655 25.4596C45.0655 26.2763 44.7421 27.0597 44.1659 27.6385ZM45.349 22.0975C44.4656 21.2047 43.2641 20.6988 42.0081 20.6907C41.3785 20.6849 40.7541 20.8065 40.1727 21.0483C39.5913 21.29 39.0648 21.6469 38.6249 22.0975C37.9598 22.7625 37.5067 23.6098 37.3232 24.5323C37.1396 25.4547 37.2337 26.4109 37.5936 27.2799C37.9535 28.1488 38.563 28.8916 39.345 29.4141C40.127 29.9367 41.0464 30.2156 41.987 30.2156C42.9275 30.2156 43.8469 29.9367 44.629 29.4141C45.411 28.8916 46.0205 28.1488 46.3804 27.2799C46.7402 26.4109 46.8343 25.4547 46.6508 24.5323C46.4672 23.6098 46.0142 22.7625 45.349 22.0975ZM44.1659 27.6385C43.7341 28.0744 43.1824 28.3722 42.5811 28.4941C41.9797 28.6159 41.3557 28.5563 40.7882 28.3228C40.2208 28.0893 39.7355 27.6925 39.394 27.1827C39.0525 26.6729 38.8702 26.0732 38.8702 25.4596C38.8702 24.846 39.0525 24.2462 39.394 23.7364C39.7355 23.2266 40.2208 22.8298 40.7882 22.5963C41.3557 22.3629 41.9797 22.3033 42.5811 22.4251C43.1824 22.5469 43.7341 22.8447 44.1659 23.2807C44.7421 23.8595 45.0655 24.6429 45.0655 25.4596C45.0655 26.2763 44.7421 27.0597 44.1659 27.6385ZM45.349 22.0975C44.4656 21.2047 43.2641 20.6988 42.0081 20.6907C41.3785 20.6849 40.7541 20.8065 40.1727 21.0483C39.5913 21.29 39.0648 21.6469 38.6249 22.0975C37.9598 22.7625 37.5067 23.6098 37.3232 24.5323C37.1396 25.4547 37.2337 26.4109 37.5936 27.2799C37.9535 28.1488 38.563 28.8916 39.345 29.4141C40.127 29.9367 41.0464 30.2156 41.987 30.2156C42.9275 30.2156 43.8469 29.9367 44.629 29.4141C45.411 28.8916 46.0205 28.1488 46.3804 27.2799C46.7402 26.4109 46.8343 25.4547 46.6508 24.5323C46.4672 23.6098 46.0142 22.7625 45.349 22.0975ZM44.1659 27.6385C43.7341 28.0744 43.1824 28.3722 42.5811 28.4941C41.9797 28.6159 41.3557 28.5563 40.7882 28.3228C40.2208 28.0893 39.7355 27.6925 39.394 27.1827C39.0525 26.6729 38.8702 26.0732 38.8702 25.4596C38.8702 24.846 39.0525 24.2462 39.394 23.7364C39.7355 23.2266 40.2208 22.8298 40.7882 22.5963C41.3557 22.3629 41.9797 22.3033 42.5811 22.4251C43.1824 22.5469 43.7341 22.8447 44.1659 23.2807C44.7421 23.8595 45.0655 24.6429 45.0655 25.4596C45.0655 26.2763 44.7421 27.0597 44.1659 27.6385ZM45.349 22.0975C44.4656 21.2047 43.2641 20.6988 42.0081 20.6907C41.3785 20.6849 40.7541 20.8065 40.1727 21.0483C39.5913 21.29 39.0648 21.6469 38.6249 22.0975C37.9598 22.7625 37.5067 23.6098 37.3232 24.5323C37.1396 25.4547 37.2337 26.4109 37.5936 27.2799C37.9535 28.1488 38.563 28.8916 39.345 29.4141C40.127 29.9367 41.0464 30.2156 41.987 30.2156C42.9275 30.2156 43.8469 29.9367 44.629 29.4141C45.411 28.8916 46.0205 28.1488 46.3804 27.2799C46.7402 26.4109 46.8343 25.4547 46.6508 24.5323C46.4672 23.6098 46.0142 22.7625 45.349 22.0975ZM44.1659 27.6385C43.7341 28.0744 43.1824 28.3722 42.5811 28.4941C41.9797 28.6159 41.3557 28.5563 40.7882 28.3228C40.2208 28.0893 39.7355 27.6925 39.394 27.1827C39.0525 26.6729 38.8702 26.0732 38.8702 25.4596C38.8702 24.846 39.0525 24.2462 39.394 23.7364C39.7355 23.2266 40.2208 22.8298 40.7882 22.5963C41.3557 22.3629 41.9797 22.3033 42.5811 22.4251C43.1824 22.5469 43.7341 22.8447 44.1659 23.2807C44.7421 23.8595 45.0655 24.6429 45.0655 25.4596C45.0655 26.2763 44.7421 27.0597 44.1659 27.6385ZM45.349 22.0975C44.4656 21.2047 43.2641 20.6988 42.0081 20.6907C41.3785 20.6849 40.7541 20.8065 40.1727 21.0483C39.5913 21.29 39.0648 21.6469 38.6249 22.0975C37.9598 22.7625 37.5067 23.6098 37.3232 24.5323C37.1396 25.4547 37.2337 26.4109 37.5936 27.2799C37.9535 28.1488 38.563 28.8916 39.345 29.4141C40.127 29.9367 41.0464 30.2156 41.987 30.2156C42.9275 30.2156 43.8469 29.9367 44.629 29.4141C45.411 28.8916 46.0205 28.1488 46.3804 27.2799C46.7402 26.4109 46.8343 25.4547 46.6508 24.5323C46.4672 23.6098 46.0142 22.7625 45.349 22.0975ZM44.1659 27.6385C43.7341 28.0744 43.1824 28.3722 42.5811 28.4941C41.9797 28.6159 41.3557 28.5563 40.7882 28.3228C40.2208 28.0893 39.7355 27.6925 39.394 27.1827C39.0525 26.6729 38.8702 26.0732 38.8702 25.4596C38.8702 24.846 39.0525 24.2462 39.394 23.7364C39.7355 23.2266 40.2208 22.8298 40.7882 22.5963C41.3557 22.3629 41.9797 22.3033 42.5811 22.4251C43.1824 22.5469 43.7341 22.8447 44.1659 23.2807C44.7421 23.8595 45.0655 24.6429 45.0655 25.4596C45.0655 26.2763 44.7421 27.0597 44.1659 27.6385ZM45.349 22.0975C44.4656 21.2047 43.2641 20.6988 42.0081 20.6907C41.3785 20.6849 40.7541 20.8065 40.1727 21.0483C39.5913 21.29 39.0648 21.6469 38.6249 22.0975C37.9598 22.7625 37.5067 23.6098 37.3232 24.5323C37.1396 25.4547 37.2337 26.4109 37.5936 27.2799C37.9535 28.1488 38.563 28.8916 39.345 29.4141C40.127 29.9367 41.0464 30.2156 41.987 30.2156C42.9275 30.2156 43.8469 29.9367 44.629 29.4141C45.411 28.8916 46.0205 28.1488 46.3804 27.2799C46.7402 26.4109 46.8343 25.4547 46.6508 24.5323C46.4672 23.6098 46.0142 22.7625 45.349 22.0975ZM44.1659 27.6385C43.7341 28.0744 43.1824 28.3722 42.5811 28.4941C41.9797 28.6159 41.3557 28.5563 40.7882 28.3228C40.2208 28.0893 39.7355 27.6925 39.394 27.1827C39.0525 26.6729 38.8702 26.0732 38.8702 25.4596C38.8702 24.846 39.0525 24.2462 39.394 23.7364C39.7355 23.2266 40.2208 22.8298 40.7882 22.5963C41.3557 22.3629 41.9797 22.3033 42.5811 22.4251C43.1824 22.5469 43.7341 22.8447 44.1659 23.2807C44.7421 23.8595 45.0655 24.6429 45.0655 25.4596C45.0655 26.2763 44.7421 27.0597 44.1659 27.6385ZM45.349 22.0975C44.4656 21.2047 43.2641 20.6988 42.0081 20.6907C41.3785 20.6849 40.7541 20.8065 40.1727 21.0483C39.5913 21.29 39.0648 21.6469 38.6249 22.0975C37.9598 22.7625 37.5067 23.6098 37.3232 24.5323C37.1396 25.4547 37.2337 26.4109 37.5936 27.2799C37.9535 28.1488 38.563 28.8916 39.345 29.4141C40.127 29.9367 41.0464 30.2156 41.987 30.2156C42.9275 30.2156 43.8469 29.9367 44.629 29.4141C45.411 28.8916 46.0205 28.1488 46.3804 27.2799C46.7402 26.4109 46.8343 25.4547 46.6508 24.5323C46.4672 23.6098 46.0142 22.7625 45.349 22.0975ZM44.1659 27.6385C43.7341 28.0744 43.1824 28.3722 42.5811 28.4941C41.9797 28.6159 41.3557 28.5563 40.7882 28.3228C40.2208 28.0893 39.7355 27.6925 39.394 27.1827C39.0525 26.6729 38.8702 26.0732 38.8702 25.4596C38.8702 24.846 39.0525 24.2462 39.394 23.7364C39.7355 23.2266 40.2208 22.8298 40.7882 22.5963C41.3557 22.3629 41.9797 22.3033 42.5811 22.4251C43.1824 22.5469 43.7341 22.8447 44.1659 23.2807C44.7421 23.8595 45.0655 24.6429 45.0655 25.4596C45.0655 26.2763 44.7421 27.0597 44.1659 27.6385Z" fill="#231F20"/>
<path d="M53.4785 14.154C53.2799 13.9535 53.0369 13.8025 52.7692 13.7133C52.5015 13.624 52.2165 13.599 51.9373 13.6402L49.8656 14.0165C43.9831 15.1442 38.3984 17.4794 33.4641 20.8748C28.5298 24.2702 24.3532 28.6519 21.1981 33.7431C21.1692 33.7881 21.1434 33.8351 21.1211 33.8837C21.0742 33.9656 21.0348 34.0516 21.0032 34.1405C20.8687 34.5455 20.8914 35.0744 21.0636 35.6969C21.3779 36.8649 22.1984 38.3548 23.4073 39.9052C23.0767 39.4018 22.8198 38.8538 22.6442 38.2778C22.5395 37.9682 22.5269 37.6349 22.6079 37.3183C22.6274 37.2631 22.6511 37.2095 22.6789 37.1581C22.6847 37.1472 22.6924 37.1375 22.7016 37.1294C22.724 37.0933 22.7509 37.0603 22.7817 37.0312C23.0431 36.7713 23.4964 36.7395 24.0691 36.9027C25.1465 37.2049 26.6469 38.1886 28.0628 39.6075C29.4786 41.0264 30.4548 42.5117 30.76 43.5891C30.9292 44.1678 30.8975 44.6257 30.6406 44.8871L30.621 44.9037C30.5965 44.9268 30.5702 44.9481 30.5424 44.9672C30.4421 45.0334 30.3287 45.0772 30.21 45.0956C29.9183 45.1332 29.6219 45.1048 29.3427 45.0125C28.7815 44.8325 28.2469 44.5784 27.753 44.257C29.2762 45.4446 30.7373 46.2621 31.9008 46.5915C32.3531 46.7394 32.8325 46.7854 33.3046 46.726C33.4946 46.6772 33.6756 46.5987 33.841 46.4933L33.9695 46.4162C39.0108 43.3361 43.3538 39.2378 46.7209 34.3835C50.088 29.5292 52.4051 24.0256 53.5239 18.2247L53.9878 15.73V15.6982C54.029 15.419 54.0044 15.1339 53.916 14.8658C53.8276 14.5977 53.6778 14.354 53.4785 14.154ZM51.8799 17.9119C49.8022 28.7204 42.7139 38.7235 33.5101 44.7602C33.0145 43.0179 31.2118 40.4068 28.9286 38.1236C26.6454 35.8405 24.6977 34.6482 22.9509 34.1587C29.1069 24.8975 39.2203 17.7487 50.1724 15.6635L52.1836 15.2963C52.2042 15.2956 52.2248 15.2991 52.244 15.3066C52.2633 15.3142 52.2807 15.3256 52.2954 15.3401C52.3088 15.3548 52.3191 15.3719 52.3259 15.3906C52.3326 15.4093 52.3356 15.4291 52.3347 15.4489L51.8799 17.9119Z" fill="#231F20"/>
<path d="M46.5912 39.3113C46.5603 39.0744 46.4578 38.8525 46.2974 38.6754C46.137 38.4983 45.9264 38.3743 45.6937 38.3201C45.4708 38.2709 45.2385 38.2886 45.0256 38.3708C44.8127 38.4531 44.6289 38.5962 44.4969 38.7824C42.6527 40.9649 40.5962 42.9587 38.3576 44.7344L38.3379 44.7526C38.0921 44.8575 37.8957 45.0523 37.7887 45.2972C37.6817 45.5421 37.6722 45.8186 37.7622 46.0702L39.9351 51.4843C40.0223 51.7659 40.187 52.0174 40.4104 52.2098C40.6338 52.4022 40.9069 52.5278 41.1983 52.5722C41.2827 52.5868 41.3681 52.5938 41.4537 52.5934C41.7206 52.5934 41.9833 52.5271 42.2183 52.4005C42.4533 52.2739 42.6532 52.091 42.8 51.8681L44.0482 50.0639C46.2196 46.9278 47.1277 43.0879 46.5912 39.3113ZM42.6716 49.1119L41.4809 50.8345L39.5165 45.9493C41.5033 44.3613 43.3528 42.6089 45.0455 40.7105C45.2062 43.6966 44.3713 46.6515 42.6716 49.1119Z" fill="#231F20"/>
<path d="M29.3231 22.0884C29.2683 21.8559 29.1436 21.6458 28.9659 21.4862C28.7882 21.3265 28.5659 21.2251 28.3288 21.1954C24.551 20.6576 20.7094 21.5653 17.5717 23.737L15.8265 24.9458C15.5565 25.0749 15.331 25.2813 15.1785 25.5387C15.0259 25.7962 14.9533 26.0931 14.9697 26.3919C14.9922 26.7025 15.1086 26.9989 15.3034 27.2418C15.4983 27.4846 15.7624 27.6625 16.0607 27.7518L21.4294 29.9096L21.4763 29.9262C21.5788 29.9593 21.6859 29.9761 21.7936 29.9761C22.0917 29.9633 22.3796 29.8635 22.6216 29.689L22.6911 29.6437L22.8422 29.4926L22.9163 29.4094C24.5301 27.2864 26.4718 25.2843 28.8547 23.2852C29.0411 23.1532 29.1848 22.9696 29.268 22.7569C29.3513 22.5443 29.3704 22.3119 29.3231 22.0884ZM21.7195 28.2293L16.8585 26.265L18.5207 25.1105C20.981 23.4094 23.9367 22.5733 26.9236 22.7337C25.0132 24.3908 23.2702 26.2315 21.7195 28.2293Z" fill="#231F20"/>
<path fill-rule="evenodd" clip-rule="evenodd" d="M11.0106 60.4962C10.997 60.543 10.985 60.5898 10.9729 60.6382C10.8891 60.9694 10.8435 61.309 10.8369 61.6506C10.8344 62.3664 10.9105 63.0804 11.0635 63.7796C11.1119 64.0244 11.2494 64.3267 11.2509 64.576C11.2509 64.576 11.2176 61.5977 16.2645 59.455C24.3229 56.031 26.9929 50.691 26.251 46.8061C25.9594 47.4256 25.432 47.9424 24.9515 48.5861C24.0932 49.7455 22.9475 50.6612 21.6272 51.2425C21.1285 51.4628 20.6085 51.6314 20.0754 51.7457C19.5647 51.853 18.9859 51.9648 18.4737 51.8122C18.4579 51.8095 18.4429 51.8036 18.4297 51.7947C18.4164 51.7859 18.4051 51.7743 18.3966 51.7608C18.3898 51.7397 18.3898 51.717 18.3966 51.6958C18.4366 51.4747 18.5154 51.2624 18.6293 51.0688C18.6878 50.9683 18.755 50.8732 18.8303 50.7847C18.9043 50.7001 18.998 50.6336 19.0705 50.5489C19.0086 50.5656 18.9436 50.5595 18.8817 50.5731C18.791 50.5913 18.7003 50.6124 18.6112 50.6351C18.3422 50.703 18.0777 50.7878 17.8194 50.8889C17.1636 51.1383 16.5543 51.4958 16.0167 51.9467C15.1389 52.6968 14.321 53.5142 13.5703 54.3915C13.5703 54.3915 14.8744 47.2624 18.1654 44.2177C19.1248 43.2996 20.2271 42.5438 21.4293 41.9798C15.9079 41.1095 9.94535 49.8372 7.4612 56.5387C4.23814 65.2469 0.120544 68 0.120544 68C1.00148 67.586 1.7978 66.9544 2.56995 66.3696C3.64279 65.5566 4.68541 64.7074 5.71896 63.8386C6.61853 63.0831 7.50653 62.3155 8.38293 61.5358C8.64585 61.3015 8.90877 61.0673 9.16414 60.8256C9.60981 60.3844 10.1512 60.0519 10.7462 59.854C10.934 59.7932 11.1259 59.7457 11.3204 59.7119C11.2645 59.7225 11.1542 60.0806 11.1315 60.138C11.0862 60.2529 11.0454 60.3738 11.0106 60.4962Z" fill="#231F20"/>
<path d="M95.3765 12.0778V14.9488H90.3674V30.2103H86.7409V14.9488H81.7544V12.0778H95.3765Z" fill="#333333"/>
<path d="M110.635 23.7914H100.209C100.26 25.0587 100.603 25.992 101.237 26.5914C101.552 26.8905 101.922 27.1246 102.328 27.2802C102.733 27.4357 103.166 27.5098 103.6 27.498C104.438 27.498 105.136 27.2925 105.693 26.8815C106.243 26.4799 106.624 25.887 106.759 25.2193H110.587C110.406 26.1946 109.992 27.1115 109.378 27.8909C108.747 28.6906 107.931 29.3253 107.001 29.7404C105.902 30.2152 104.712 30.4419 103.516 30.4043C102.319 30.3667 101.146 30.0657 100.079 29.5228C99.0107 28.9432 98.1355 28.0633 97.5617 26.9918C96.9573 25.8968 96.6576 24.6038 96.6627 23.113C96.6677 21.6221 96.9674 20.3251 97.5617 19.222C98.1276 18.1424 99.0025 17.2559 100.075 16.6759C101.215 16.079 102.487 15.7787 103.774 15.8025C105.177 15.8025 106.405 16.0936 107.459 16.6759C108.483 17.23 109.329 18.0631 109.899 19.0785C110.686 20.5159 110.945 22.183 110.632 23.7914H110.635ZM106.203 19.5605C105.542 18.9568 104.672 18.632 103.777 18.6539C102.869 18.6309 101.987 18.9552 101.311 19.5605C100.643 20.1649 100.275 21.0469 100.206 22.2063H107.116C107.167 21.0378 106.863 20.1533 106.203 19.5529V19.5605Z" fill="#333333"/>
<path d="M121.985 16.6502C122.824 17.1946 123.464 17.9969 123.809 18.9364V15.9899H127.405V30.2209H123.809V27.2336C123.463 28.1758 122.823 28.982 121.985 29.5334C121.13 30.1056 120.102 30.3922 118.902 30.3932C117.763 30.4097 116.642 30.1072 115.666 29.5198C114.685 28.9144 113.904 28.035 113.419 26.9903C112.879 25.8822 112.609 24.5847 112.609 23.0978C112.609 21.611 112.879 20.314 113.419 19.2069C113.905 18.1623 114.686 17.2826 115.666 16.6759C116.642 16.0892 117.763 15.7867 118.902 15.8025C120.104 15.8025 121.132 16.0851 121.985 16.6502ZM117.313 20.0697C116.628 20.8071 116.285 21.8175 116.285 23.1009C116.285 24.3842 116.628 25.3916 117.313 26.123C117.999 26.8503 118.905 27.2139 120.033 27.2139C120.538 27.2294 121.04 27.1379 121.507 26.9454C121.975 26.753 122.396 26.464 122.743 26.0973C123.454 25.3518 123.806 24.354 123.801 23.1039C123.801 21.8376 123.448 20.8303 122.743 20.0818C122.396 19.7149 121.975 19.4256 121.507 19.2329C121.04 19.0402 120.538 18.9485 120.033 18.9636C118.904 18.9626 117.998 19.3313 117.313 20.0697Z" fill="#333333"/>
<path d="M152.904 17.3831C153.906 18.4529 154.407 19.9726 154.406 21.9419V30.2134H150.809V22.356C150.809 21.261 150.531 20.4178 149.975 19.8265C149.419 19.2352 148.652 18.9385 147.673 18.9365C146.665 18.9365 145.859 19.2533 145.255 19.8869C144.65 20.5206 144.348 21.4453 144.348 22.6612V30.2164H140.752V22.359C140.752 21.264 140.474 20.4208 139.918 19.8295C139.362 19.2382 138.595 18.9425 137.618 18.9425C136.611 18.9425 135.805 19.2593 135.2 19.893C134.596 20.5266 134.294 21.4514 134.294 22.6672V30.2225H130.667V15.9899H134.294V18.6796C134.641 17.7903 135.268 17.0379 136.08 16.5354C136.935 16.0198 137.919 15.7577 138.918 15.7799C139.98 15.7488 141.028 16.0322 141.931 16.5944C142.797 17.1656 143.465 17.9912 143.844 18.9576C144.27 18.0019 144.967 17.1915 145.847 16.6257C146.728 16.06 147.755 15.7634 148.801 15.7724C150.535 15.7754 151.902 16.3123 152.904 17.3831Z" fill="#333333"/>
<path d="M94.8115 53.5C94.3178 54.3069 93.6051 54.9572 92.7565 55.3752C91.8498 55.8446 90.7453 56.0798 89.4428 56.0808C88.2626 56.1014 87.0909 55.8787 86.0006 55.4266C85.0364 55.0263 84.1976 54.3739 83.5724 53.5378C82.9588 52.6997 82.5981 51.7034 82.5328 50.6668H86.3859C86.4524 51.3653 86.7665 52.017 87.2714 52.5042C87.7751 52.9928 88.4475 53.2366 89.2886 53.2356C90.0411 53.2356 90.6189 53.0341 91.0218 52.6311C91.2227 52.4265 91.3798 52.1831 91.4837 51.9158C91.5877 51.6485 91.6361 51.3629 91.6262 51.0763C91.6451 50.5651 91.4709 50.0656 91.1382 49.677C90.7956 49.2963 90.375 48.9938 89.9051 48.7901C89.4085 48.5684 88.7235 48.3116 87.8501 48.0194C86.8993 47.7156 85.972 47.3424 85.0758 46.9028C84.343 46.523 83.7127 45.972 83.2384 45.2965C82.7347 44.5914 82.4829 43.6752 82.4829 42.548C82.4829 40.9906 83.0435 39.7621 84.1647 38.8625C85.2859 37.9629 86.7717 37.5132 88.6223 37.5132C90.5363 37.5132 92.0644 37.9755 93.2068 38.9003C94.3491 39.825 94.9959 41.0581 95.147 42.5993H91.2424C91.1588 41.9865 90.8689 41.4205 90.4204 40.9946C89.9752 40.5745 89.3672 40.3645 88.5966 40.3645C87.9287 40.3645 87.3893 40.5403 86.9782 40.8919C86.5672 41.2434 86.3617 41.7526 86.3617 42.4195C86.3447 42.9052 86.5145 43.3789 86.8362 43.7432C87.1756 44.11 87.5872 44.4027 88.0451 44.603C88.695 44.8869 89.3598 45.1356 90.0366 45.3479C91.004 45.6783 91.9514 46.0643 92.8743 46.5039C93.6208 46.8792 94.2614 47.4356 94.7375 48.1222C95.2512 48.8415 95.5081 49.7833 95.5081 50.9478C95.5132 51.8462 95.2723 52.7288 94.8115 53.5Z" fill="#333333"/>
<path d="M109.915 42.3636C110.895 42.9698 111.677 43.8496 112.163 44.8946C112.703 46.0027 112.973 47.2997 112.972 48.7856C112.971 50.2714 112.701 51.5689 112.163 52.678C111.677 53.7229 110.895 54.6023 109.915 55.2075C108.939 55.7951 107.818 56.0976 106.68 56.0809C105.48 56.0809 104.456 55.7943 103.609 55.2211C102.776 54.6661 102.141 53.8607 101.796 52.9213V62.6811H98.1694V41.6776H101.796V44.6317C102.139 43.6949 102.775 42.8934 103.609 42.3455C104.456 41.7804 105.48 41.4978 106.68 41.4978C107.818 41.4795 108.938 41.7794 109.915 42.3636ZM102.839 45.768C102.128 46.5134 101.773 47.5208 101.772 48.7901C101.772 50.0412 102.127 51.039 102.839 51.7835C103.186 52.1501 103.607 52.4391 104.074 52.6316C104.541 52.8241 105.043 52.9156 105.548 52.9001C106.679 52.9001 107.586 52.5365 108.268 51.8092C108.95 51.0818 109.292 50.0745 109.294 48.7871C109.294 47.5027 108.952 46.4923 108.268 45.7559C107.584 45.0195 106.677 44.6513 105.548 44.6513C105.043 44.636 104.541 44.7276 104.074 44.92C103.607 45.1124 103.186 45.4014 102.839 45.768Z" fill="#333333"/>
<path d="M124.197 42.3379C125.037 42.8823 125.677 43.6846 126.021 44.6241V41.6776H129.617V55.9086H126.021V52.9288C125.675 53.871 125.036 54.6772 124.197 55.2286C123.342 55.8008 122.314 56.0874 121.115 56.0884C119.975 56.1049 118.854 55.8024 117.878 55.215C116.9 54.6065 116.121 53.7244 115.639 52.678C115.1 51.5699 114.83 50.2724 114.829 48.7855C114.828 47.2987 115.098 46.0017 115.639 44.8946C116.125 43.85 116.906 42.9703 117.886 42.3636C118.862 41.7769 119.983 41.4744 121.122 41.4902C122.316 41.4902 123.341 41.7728 124.197 42.3379ZM119.522 45.7574C118.838 46.4948 118.496 47.5052 118.495 48.7886C118.494 50.0719 118.836 51.0793 119.522 51.8107C120.208 52.537 121.115 52.9006 122.242 52.9016C122.747 52.9171 123.25 52.8256 123.717 52.6331C124.184 52.4407 124.605 52.1516 124.953 51.785C125.658 51.0405 126.01 50.0427 126.01 48.7916C126.01 47.5253 125.658 46.518 124.953 45.7695C124.605 45.4026 124.184 45.1133 123.717 44.9206C123.25 44.7279 122.747 44.6362 122.242 44.6513C121.114 44.6503 120.207 45.019 119.522 45.7574Z" fill="#333333"/>
<path d="M143.895 42.9802C145.119 43.9744 145.885 45.3273 146.193 47.0388H142.366C142.241 46.3357 141.865 45.7017 141.308 45.2543C140.761 44.8171 140.068 44.5985 139.228 44.5985C138.774 44.5897 138.323 44.6807 137.908 44.865C137.494 45.0494 137.124 45.3226 136.826 45.6653C136.185 46.3705 135.863 47.4106 135.862 48.7856C135.861 50.1607 136.183 51.2013 136.826 51.9074C137.125 52.2483 137.495 52.5196 137.91 52.7023C138.325 52.8851 138.774 52.9748 139.228 52.9651C140.068 52.9651 140.761 52.7471 141.308 52.3109C141.865 51.8632 142.241 51.2286 142.366 50.5248H146.193C145.885 52.2373 145.119 53.5902 143.895 54.5835C142.671 55.5767 141.143 56.0734 139.309 56.0734C138.021 56.0976 136.748 55.7929 135.61 55.1879C134.542 54.6075 133.667 53.7278 133.093 52.6569C132.494 51.5619 132.192 50.2689 132.186 48.7781C132.18 47.2872 132.482 45.9902 133.093 44.8871C133.663 43.8127 134.539 42.9317 135.61 42.3561C136.75 41.7593 138.022 41.4589 139.309 41.4827C141.137 41.4878 142.666 41.9869 143.895 42.9802Z" fill="#333333"/>
<path d="M162.009 49.4792H151.583C151.635 50.7464 151.977 51.6797 152.611 52.2791C152.926 52.5768 153.297 52.8095 153.703 52.9637C154.108 53.118 154.54 53.1909 154.974 53.1782C155.813 53.1782 156.511 52.9727 157.068 52.5617C157.615 52.1586 157.993 51.5659 158.126 50.8995H161.954C161.773 51.8747 161.358 52.7915 160.745 53.5711C160.114 54.3707 159.299 55.0054 158.369 55.4206C157.27 55.8953 156.08 56.122 154.883 56.0844C153.687 56.0468 152.513 55.7458 151.446 55.203C150.378 54.6226 149.503 53.7429 148.928 52.672C148.324 51.577 148.024 50.284 148.029 48.7931C148.034 47.3022 148.334 46.0053 148.928 44.9022C149.498 43.8278 150.374 42.9468 151.446 42.3712C152.586 41.7744 153.858 41.474 155.145 41.4978C156.548 41.4978 157.777 41.7889 158.832 42.3712C159.856 42.9253 160.702 43.7584 161.272 44.7738C161.856 45.8377 162.152 47.0356 162.132 48.2492C162.128 48.662 162.087 49.0737 162.009 49.4792ZM157.579 45.2407C156.915 44.6402 156.046 44.3183 155.151 44.3416C154.244 44.3166 153.362 44.6381 152.685 45.2407C152.017 45.8451 151.649 46.727 151.58 47.8865H158.49C158.542 46.722 158.238 45.8401 157.579 45.2407Z" fill="#333333"/>
<defs>
<linearGradient id="paint0_linear" x1="34.119" y1="0" x2="34.119" y2="67.997" gradientUnits="userSpaceOnUse">
<stop stop-color="#6E44FF"/>
<stop offset="1" stop-color="#72DDF7"/>
</linearGradient>
</defs>
</svg>
