<svg width="151" height="96" viewBox="0 0 151 96" fill="none" xmlns="http://www.w3.org/2000/svg">
<path d="M75.0587 85.5442C62.6763 85.5442 51.3125 83.7106 42.4116 80.6542C43.6922 85.7192 46.0981 89.5498 49.0646 90.7756C55.7599 93.5427 64.9354 95.2492 75.0587 95.2492C85.1819 95.2492 94.3575 93.5427 101.053 90.7756C104.019 89.5498 106.425 85.7192 107.706 80.6542C98.8049 83.7106 87.441 85.5442 75.0587 85.5442Z" fill="url(#paint0_linear)"/>
<path d="M150.059 37.7047C150.059 16.8588 0.0588379 16.8588 0.0588379 37.7047C0.0588379 58.5506 17.6844 89.1188 75.0588 89.1188C132.433 89.1188 150.059 58.5509 150.059 37.7047Z" fill="url(#paint1_linear)"/>
<path d="M150.059 37.7047C150.059 58.5506 0.0588379 58.5506 0.0588379 37.7047C0.0588379 16.8588 150.059 16.8588 150.059 37.7047Z" fill="url(#paint2_linear)"/>
<path d="M129.176 22.5989C129.176 44.8698 24.9456 44.8698 24.9456 22.5989C24.9456 18.7589 28.0459 15.5818 33.175 13.0662C35.0382 12.1524 36.7567 10.6692 38.1935 8.65769L38.3476 8.4421C41.4717 4.06857 45.995 2.84122 49.9311 5.29887L49.9341 5.30063C53.2967 7.40034 57.1306 6.83564 60.1612 3.79446L60.4494 3.50505C63.7914 0.151517 68.0891 -0.123483 71.6067 2.79063L71.8756 3.01328C75.1064 5.68975 79.0182 5.69034 82.2494 3.01446L82.52 2.79034C86.0382 -0.123189 90.3359 0.152986 93.6779 3.5071L94.0276 3.85799C97.0415 6.88269 100.858 7.42416 104.192 5.30034C108.099 2.81093 112.61 4.01005 115.72 8.36475L115.929 8.65769C117.366 10.6692 119.084 12.1527 120.947 13.0662C126.076 15.5818 129.176 18.7592 129.176 22.5989Z" fill="url(#paint3_linear)"/>
<path d="M112.857 14.7529C109.854 14.7529 107.42 17.187 107.42 20.19C107.42 23.1929 109.854 25.627 112.857 25.627C115.86 25.627 118.294 23.1929 118.294 20.19C118.294 17.187 115.86 14.7529 112.857 14.7529ZM112.857 22.4979C111.582 22.4979 110.549 21.4647 110.549 20.19C110.549 18.9153 111.582 17.882 112.857 17.882C114.132 17.882 115.165 18.9153 115.165 20.19C115.165 21.4647 114.131 22.4979 112.857 22.4979Z" fill="url(#paint4_linear)"/>
<path d="M70.9976 4.31531C67.9947 4.31531 65.5605 6.74943 65.5605 9.75237C65.5605 12.7553 67.9947 15.1894 70.9976 15.1894C74.0002 15.1894 76.4347 12.7553 76.4347 9.75237C76.4347 6.74943 74.0005 4.31531 70.9976 4.31531ZM70.9976 12.06C69.7229 12.06 68.6897 11.0268 68.6897 9.75207C68.6897 8.47737 69.7229 7.44413 70.9976 7.44413C72.2723 7.44413 73.3055 8.47737 73.3055 9.75207C73.3055 11.0268 72.2723 12.06 70.9976 12.06Z" fill="url(#paint5_linear)"/>
<path d="M102.697 34.6219C108.308 34.6219 112.857 30.0729 112.857 24.4616C112.857 18.8502 108.308 14.3013 102.697 14.3013C97.0853 14.3013 92.5364 18.8502 92.5364 24.4616C92.5364 30.0729 97.0853 34.6219 102.697 34.6219Z" fill="url(#paint6_linear)"/>
<path d="M99.8364 37.7941L68.5864 6.52737C66.6305 4.57149 64.3055 3.80002 61.8632 2.92737C61.3661 3.27443 60.9143 3.03855 60.4496 3.50502L60.1614 3.79443C57.1305 6.83561 53.2967 7.40031 49.9343 5.3006L49.9314 5.29884C48.6882 4.52266 47.6805 4.56649 46.3829 4.50854C45.2905 5.20472 44.3064 5.86031 43.3526 6.81413C36.289 13.8777 35.9429 25.0438 43.0064 32.1077L47.5443 36.6456C62.8658 39.7494 83.2626 40.1327 99.8364 37.7941Z" fill="url(#paint7_linear)"/>
<path d="M143.865 37.7047C143.865 53.0674 6.25244 53.0674 6.25244 37.7047C6.25244 22.3421 143.865 22.3424 143.865 37.7047Z" fill="url(#paint8_linear)"/>
<path d="M1.93896 49.7827C2.90102 52.8924 4.25691 56.0448 6.06102 59.143C31.8613 70.4021 118.256 70.4021 144.057 59.143C145.861 56.0448 147.217 52.8924 148.179 49.7827C128.268 64.0583 21.8498 64.0583 1.93896 49.7827Z" fill="url(#paint9_linear)"/>
<path d="M143.791 37.1062C143.647 38.1238 143.274 39.1121 142.697 40.068C140.473 42.2283 135.197 44.0065 127.949 45.4024C123.995 46.1638 119.455 45.3409 114.504 45.8747C110.014 46.3588 105.185 48.22 100.149 48.5171C92.4188 48.973 84.1988 49.2088 75.9618 49.2238C68.6676 49.2415 52.9323 46.3768 52.7853 44.9886C52.4059 41.415 54.8029 38.1709 59.0353 35.3562C59.5029 35.0474 59.9559 34.6886 60.3853 34.2827C61.3706 33.3562 62.2529 32.1856 62.9882 30.7915L63.1 30.5768C64.2382 28.4209 65.75 26.9503 67.4353 26.2444C68.8853 25.6385 70.4618 25.6033 72.0382 26.1915C72.3294 26.3003 72.6206 26.4297 72.9088 26.5827L72.9118 26.5856C75.2382 27.8033 77.65 27.6356 79.697 26.2062C80.4147 25.7062 81.0882 25.0474 81.6971 24.2415L81.9206 23.9444C84.5118 20.515 88.2382 19.8621 91.5971 22.2503L91.8529 22.4327C94.9382 24.6268 98.3559 24.268 100.915 21.4797L101.129 21.2444C103.915 18.2091 107.697 18.0709 110.944 20.8856L111.285 21.1797C114.215 23.718 117.6 23.8709 120.306 21.5856C121.585 20.5062 123.009 19.9738 124.459 19.9738C126.6 19.9738 128.8 21.1297 130.676 23.3768L130.885 23.6297C132.338 25.368 133.985 26.5915 135.703 27.2709C140.429 29.1385 143.45 31.8121 143.826 35.3856C143.888 35.968 143.876 36.5444 143.791 37.1062Z" fill="url(#paint10_linear)"/>
<path d="M68.586 6.52738C61.5225 -0.536146 50.0698 -0.536146 43.006 6.52738C35.9422 13.5909 35.9425 25.0436 43.006 32.1074C50.0695 39.1709 61.5222 39.1709 68.586 32.1074C75.6498 25.0439 75.6498 13.5912 68.586 6.52738ZM47.6742 27.4394C43.1892 22.9544 43.1892 15.6806 47.6742 11.1956C52.1593 6.71062 59.4313 6.71238 63.9163 11.1974C68.4013 15.6824 68.4031 22.9544 63.9181 27.4394C59.4331 31.9244 52.1593 31.9244 47.6742 27.4394Z" fill="url(#paint11_linear)"/>
<path d="M45.1574 29.9565C51.0324 35.8315 60.5603 35.8315 66.4353 29.9565C72.3121 24.0797 72.3103 14.5536 66.4353 8.67857C60.5586 2.8018 51.0342 2.8018 45.1574 8.67857C39.2824 14.5533 39.2806 24.0797 45.1574 29.9565ZM63.9183 11.1953C68.4033 15.6803 68.4033 22.9542 63.9183 27.4392C59.4333 31.9242 52.1612 31.9224 47.6762 27.4374C43.1912 22.9524 43.1895 15.6803 47.6745 11.1953C52.1595 6.71033 59.4333 6.71033 63.9183 11.1953Z" fill="url(#paint12_linear)"/>
<path d="M137.694 15.0065C132.044 9.35654 122.883 9.35654 117.233 15.0065C111.583 20.6565 111.583 29.8171 117.233 35.4671C122.883 41.1171 132.044 41.1171 137.694 35.4671C143.344 29.8171 143.344 20.6565 137.694 15.0065ZM120.967 31.7333C117.38 28.146 117.38 22.3277 120.967 18.7404C124.554 15.153 130.371 15.1545 133.958 18.7418C137.546 22.3292 137.547 28.146 133.96 31.7333C130.373 35.3207 124.554 35.3207 120.967 31.7333Z" fill="url(#paint13_linear)"/>
<path d="M118.954 33.7465C123.653 38.4456 131.274 38.4456 135.973 33.7465C140.674 29.0459 140.672 21.4262 135.973 16.7271C131.273 12.0265 123.654 12.0265 118.954 16.7271C114.255 21.4262 114.253 29.0459 118.954 33.7465ZM133.96 18.7403C137.547 22.3277 137.547 28.1459 133.96 31.7333C130.373 35.3206 124.556 35.3192 120.969 31.7318C117.381 28.1445 117.38 22.3277 120.967 18.7403C124.554 15.153 130.373 15.153 133.96 18.7403Z" fill="url(#paint14_linear)"/>
<path d="M86.2575 9.75155C87.0346 9.72655 87.6446 9.07655 87.6196 8.2992C87.5946 7.52214 86.9446 6.91214 86.1672 6.93714C85.3902 6.96214 84.7802 7.61214 84.8052 8.38949C84.8302 9.16655 85.4805 9.77655 86.2575 9.75155Z" fill="url(#paint15_linear)"/>
<path d="M79.7199 12.3881C79.7081 12.0181 79.3987 11.7278 79.0287 11.7399C78.6587 11.7516 78.3687 12.061 78.3805 12.431C78.3922 12.801 78.7019 13.091 79.0717 13.0793C79.4417 13.0672 79.7319 12.7578 79.7199 12.3881Z" fill="url(#paint16_linear)"/>
<path d="M88.3879 12.0333C88.2132 11.7072 87.807 11.5842 87.4808 11.7589C87.1547 11.9336 87.0317 12.3398 87.2064 12.666C87.3811 12.9922 87.7873 13.1151 88.1135 12.9404C88.4397 12.766 88.5626 12.3598 88.3879 12.0333Z" fill="url(#paint17_linear)"/>
<path d="M93.7978 9.43592C93.6231 9.10975 93.2169 8.9868 92.8908 9.16151C92.5646 9.33622 92.4416 9.74239 92.6163 10.0686C92.7911 10.3947 93.1972 10.5177 93.5234 10.343C93.8496 10.1683 93.9725 9.7621 93.7978 9.43592Z" fill="url(#paint18_linear)"/>
<path d="M80.0912 14.2709C79.7021 13.848 79.0441 13.8207 78.6212 14.2098C78.1982 14.5989 78.1709 15.2568 78.56 15.6798C78.9491 16.1027 79.6071 16.1301 80.03 15.7409C80.453 15.3518 80.4803 14.6936 80.0912 14.2709Z" fill="url(#paint19_linear)"/>
<path d="M83.4986 9.75722C83.1916 9.4234 82.6719 9.40163 82.338 9.70898C82.0042 10.016 81.9824 10.5357 82.2898 10.8696C82.5969 11.2034 83.1166 11.2252 83.4504 10.9178C83.7839 10.6107 83.8057 10.091 83.4986 9.75722Z" fill="url(#paint20_linear)"/>
<path d="M90.7918 6.82009C90.4848 6.48626 89.9651 6.4645 89.6312 6.77185C89.2974 7.07891 89.2757 7.59862 89.583 7.93244C89.8901 8.26627 90.4098 8.28803 90.7436 7.98067C91.0771 7.67362 91.0989 7.15391 90.7918 6.82009Z" fill="url(#paint21_linear)"/>
<path d="M84.6456 11.8828C84.8306 12.0839 85.1441 12.0972 85.3453 11.9119C85.5464 11.7266 85.5597 11.4133 85.3744 11.2122C85.1891 11.011 84.8759 10.9978 84.6747 11.183C84.4732 11.3683 84.4603 11.6816 84.6456 11.8828Z" fill="url(#paint22_linear)"/>
<path d="M89.7552 13.4306C83.7222 7.39765 73.9405 7.39765 67.9075 13.4306C61.8746 19.4635 61.8746 29.2453 67.9075 35.2782C73.9405 41.3112 83.7222 41.3112 89.7552 35.2782C95.7881 29.2453 95.7881 19.4635 89.7552 13.4306ZM71.8943 31.2912C68.0637 27.4606 68.0637 21.2479 71.8943 17.4174C75.7249 13.5868 81.9361 13.5882 85.7666 17.4188C89.5972 21.2494 89.5987 27.4606 85.7681 31.2912C81.9375 35.1218 75.7249 35.1218 71.8943 31.2912Z" fill="url(#paint23_linear)"/>
<path d="M69.7446 33.4408C74.7623 38.4585 82.9002 38.4585 87.9179 33.4408C92.937 28.4217 92.9355 20.2853 87.9179 15.2676C82.8984 10.2482 74.7637 10.2482 69.7446 15.2676C64.727 20.2853 64.7252 28.4217 69.7446 33.4408ZM85.7681 17.4173C89.5987 21.2479 89.5987 27.4605 85.7681 31.2911C81.9376 35.1217 75.7264 35.1203 71.8958 31.2897C68.0652 27.4591 68.0637 21.2479 71.8943 17.4173C75.7249 13.5867 81.9376 13.5867 85.7681 17.4173Z" fill="url(#paint24_linear)"/>
<path d="M62.4829 35.6615C59.8096 45.2865 24.9543 35.6056 27.6279 25.9806C30.3014 16.3556 40.2708 10.7203 49.8958 13.3935C59.5208 16.0668 65.1564 26.0365 62.4829 35.6615Z" fill="url(#paint25_linear)"/>
<path d="M125.781 10.9762C118.717 3.91271 107.264 3.91271 100.201 10.9762C93.1368 18.0398 93.1371 29.4924 100.201 36.5562C107.264 43.6198 118.717 43.6198 125.781 36.5562C132.844 29.4927 132.844 18.0398 125.781 10.9762ZM104.869 31.888C100.384 27.403 100.384 20.1292 104.869 15.6442C109.354 11.1592 116.626 11.1609 121.111 15.6459C125.596 20.1309 125.598 27.403 121.113 31.888C116.628 36.373 109.354 36.373 104.869 31.888Z" fill="url(#paint26_linear)"/>
<path d="M102.352 34.4051C108.227 40.2801 117.755 40.2801 123.63 34.4051C129.507 28.5284 129.505 19.0022 123.63 13.1272C117.753 7.25041 108.229 7.25041 102.352 13.1272C96.477 19.0022 96.4752 28.5284 102.352 34.4051ZM121.113 15.6442C125.598 20.1292 125.598 27.4031 121.113 31.8881C116.628 36.3731 109.356 36.3713 104.871 31.8863C100.386 27.4013 100.384 20.1292 104.869 15.6442C109.354 11.1592 116.628 11.1592 121.113 15.6442Z" fill="url(#paint27_linear)"/>
<path d="M35.4948 15.4974C29.4657 9.46831 19.6901 9.46831 13.661 15.4974C7.63188 21.5265 7.63188 31.3021 13.661 37.3312C19.6901 43.3604 29.4657 43.3604 35.4948 37.3312C41.5239 31.3021 41.5239 21.5265 35.4948 15.4974ZM17.6454 33.3468C13.8172 29.5186 13.8172 23.3101 17.6454 19.4818C21.4736 15.6536 27.6807 15.6551 31.5089 19.4833C35.3372 23.3115 35.3387 29.5186 31.5104 33.3468C27.6822 37.1751 21.4734 37.1751 17.6454 33.3468Z" fill="url(#paint28_linear)"/>
<path d="M15.4968 35.4954C20.5112 40.5098 28.6442 40.5098 33.6586 35.4954C38.6748 30.4793 38.673 22.3481 33.6586 17.3337C28.6424 12.3175 20.5127 12.3175 15.4968 17.3337C10.4824 22.3481 10.4806 30.4793 15.4968 35.4954ZM31.5104 19.4819C35.3386 23.3101 35.3386 29.5187 31.5104 33.3469C27.6821 37.1751 21.4751 37.1737 17.6468 33.3454C13.8186 29.5172 13.8171 23.3101 17.6454 19.4819C21.4736 15.6537 27.6821 15.6537 31.5104 19.4819Z" fill="url(#paint29_linear)"/>
<path d="M143.791 37.1062C143.647 38.1238 143.274 39.1121 142.697 40.068C140.47 42.2306 135.185 44.0103 127.924 45.4068C123.741 46.2115 118.903 45.1241 113.616 45.6744C109.377 46.1156 104.851 48.2397 100.143 48.5174C92.4141 48.9733 84.1965 49.2085 75.9618 49.2238C68.6676 49.2415 52.9323 46.3768 52.7853 44.9886C52.4059 41.415 54.8029 38.1709 59.0353 35.3562C59.5029 35.0474 59.9559 34.6886 60.3853 34.2827C61.3706 33.3562 62.2529 32.1856 62.9882 30.7915L63.1 30.5768C64.2382 28.4209 65.75 26.9503 67.4353 26.2444C68.8853 25.6385 70.4618 25.6033 72.0382 26.1915C72.3294 26.3003 72.6206 26.4297 72.9088 26.5827L72.9118 26.5856C75.2382 27.8033 77.65 27.6356 79.697 26.2062C80.4147 25.7062 81.0882 25.0474 81.6971 24.2415L81.9206 23.9444C84.5118 20.515 88.2382 19.8621 91.5971 22.2503L91.8529 22.4327C94.9382 24.6268 98.3559 24.268 100.915 21.4797L101.129 21.2444C103.915 18.2091 107.697 18.0709 110.944 20.8856L111.285 21.1797C114.215 23.718 117.6 23.8709 120.306 21.5856C121.585 20.5062 123.009 19.9738 124.459 19.9738C126.6 19.9738 128.8 21.1297 130.676 23.3768L130.885 23.6297C132.338 25.368 133.985 26.5915 135.703 27.2709C140.429 29.1385 143.45 31.8121 143.826 35.3856C143.888 35.968 143.876 36.5444 143.791 37.1062Z" fill="url(#paint30_linear)"/>
<path d="M75.2869 48.8836C75.4069 49.0345 75.438 49.0739 75.558 49.2245C83.9151 49.2165 92.2622 48.9815 100.107 48.5198C105.016 48.2306 109.728 46.6765 114.122 46.2098C119.213 45.6692 123.877 46.1859 127.926 45.4068C135.186 44.0104 140.47 42.2306 142.697 40.0683C143.273 39.1124 143.647 38.1242 143.791 37.1065C143.876 36.5448 143.888 35.9683 143.826 35.3859C143.812 35.2533 143.795 35.1221 143.773 34.9921C143.287 32.0112 140.73 29.8812 137.732 29.5198C136.33 29.3509 134.918 28.6933 133.598 27.5495L133.257 27.2554C130.01 24.4407 126.227 24.5789 123.442 27.6142L123.227 27.8495C120.668 30.6377 117.251 30.9965 114.165 28.8024L113.91 28.6201C110.551 26.2318 106.824 26.8848 104.233 30.3142L104.01 30.6112C103.401 31.4171 102.727 32.0759 102.01 32.5759C99.9625 34.0054 97.5507 34.173 95.2242 32.9554L95.2213 32.9524C94.9331 32.7995 94.6419 32.6701 94.3507 32.5612C92.7742 31.973 91.1978 32.0083 89.7478 32.6142C88.0625 33.3201 86.5507 34.7906 85.4125 36.9465L85.3007 37.1612C84.5654 38.5554 83.683 39.7259 82.6977 40.6524C82.2683 41.0583 81.8154 41.4171 81.3477 41.7259C78.1151 43.8756 75.958 46.2768 75.2869 48.8836Z" fill="url(#paint31_linear)"/>
<path d="M116.839 46.6895C111.603 47.3183 106.348 47.7477 100.119 48.5177C92.3979 48.9724 84.1885 49.2074 75.9618 49.2239C68.6676 49.2415 52.9323 46.3768 52.7853 44.9886C52.4059 41.415 54.8029 38.1709 59.0353 35.3562C59.5029 35.0474 59.9559 34.6886 60.3853 34.2827C61.3706 33.3562 62.2529 32.1856 62.9882 30.7915L63.1 30.5768C64.2382 28.4209 65.75 26.9503 67.4353 26.2445C68.8853 25.6386 70.4618 25.6033 72.0382 26.1915C72.3294 26.3003 72.6206 26.4297 72.9088 26.5827L72.9118 26.5856C75.2382 27.8033 77.65 27.6356 79.697 26.2062C80.4147 25.7062 81.0882 25.0474 81.6971 24.2415L81.9206 23.9444C84.5118 20.515 88.2382 19.8621 91.5971 22.2503L91.8529 22.4327C92.3941 22.818 92.9441 23.1239 93.5 23.3503L116.839 46.6895Z" fill="url(#paint32_linear)"/>
<path d="M93.9507 31.3365C90.9478 31.3365 88.5137 33.7707 88.5137 36.7736C88.5137 39.7765 90.9478 42.2107 93.9507 42.2107C96.9534 42.2107 99.3878 39.7765 99.3878 36.7736C99.3878 33.7707 96.9537 31.3365 93.9507 31.3365ZM93.9507 39.0815C92.676 39.0815 91.6428 38.0483 91.6428 36.7736C91.6428 35.4989 92.676 34.4657 93.9507 34.4657C95.2254 34.4657 96.2587 35.4989 96.2587 36.7736C96.2587 38.0483 95.2254 39.0815 93.9507 39.0815Z" fill="url(#paint33_linear)"/>
<path d="M122.625 33.3741C119.622 33.3741 117.188 35.8083 117.188 38.8112C117.188 41.8141 119.622 44.2483 122.625 44.2483C125.628 44.2483 128.062 41.8141 128.062 38.8112C128.062 35.8083 125.628 33.3741 122.625 33.3741ZM122.625 41.1191C121.351 41.1191 120.317 40.0859 120.317 38.8112C120.317 37.5365 121.351 36.5033 122.625 36.5033C123.9 36.5033 124.933 37.5365 124.933 38.8112C124.933 40.0859 123.9 41.1191 122.625 41.1191Z" fill="url(#paint34_linear)"/>
<path d="M92.6197 18.6168C93.113 18.3535 93.2995 17.7403 93.0362 17.2471C92.773 16.7538 92.1597 16.5674 91.6665 16.8306C91.1733 17.0938 90.9868 17.7071 91.25 18.2003C91.5133 18.6935 92.1265 18.88 92.6197 18.6168Z" fill="url(#paint35_linear)"/>
<path d="M89.6352 17.0982C89.4273 16.7088 88.9432 16.5614 88.5538 16.7694C88.1644 16.9773 88.017 17.4614 88.2249 17.8509C88.4329 18.2403 88.917 18.3876 89.3064 18.1797C89.6958 17.9717 89.8429 17.4876 89.6352 17.0982Z" fill="url(#paint36_linear)"/>
<path d="M88.0353 21.0452C87.91 20.8105 87.6183 20.7217 87.3833 20.847C87.1483 20.9723 87.0598 21.264 87.1851 21.499C87.3104 21.734 87.6021 21.8226 87.8371 21.6973C88.0718 21.5717 88.1606 21.2799 88.0353 21.0452Z" fill="url(#paint37_linear)"/>
<path d="M93.0228 26.0091C92.5681 25.6838 91.9357 25.7888 91.6104 26.2435C91.2851 26.6982 91.3901 27.3306 91.8448 27.6559C92.2995 27.9812 92.9319 27.8762 93.2572 27.4215C93.5825 26.9668 93.4775 26.3344 93.0228 26.0091Z" fill="url(#paint38_linear)"/>
<path d="M101.393 23.0123C101.034 22.7556 100.534 22.8382 100.278 23.1973C100.021 23.5564 100.104 24.0556 100.463 24.3123C100.822 24.5691 101.321 24.4864 101.578 24.1273C101.834 23.7682 101.752 23.2691 101.393 23.0123Z" fill="url(#paint39_linear)"/>
<path d="M95.0643 19.1156C94.8479 18.9606 94.547 19.0106 94.392 19.2271C94.2373 19.4436 94.287 19.7444 94.5034 19.8994C94.7199 20.0541 95.0208 20.0044 95.1758 19.788C95.3308 19.5715 95.2808 19.2706 95.0643 19.1156Z" fill="url(#paint40_linear)"/>
<path d="M91.4267 21.6702C91.0414 21.5211 90.6082 21.7129 90.459 22.0982C90.3099 22.4834 90.5017 22.9167 90.887 23.0658C91.2723 23.2149 91.7055 23.0232 91.8546 22.6379C92.0037 22.2523 91.812 21.819 91.4267 21.6702Z" fill="url(#paint41_linear)"/>
<path d="M93.2883 20.4059C92.9842 20.2882 92.6422 20.4397 92.5245 20.7438C92.4069 21.0479 92.5583 21.39 92.8625 21.5076C93.1666 21.6253 93.5086 21.4738 93.6263 21.1697C93.7439 20.8653 93.5925 20.5235 93.2883 20.4059Z" fill="url(#paint42_linear)"/>
<path d="M90.6514 20.0229C90.8349 20.0938 91.0411 20.0026 91.112 19.8191C91.1829 19.6356 91.0917 19.4294 90.9082 19.3585C90.7246 19.2876 90.5185 19.3788 90.4476 19.5623C90.3767 19.7459 90.4682 19.952 90.6514 20.0229Z" fill="url(#paint43_linear)"/>
<path d="M109.858 26.6223C110.351 26.359 110.537 25.7458 110.274 25.2526C110.011 24.7593 109.398 24.5729 108.905 24.8361C108.411 25.0993 108.225 25.7126 108.488 26.2058C108.751 26.699 109.365 26.8855 109.858 26.6223Z" fill="url(#paint44_linear)"/>
<path d="M100.928 31.1055C100.72 30.7161 100.236 30.5688 99.8465 30.7767C99.4571 30.9846 99.3097 31.4688 99.5177 31.8582C99.7256 32.2476 100.21 32.3949 100.599 32.187C100.989 31.9791 101.136 31.4949 100.928 31.1055Z" fill="url(#paint45_linear)"/>
<path d="M102.336 26.752C102.211 26.5173 101.919 26.4285 101.684 26.5538C101.45 26.6791 101.361 26.9708 101.486 27.2058C101.611 27.4405 101.903 27.5294 102.138 27.4041C102.373 27.2788 102.462 26.987 102.336 26.752Z" fill="url(#paint46_linear)"/>
<path d="M113.668 30.8358C113.213 30.5105 112.581 30.6155 112.255 31.0702C111.93 31.5249 112.035 32.1572 112.49 32.4825C112.945 32.8078 113.577 32.7028 113.902 32.2481C114.227 31.7934 114.123 31.1611 113.668 30.8358Z" fill="url(#paint47_linear)"/>
<path d="M114.33 29.6526C114.587 29.2935 114.504 28.7944 114.145 28.5376C113.786 28.2808 113.287 28.3635 113.03 28.7226C112.773 29.0817 112.856 29.5808 113.215 29.8376C113.574 30.0944 114.073 30.0114 114.33 29.6526Z" fill="url(#paint48_linear)"/>
<path d="M112.302 27.1212C112.086 26.9665 111.785 27.0162 111.63 27.2327C111.475 27.4492 111.525 27.75 111.741 27.905C111.958 28.0598 112.259 28.01 112.414 27.7936C112.569 27.5771 112.519 27.2762 112.302 27.1212Z" fill="url(#paint49_linear)"/>
<path d="M104.774 30.4826C104.389 30.3335 103.956 30.5252 103.807 30.9105C103.658 31.2958 103.849 31.7291 104.235 31.8782C104.62 32.0273 105.053 31.8355 105.202 31.4502C105.351 31.0649 105.16 30.6317 104.774 30.4826Z" fill="url(#paint50_linear)"/>
<path d="M110.526 28.4114C110.222 28.2937 109.88 28.4449 109.762 28.7493C109.645 29.0534 109.796 29.3955 110.1 29.5131C110.404 29.6308 110.746 29.4793 110.864 29.1752C110.981 28.8711 110.83 28.529 110.526 28.4114Z" fill="url(#paint51_linear)"/>
<path d="M107.889 28.0285C108.073 28.0994 108.279 28.0082 108.35 27.8247C108.421 27.6412 108.33 27.435 108.146 27.3641C107.962 27.2932 107.756 27.3844 107.685 27.568C107.615 27.7515 107.706 27.9577 107.889 28.0285Z" fill="url(#paint52_linear)"/>
<path d="M86.8962 44.4112C81.1792 50.1283 71.9212 50.1392 66.2177 44.4356C60.5142 38.7321 60.5253 29.4742 66.2421 23.7571C71.9589 18.04 85.5789 13.6674 91.2824 19.3709C96.9859 25.0744 92.6133 38.6942 86.8962 44.4112Z" fill="url(#paint53_linear)"/>
<path d="M65.6526 43.8359C70.8079 48.3856 79.1702 47.7273 84.6911 42.2062C90.1276 36.7697 94.7926 24.6344 90.8561 19.0762C90.7346 18.9044 90.5846 18.7535 90.4158 18.6279C84.3011 14.0882 71.6876 18.3118 66.2423 23.7571C60.7211 29.2779 60.5232 38.1006 65.6526 43.8359Z" fill="url(#paint54_linear)"/>
<path d="M73.7756 41.6286C78.3062 41.6286 81.9791 37.9558 81.9791 33.4251C81.9791 28.8944 78.3062 25.2216 73.7756 25.2216C69.2449 25.2216 65.572 28.8944 65.572 33.4251C65.572 37.9558 69.2449 41.6286 73.7756 41.6286Z" fill="url(#paint55_linear)"/>
<path d="M75.9618 49.2239C71.6473 49.2345 67.3285 49.183 63.0729 49.0713C62.0229 49.0436 60.977 46.9536 59.9356 46.9186C58.6968 46.8771 57.465 48.8892 56.2415 48.8371C55.6144 48.8107 54.9897 48.7827 54.3676 48.7533C29.1794 47.5592 8.06762 44.1268 6.36468 38.4533C6.31468 38.1239 6.28233 37.7915 6.26762 37.4621C6.20586 36.2621 6.36762 35.0621 6.77644 33.8739C8.02645 30.2415 11.1529 27.9562 15.4323 26.768C16.9853 26.3357 18.6265 25.3327 20.2529 23.7651L20.4264 23.5945C23.9588 20.1827 27.4088 20.0739 29.2617 23.3121V23.3151C30.847 26.0827 33.6147 26.4386 36.65 24.2651L36.9382 24.0592C40.2853 21.6621 43.2735 22.4004 44.6941 25.9739L44.8029 26.2474C44.9412 26.5915 45.0941 26.9121 45.2588 27.2033C46.6706 29.6915 49.0706 30.2504 51.8 28.6562L52.0559 28.5062C55.3765 26.568 58.1853 27.8268 59.347 31.7768L59.4676 32.1886C59.7059 33.0004 60.0147 33.7004 60.3853 34.2827C61.6353 36.2533 63.5823 36.868 65.8529 35.9151C66.5588 35.618 67.2323 35.4739 67.8618 35.4739C70.3029 35.4739 72.0882 37.6415 72.6265 41.4915L72.6735 41.8151C72.9853 44.0533 73.6618 45.8533 74.6206 47.1504C75.1294 47.8357 75.5765 48.5298 75.9618 49.2239Z" fill="url(#paint56_linear)"/>
<path d="M125.338 40.398C122.946 37.8971 119.343 36.6709 115.718 37.4765C110.771 38.5762 107.466 43.0868 107.722 47.9851C107.724 47.9848 107.727 47.9848 107.729 47.9845C107.778 47.9803 114.788 46.5656 118.094 46.1486C121.527 45.7153 125.032 45.9621 127.911 45.4086C128.605 45.2751 129.281 45.1383 129.938 44.9977L125.338 40.398Z" fill="url(#paint57_linear)"/>
<path d="M127.924 45.2432C126.699 39.728 121.234 36.2506 115.718 37.4765C110.771 38.5762 107.466 43.0868 107.722 47.985C115.334 47.36 122.252 46.4988 127.95 45.4012C127.942 45.3485 127.936 45.2962 127.924 45.2432Z" fill="url(#paint58_linear)"/>
<path d="M113.66 46.7051C113.66 42.8954 110.571 39.8069 106.761 39.8069C102.951 39.8069 99.863 42.8954 99.863 46.7051C99.863 47.3328 99.9486 47.9404 100.105 48.5184C104.831 48.2401 109.368 47.8781 113.621 47.4354C113.646 47.1951 113.66 46.9519 113.66 46.7051Z" fill="url(#paint59_linear)"/>
<path d="M58.1041 39.6554C55.41 36.9613 52.0503 35.6907 48.6114 35.0745C43.0335 34.0754 37.1432 35.4133 32.7735 39.783C30.7976 41.7589 29.1264 43.9504 28.2559 46.421C28.4691 46.4521 28.6885 46.4816 28.9038 46.5121C28.9035 46.5127 28.9032 46.5133 28.9032 46.5139C36.3212 47.5657 45.0656 48.3121 54.3676 48.7533C54.9841 48.7824 55.6032 48.8101 56.2244 48.8366C57.4662 48.8892 58.7167 47.466 59.9744 47.508C61.0003 47.5424 62.0309 49.0436 63.065 49.0707C64.572 49.1101 66.0867 49.1421 67.6067 49.1665L58.1041 39.6554Z" fill="url(#paint60_linear)"/>
<path d="M30.8685 31.3365C27.8655 31.3365 25.4314 33.7707 25.4314 36.7736C25.4314 39.7765 27.8655 42.2107 30.8685 42.2107C33.8711 42.2107 36.3055 39.7765 36.3055 36.7736C36.3055 33.7707 33.8714 31.3365 30.8685 31.3365ZM30.8685 39.0815C29.5938 39.0815 28.5605 38.0483 28.5605 36.7736C28.5605 35.4989 29.5938 34.4657 30.8685 34.4657C32.1432 34.4657 33.1764 35.4989 33.1764 36.7736C33.1764 38.0483 32.1432 39.0815 30.8685 39.0815Z" fill="url(#paint61_linear)"/>
<path d="M58.1041 39.6553C51.0406 32.5918 39.588 32.5918 32.5241 39.6553C30.5483 41.6312 29.1262 43.9506 28.2556 46.4209C30.4115 46.735 32.6836 47.023 35.053 47.2844C35.59 46.2168 36.3009 45.2144 37.1921 44.3233C41.6771 39.8383 48.9491 39.84 53.4341 44.325C54.7453 45.6362 55.7486 46.895 56.2933 48.5433C57.5247 48.5956 58.6862 48.9339 59.933 48.9756C60.9786 49.0106 62.0291 49.0421 63.0839 49.0697C62.4324 45.6209 60.7736 42.3247 58.1041 39.6553Z" fill="url(#paint62_linear)"/>
<path d="M55.9533 41.8065C50.0765 35.9297 40.5521 35.9297 34.6754 41.8065C33.1904 43.2915 32.0818 45.0103 31.3474 46.8442C32.5527 46.9986 33.7898 47.1453 35.0533 47.2847C35.5901 46.2171 36.3012 45.2147 37.1924 44.3236C41.6774 39.8386 48.9512 39.8386 53.4362 44.3236C54.7477 45.635 55.6727 47.1856 56.2171 48.8344C57.4554 48.8871 58.7006 48.9353 59.9548 48.9774C59.3348 46.3495 58.0024 43.8556 55.9533 41.8065Z" fill="url(#paint63_linear)"/>
<path d="M48.0657 17.5901C48.2578 17.0651 47.9881 16.4836 47.4628 16.2913C46.9378 16.0992 46.3563 16.3689 46.164 16.8942C45.9719 17.4192 46.2416 18.0007 46.7669 18.1927C47.2922 18.3851 47.8737 18.1154 48.0657 17.5901Z" fill="url(#paint64_linear)"/>
<path d="M44.8288 18.4483C44.4144 18.2966 43.9553 18.5098 43.8036 18.9242C43.6518 19.3386 43.865 19.7977 44.2794 19.9495C44.6938 20.1013 45.153 19.888 45.3047 19.4736C45.4565 19.0589 45.2433 18.5998 44.8288 18.4483Z" fill="url(#paint65_linear)"/>
<path d="M46.2681 22.4566C46.0181 22.3651 45.7413 22.4937 45.6498 22.7437C45.5584 22.9937 45.6869 23.2704 45.9366 23.3619C46.1863 23.4534 46.4634 23.3248 46.5548 23.0751C46.6463 22.8248 46.5178 22.5481 46.2681 22.4566Z" fill="url(#paint66_linear)"/>
<path d="M53.2947 22.8313C52.7388 22.8919 52.3373 23.3919 52.3982 23.9478C52.4588 24.5037 52.9588 24.9051 53.5147 24.8442C54.0705 24.7837 54.472 24.2837 54.4111 23.7278C54.3503 23.1719 53.8505 22.7704 53.2947 22.8313Z" fill="url(#paint67_linear)"/>
<path d="M57.535 15.0171C57.0961 15.0651 56.7794 15.4595 56.8273 15.8983C56.8752 16.3371 57.2697 16.6539 57.7085 16.6059C58.1473 16.558 58.4641 16.1633 58.4161 15.7248C58.3682 15.2862 57.9738 14.9692 57.535 15.0171Z" fill="url(#paint68_linear)"/>
<path d="M50.2207 16.3322C49.956 16.361 49.7651 16.599 49.7939 16.8637C49.8227 17.1281 50.0607 17.3193 50.3254 17.2905C50.5898 17.2616 50.781 17.0237 50.7521 16.759C50.723 16.4943 50.4851 16.3034 50.2207 16.3322Z" fill="url(#paint69_linear)"/>
<path d="M49.2129 20.6613C48.8264 20.8072 48.6311 21.2389 48.7773 21.6254C48.9232 22.0119 49.3549 22.2072 49.7414 22.0613C50.1279 21.9154 50.3232 21.4836 50.1773 21.0972C50.0314 20.7107 49.5993 20.5154 49.2129 20.6613Z" fill="url(#paint70_linear)"/>
<path d="M49.7568 18.4778C49.4515 18.5931 49.2976 18.9337 49.4126 19.239C49.5279 19.5443 49.8685 19.6981 50.1738 19.5831C50.4791 19.4678 50.6329 19.1272 50.5179 18.8219C50.4029 18.5167 50.0621 18.3628 49.7568 18.4778Z" fill="url(#paint71_linear)"/>
<path d="M47.5361 19.9507C47.7202 19.8813 47.8128 19.6757 47.7434 19.4919C47.674 19.3078 47.4684 19.2151 47.2846 19.2845C47.1005 19.3539 47.0078 19.5595 47.0772 19.7433C47.1467 19.9272 47.352 20.0201 47.5361 19.9507Z" fill="url(#paint72_linear)"/>
<path d="M66.251 12.0642C66.4431 11.5392 66.1734 10.9578 65.6481 10.7654C65.1231 10.5733 64.5416 10.843 64.3493 11.3683C64.1572 11.8933 64.4269 12.4748 64.9522 12.6672C65.4775 12.8592 66.059 12.5895 66.251 12.0642Z" fill="url(#paint73_linear)"/>
<path d="M62.5847 21.3588C62.1703 21.2071 61.7112 21.4203 61.5594 21.8347C61.4076 22.2491 61.6209 22.7083 62.0353 22.86C62.4497 23.0118 62.9088 22.7986 63.0606 22.3841C63.2121 21.9697 62.9991 21.5106 62.5847 21.3588Z" fill="url(#paint74_linear)"/>
<path d="M60.7317 17.1757C60.4817 17.0842 60.2049 17.2128 60.1135 17.4628C60.022 17.7128 60.1505 17.9895 60.4002 18.0807C60.6502 18.1722 60.927 18.0437 61.0185 17.7939C61.1099 17.5437 60.9814 17.2669 60.7317 17.1757Z" fill="url(#paint75_linear)"/>
<path d="M71.9001 12.6646C71.3442 12.7251 70.9428 13.2251 71.0037 13.781C71.0643 14.3369 71.5642 14.7384 72.1201 14.6775C72.676 14.6169 73.0775 14.1169 73.0166 13.561C72.9557 13.0051 72.456 12.6037 71.9001 12.6646Z" fill="url(#paint76_linear)"/>
<path d="M71.6044 11.341C71.5564 10.9022 71.1617 10.5854 70.7232 10.6333C70.2844 10.6813 69.9676 11.0757 70.0155 11.5145C70.0635 11.9533 70.4579 12.2701 70.8967 12.2222C71.3355 12.1745 71.6523 11.7798 71.6044 11.341Z" fill="url(#paint77_linear)"/>
<path d="M68.4057 10.8063C68.1413 10.8352 67.9501 11.0731 67.9789 11.3378C68.0078 11.6022 68.2457 11.7934 68.5104 11.7646C68.7748 11.7358 68.966 11.4978 68.9372 11.2331C68.9081 10.9684 68.6704 10.7775 68.4057 10.8063Z" fill="url(#paint78_linear)"/>
<path d="M65.036 18.3305C64.6495 18.4764 64.4542 18.9081 64.6001 19.2946C64.746 19.6811 65.1778 19.8764 65.5642 19.7305C65.9507 19.5846 66.146 19.1528 65.9998 18.7663C65.8542 18.3799 65.4225 18.1846 65.036 18.3305Z" fill="url(#paint79_linear)"/>
<path d="M67.9423 12.9522C67.637 13.0675 67.4832 13.4081 67.5982 13.7134C67.7135 14.0187 68.0541 14.1725 68.3594 14.0575C68.6647 13.9422 68.8185 13.6016 68.7035 13.2963C68.5882 12.991 68.2473 12.8369 67.9423 12.9522Z" fill="url(#paint80_linear)"/>
<path d="M65.7211 14.4248C65.9052 14.3554 65.9979 14.1498 65.9285 13.966C65.8591 13.7819 65.6535 13.6892 65.4697 13.7586C65.2855 13.8281 65.1929 14.0336 65.2623 14.2175C65.3317 14.4013 65.5373 14.4942 65.7211 14.4248Z" fill="url(#paint81_linear)"/>
<defs>
<linearGradient id="paint0_linear" x1="75.3675" y1="85.7489" x2="75.9166" y2="94.8083" gradientUnits="userSpaceOnUse">
<stop stop-color="#F8F6FB"/>
<stop offset="1" stop-color="#EFDCFB"/>
</linearGradient>
<linearGradient id="paint1_linear" x1="63.5971" y1="26.2797" x2="103.684" y2="86.0006" gradientUnits="userSpaceOnUse">
<stop stop-color="#F8F6FB"/>
<stop offset="1" stop-color="#EFDCFB"/>
</linearGradient>
<linearGradient id="paint2_linear" x1="65.9477" y1="0.922367" x2="76.5359" y2="43.6677" gradientUnits="userSpaceOnUse">
<stop stop-color="#F8F6FB"/>
<stop offset="1" stop-color="#EFDCFB"/>
</linearGradient>
<linearGradient id="paint3_linear" x1="77.0609" y1="1.91034" x2="77.0609" y2="22.8062" gradientUnits="userSpaceOnUse">
<stop stop-color="#BADA00"/>
<stop offset="0.2269" stop-color="#B0CE00"/>
<stop offset="0.6378" stop-color="#95AE00"/>
<stop offset="1" stop-color="#798C00"/>
</linearGradient>
<linearGradient id="paint4_linear" x1="110.021" y1="14.5185" x2="113.256" y2="20.9891" gradientUnits="userSpaceOnUse">
<stop stop-color="#8A7889"/>
<stop offset="0.3344" stop-color="#867385"/>
<stop offset="0.7039" stop-color="#7B667B"/>
<stop offset="1" stop-color="#6E566E"/>
</linearGradient>
<linearGradient id="paint5_linear" x1="68.162" y1="4.0809" x2="71.3973" y2="10.5515" gradientUnits="userSpaceOnUse">
<stop stop-color="#8A7889"/>
<stop offset="0.3344" stop-color="#867385"/>
<stop offset="0.7039" stop-color="#7B667B"/>
<stop offset="1" stop-color="#6E566E"/>
</linearGradient>
<linearGradient id="paint6_linear" x1="102.697" y1="14.3824" x2="102.697" y2="25.2619" gradientUnits="userSpaceOnUse">
<stop stop-color="#F8F6FB"/>
<stop offset="1" stop-color="#EFDCFB"/>
</linearGradient>
<linearGradient id="paint7_linear" x1="69.1093" y1="31.0138" x2="63.5864" y2="-1.44499" gradientUnits="userSpaceOnUse">
<stop stop-color="#798C00" stop-opacity="0"/>
<stop offset="0.6542" stop-color="#556100" stop-opacity="0.654"/>
<stop offset="1" stop-color="#464F00"/>
</linearGradient>
<linearGradient id="paint8_linear" x1="75.0589" y1="67.1462" x2="75.0589" y2="-39.2109" gradientUnits="userSpaceOnUse">
<stop stop-color="#EFDCFB" stop-opacity="0"/>
<stop offset="0.0287" stop-color="#E9D6F7" stop-opacity="0.029"/>
<stop offset="0.2203" stop-color="#C5B5DE" stop-opacity="0.22"/>
<stop offset="0.4138" stop-color="#AA9BCB" stop-opacity="0.414"/>
<stop offset="0.6078" stop-color="#9688BD" stop-opacity="0.608"/>
<stop offset="0.8028" stop-color="#8A7DB5" stop-opacity="0.803"/>
<stop offset="1" stop-color="#8679B2"/>
</linearGradient>
<linearGradient id="paint9_linear" x1="99.9807" y1="69.7033" x2="112.15" y2="77.8159" gradientUnits="userSpaceOnUse">
<stop stop-color="#FF6359"/>
<stop offset="0.2243" stop-color="#FE5B50"/>
<stop offset="0.5952" stop-color="#FC4637"/>
<stop offset="1" stop-color="#F82814"/>
</linearGradient>
<linearGradient id="paint10_linear" x1="97.1591" y1="26.7685" x2="99.1123" y2="49.6244" gradientUnits="userSpaceOnUse">
<stop stop-color="#BADA00"/>
<stop offset="0.2269" stop-color="#B0CE00"/>
<stop offset="0.6378" stop-color="#95AE00"/>
<stop offset="1" stop-color="#798C00"/>
</linearGradient>
<linearGradient id="paint11_linear" x1="61.1628" y1="3.71496" x2="53.9593" y2="24.7374" gradientUnits="userSpaceOnUse">
<stop stop-color="#FFD945"/>
<stop offset="0.3126" stop-color="#FFD643"/>
<stop offset="0.5593" stop-color="#FFCC3D"/>
<stop offset="0.7826" stop-color="#FFBB33"/>
<stop offset="0.9922" stop-color="#FFA426"/>
<stop offset="1" stop-color="#FFA325"/>
</linearGradient>
<linearGradient id="paint12_linear" x1="51.394" y1="32.3437" x2="57.386" y2="14.8567" gradientUnits="userSpaceOnUse">
<stop stop-color="#FFD945"/>
<stop offset="0.3126" stop-color="#FFD643"/>
<stop offset="0.5593" stop-color="#FFCC3D"/>
<stop offset="0.7826" stop-color="#FFBB33"/>
<stop offset="0.9922" stop-color="#FFA426"/>
<stop offset="1" stop-color="#FFA325"/>
</linearGradient>
<linearGradient id="paint13_linear" x1="121.669" y1="13.4021" x2="129.487" y2="29.3698" gradientUnits="userSpaceOnUse">
<stop stop-color="#FF6359"/>
<stop offset="0.2243" stop-color="#FE5B50"/>
<stop offset="0.5952" stop-color="#FC4637"/>
<stop offset="1" stop-color="#F82814"/>
</linearGradient>
<linearGradient id="paint14_linear" x1="141.657" y1="39.43" x2="123.122" y2="20.895" gradientUnits="userSpaceOnUse">
<stop stop-color="#FF6359"/>
<stop offset="0.2243" stop-color="#FE5B50"/>
<stop offset="0.5952" stop-color="#FC4637"/>
<stop offset="1" stop-color="#F82814"/>
</linearGradient>
<linearGradient id="paint15_linear" x1="87.1416" y1="6.45741" x2="83.5838" y2="12.0967" gradientUnits="userSpaceOnUse">
<stop stop-color="#FF6359"/>
<stop offset="0.2243" stop-color="#FE5B50"/>
<stop offset="0.5952" stop-color="#FC4637"/>
<stop offset="1" stop-color="#F82814"/>
</linearGradient>
<linearGradient id="paint16_linear" x1="79.3769" y1="11.4768" x2="77.6835" y2="14.1609" gradientUnits="userSpaceOnUse">
<stop stop-color="#FF6359"/>
<stop offset="0.2243" stop-color="#FE5B50"/>
<stop offset="0.5952" stop-color="#FC4637"/>
<stop offset="1" stop-color="#F82814"/>
</linearGradient>
<linearGradient id="paint17_linear" x1="88.1285" y1="11.415" x2="86.4351" y2="14.0991" gradientUnits="userSpaceOnUse">
<stop stop-color="#FF6359"/>
<stop offset="0.2243" stop-color="#FE5B50"/>
<stop offset="0.5952" stop-color="#FC4637"/>
<stop offset="1" stop-color="#F82814"/>
</linearGradient>
<linearGradient id="paint18_linear" x1="93.5404" y1="8.81448" x2="91.8471" y2="11.4989" gradientUnits="userSpaceOnUse">
<stop stop-color="#FF6359"/>
<stop offset="0.2243" stop-color="#FE5B50"/>
<stop offset="0.5952" stop-color="#FC4637"/>
<stop offset="1" stop-color="#F82814"/>
</linearGradient>
<linearGradient id="paint19_linear" x1="79.9541" y1="13.5666" x2="77.3249" y2="17.7345" gradientUnits="userSpaceOnUse">
<stop stop-color="#FF6359"/>
<stop offset="0.2243" stop-color="#FE5B50"/>
<stop offset="0.5952" stop-color="#FC4637"/>
<stop offset="1" stop-color="#F82814"/>
</linearGradient>
<linearGradient id="paint20_linear" x1="83.3451" y1="9.18394" x2="81.2696" y2="12.4739" gradientUnits="userSpaceOnUse">
<stop stop-color="#FF6359"/>
<stop offset="0.2243" stop-color="#FE5B50"/>
<stop offset="0.5952" stop-color="#FC4637"/>
<stop offset="1" stop-color="#F82814"/>
</linearGradient>
<linearGradient id="paint21_linear" x1="90.6417" y1="6.24334" x2="88.5658" y2="9.53344" gradientUnits="userSpaceOnUse">
<stop stop-color="#FF6359"/>
<stop offset="0.2243" stop-color="#FE5B50"/>
<stop offset="0.5952" stop-color="#FC4637"/>
<stop offset="1" stop-color="#F82814"/>
</linearGradient>
<linearGradient id="paint22_linear" x1="85.1973" y1="10.8381" x2="83.9459" y2="12.8219" gradientUnits="userSpaceOnUse">
<stop stop-color="#FF6359"/>
<stop offset="0.2243" stop-color="#FE5B50"/>
<stop offset="0.5952" stop-color="#FC4637"/>
<stop offset="1" stop-color="#F82814"/>
</linearGradient>
<linearGradient id="paint23_linear" x1="83.4155" y1="11.0245" x2="77.2629" y2="28.9798" gradientUnits="userSpaceOnUse">
<stop stop-color="#FFD945"/>
<stop offset="0.3126" stop-color="#FFD643"/>
<stop offset="0.5593" stop-color="#FFCC3D"/>
<stop offset="0.7826" stop-color="#FFBB33"/>
<stop offset="0.9922" stop-color="#FFA426"/>
<stop offset="1" stop-color="#FFA325"/>
</linearGradient>
<linearGradient id="paint24_linear" x1="75.0736" y1="35.4887" x2="80.1912" y2="20.5534" gradientUnits="userSpaceOnUse">
<stop stop-color="#FFD945"/>
<stop offset="0.3126" stop-color="#FFD643"/>
<stop offset="0.5593" stop-color="#FFCC3D"/>
<stop offset="0.7826" stop-color="#FFBB33"/>
<stop offset="0.9922" stop-color="#FFA426"/>
<stop offset="1" stop-color="#FFA325"/>
</linearGradient>
<linearGradient id="paint25_linear" x1="42.6072" y1="14.0665" x2="45.8365" y2="31.4075" gradientUnits="userSpaceOnUse">
<stop stop-color="#FF6359"/>
<stop offset="0.2243" stop-color="#FE5B50"/>
<stop offset="0.5952" stop-color="#FC4637"/>
<stop offset="1" stop-color="#F82814"/>
</linearGradient>
<linearGradient id="paint26_linear" x1="118.349" y1="8.16306" x2="111.145" y2="29.1855" gradientUnits="userSpaceOnUse">
<stop stop-color="#FFDECF"/>
<stop offset="0.3791" stop-color="#FDC4B0"/>
<stop offset="0.7655" stop-color="#FBAE97"/>
<stop offset="1" stop-color="#FAA68E"/>
</linearGradient>
<linearGradient id="paint27_linear" x1="108.58" y1="36.7917" x2="114.572" y2="19.3046" gradientUnits="userSpaceOnUse">
<stop stop-color="#FFDECF"/>
<stop offset="0.3791" stop-color="#FDC4B0"/>
<stop offset="0.7655" stop-color="#FBAE97"/>
<stop offset="1" stop-color="#FAA68E"/>
</linearGradient>
<linearGradient id="paint28_linear" x1="29.1674" y1="13.0925" x2="23.0188" y2="31.0364" gradientUnits="userSpaceOnUse">
<stop stop-color="#FFDECF"/>
<stop offset="0.3791" stop-color="#FDC4B0"/>
<stop offset="0.7655" stop-color="#FBAE97"/>
<stop offset="1" stop-color="#FAA68E"/>
</linearGradient>
<linearGradient id="paint29_linear" x1="20.8304" y1="37.5415" x2="25.9449" y2="22.6155" gradientUnits="userSpaceOnUse">
<stop stop-color="#FFDECF"/>
<stop offset="0.3791" stop-color="#FDC4B0"/>
<stop offset="0.7655" stop-color="#FBAE97"/>
<stop offset="1" stop-color="#FAA68E"/>
</linearGradient>
<linearGradient id="paint30_linear" x1="97.1588" y1="26.768" x2="99.1123" y2="49.6218" gradientUnits="userSpaceOnUse">
<stop stop-color="#BADA00"/>
<stop offset="0.2269" stop-color="#B0CE00"/>
<stop offset="0.6378" stop-color="#95AE00"/>
<stop offset="1" stop-color="#798C00"/>
</linearGradient>
<linearGradient id="paint31_linear" x1="109.474" y1="38.2748" x2="108.592" y2="2.00036" gradientUnits="userSpaceOnUse">
<stop stop-color="#798C00" stop-opacity="0"/>
<stop offset="0.6542" stop-color="#556100" stop-opacity="0.654"/>
<stop offset="1" stop-color="#464F00"/>
</linearGradient>
<linearGradient id="paint32_linear" x1="96.1374" y1="52.2627" x2="66.4094" y2="28.9468" gradientUnits="userSpaceOnUse">
<stop stop-color="#798C00" stop-opacity="0"/>
<stop offset="0.6542" stop-color="#556100" stop-opacity="0.654"/>
<stop offset="1" stop-color="#464F00"/>
</linearGradient>
<linearGradient id="paint33_linear" x1="91.1151" y1="31.1021" x2="94.3504" y2="37.5727" gradientUnits="userSpaceOnUse">
<stop stop-color="#8A7889"/>
<stop offset="0.3344" stop-color="#867385"/>
<stop offset="0.7039" stop-color="#7B667B"/>
<stop offset="1" stop-color="#6E566E"/>
</linearGradient>
<linearGradient id="paint34_linear" x1="119.79" y1="33.1397" x2="123.025" y2="39.6103" gradientUnits="userSpaceOnUse">
<stop stop-color="#8A7889"/>
<stop offset="0.3344" stop-color="#867385"/>
<stop offset="0.7039" stop-color="#7B667B"/>
<stop offset="1" stop-color="#6E566E"/>
</linearGradient>
<linearGradient id="paint35_linear" x1="92.0907" y1="16.1114" x2="91.587" y2="20.8768" gradientUnits="userSpaceOnUse">
<stop stop-color="#FFDECF"/>
<stop offset="0.3791" stop-color="#FDC4B0"/>
<stop offset="0.7655" stop-color="#FBAE97"/>
<stop offset="1" stop-color="#FAA68E"/>
</linearGradient>
<linearGradient id="paint36_linear" x1="88.8438" y1="16.1834" x2="88.4459" y2="19.9453" gradientUnits="userSpaceOnUse">
<stop stop-color="#FFDECF"/>
<stop offset="0.3791" stop-color="#FDC4B0"/>
<stop offset="0.7655" stop-color="#FBAE97"/>
<stop offset="1" stop-color="#FAA68E"/>
</linearGradient>
<linearGradient id="paint37_linear" x1="87.4716" y1="20.4606" x2="87.2317" y2="22.7289" gradientUnits="userSpaceOnUse">
<stop stop-color="#FFDECF"/>
<stop offset="0.3791" stop-color="#FDC4B0"/>
<stop offset="0.7655" stop-color="#FBAE97"/>
<stop offset="1" stop-color="#FAA68E"/>
</linearGradient>
<linearGradient id="paint38_linear" x1="92.3773" y1="25.2199" x2="91.8735" y2="29.9855" gradientUnits="userSpaceOnUse">
<stop stop-color="#FFDECF"/>
<stop offset="0.3791" stop-color="#FDC4B0"/>
<stop offset="0.7655" stop-color="#FBAE97"/>
<stop offset="1" stop-color="#FAA68E"/>
</linearGradient>
<linearGradient id="paint39_linear" x1="100.838" y1="22.376" x2="100.441" y2="26.1383" gradientUnits="userSpaceOnUse">
<stop stop-color="#FFDECF"/>
<stop offset="0.3791" stop-color="#FDC4B0"/>
<stop offset="0.7655" stop-color="#FBAE97"/>
<stop offset="1" stop-color="#FAA68E"/>
</linearGradient>
<linearGradient id="paint40_linear" x1="94.6458" y1="18.6995" x2="94.406" y2="20.9678" gradientUnits="userSpaceOnUse">
<stop stop-color="#FFDECF"/>
<stop offset="0.3791" stop-color="#FDC4B0"/>
<stop offset="0.7655" stop-color="#FBAE97"/>
<stop offset="1" stop-color="#FAA68E"/>
</linearGradient>
<linearGradient id="paint41_linear" x1="91.0603" y1="21.1549" x2="90.6879" y2="24.6766" gradientUnits="userSpaceOnUse">
<stop stop-color="#FFDECF"/>
<stop offset="0.3791" stop-color="#FDC4B0"/>
<stop offset="0.7655" stop-color="#FBAE97"/>
<stop offset="1" stop-color="#FAA68E"/>
</linearGradient>
<linearGradient id="paint42_linear" x1="92.954" y1="19.9831" x2="92.66" y2="22.7634" gradientUnits="userSpaceOnUse">
<stop stop-color="#FFDECF"/>
<stop offset="0.3791" stop-color="#FDC4B0"/>
<stop offset="0.7655" stop-color="#FBAE97"/>
<stop offset="1" stop-color="#FAA68E"/>
</linearGradient>
<linearGradient id="paint43_linear" x1="90.6215" y1="19.0714" x2="90.4443" y2="20.7476" gradientUnits="userSpaceOnUse">
<stop stop-color="#FFDECF"/>
<stop offset="0.3791" stop-color="#FDC4B0"/>
<stop offset="0.7655" stop-color="#FBAE97"/>
<stop offset="1" stop-color="#FAA68E"/>
</linearGradient>
<linearGradient id="paint44_linear" x1="109.324" y1="24.1239" x2="108.821" y2="28.8893" gradientUnits="userSpaceOnUse">
<stop stop-color="#FFDECF"/>
<stop offset="0.3791" stop-color="#FDC4B0"/>
<stop offset="0.7655" stop-color="#FBAE97"/>
<stop offset="1" stop-color="#FAA68E"/>
</linearGradient>
<linearGradient id="paint45_linear" x1="100.13" y1="30.195" x2="99.7323" y2="33.9571" gradientUnits="userSpaceOnUse">
<stop stop-color="#FFDECF"/>
<stop offset="0.3791" stop-color="#FDC4B0"/>
<stop offset="0.7655" stop-color="#FBAE97"/>
<stop offset="1" stop-color="#FAA68E"/>
</linearGradient>
<linearGradient id="paint46_linear" x1="101.77" y1="26.1738" x2="101.53" y2="28.4417" gradientUnits="userSpaceOnUse">
<stop stop-color="#FFDECF"/>
<stop offset="0.3791" stop-color="#FDC4B0"/>
<stop offset="0.7655" stop-color="#FBAE97"/>
<stop offset="1" stop-color="#FAA68E"/>
</linearGradient>
<linearGradient id="paint47_linear" x1="113.02" y1="30.0553" x2="112.516" y2="34.8209" gradientUnits="userSpaceOnUse">
<stop stop-color="#FFDECF"/>
<stop offset="0.3791" stop-color="#FDC4B0"/>
<stop offset="0.7655" stop-color="#FBAE97"/>
<stop offset="1" stop-color="#FAA68E"/>
</linearGradient>
<linearGradient id="paint48_linear" x1="113.587" y1="27.9064" x2="113.19" y2="31.6688" gradientUnits="userSpaceOnUse">
<stop stop-color="#FFDECF"/>
<stop offset="0.3791" stop-color="#FDC4B0"/>
<stop offset="0.7655" stop-color="#FBAE97"/>
<stop offset="1" stop-color="#FAA68E"/>
</linearGradient>
<linearGradient id="paint49_linear" x1="111.88" y1="26.7122" x2="111.64" y2="28.9805" gradientUnits="userSpaceOnUse">
<stop stop-color="#FFDECF"/>
<stop offset="0.3791" stop-color="#FDC4B0"/>
<stop offset="0.7655" stop-color="#FBAE97"/>
<stop offset="1" stop-color="#FAA68E"/>
</linearGradient>
<linearGradient id="paint50_linear" x1="104.403" y1="29.9729" x2="104.031" y2="33.4946" gradientUnits="userSpaceOnUse">
<stop stop-color="#FFDECF"/>
<stop offset="0.3791" stop-color="#FDC4B0"/>
<stop offset="0.7655" stop-color="#FBAE97"/>
<stop offset="1" stop-color="#FAA68E"/>
</linearGradient>
<linearGradient id="paint51_linear" x1="110.187" y1="27.9956" x2="109.893" y2="30.776" gradientUnits="userSpaceOnUse">
<stop stop-color="#FFDECF"/>
<stop offset="0.3791" stop-color="#FDC4B0"/>
<stop offset="0.7655" stop-color="#FBAE97"/>
<stop offset="1" stop-color="#FAA68E"/>
</linearGradient>
<linearGradient id="paint52_linear" x1="107.855" y1="27.084" x2="107.678" y2="28.7603" gradientUnits="userSpaceOnUse">
<stop stop-color="#FFDECF"/>
<stop offset="0.3791" stop-color="#FDC4B0"/>
<stop offset="0.7655" stop-color="#FBAE97"/>
<stop offset="1" stop-color="#FAA68E"/>
</linearGradient>
<linearGradient id="paint53_linear" x1="78.3418" y1="31.8094" x2="83.8933" y2="49.3409" gradientUnits="userSpaceOnUse">
<stop stop-color="#F8F6FB"/>
<stop offset="1" stop-color="#EFDCFB"/>
</linearGradient>
<linearGradient id="paint54_linear" x1="77.782" y1="32.4532" x2="93.0732" y2="104.526" gradientUnits="userSpaceOnUse">
<stop stop-color="#EFDCFB" stop-opacity="0"/>
<stop offset="0.0287" stop-color="#E9D6F7" stop-opacity="0.029"/>
<stop offset="0.2203" stop-color="#C5B5DE" stop-opacity="0.22"/>
<stop offset="0.4138" stop-color="#AA9BCB" stop-opacity="0.414"/>
<stop offset="0.6078" stop-color="#9688BD" stop-opacity="0.608"/>
<stop offset="0.8028" stop-color="#8A7DB5" stop-opacity="0.803"/>
<stop offset="1" stop-color="#8679B2"/>
</linearGradient>
<linearGradient id="paint55_linear" x1="68.8123" y1="28.3116" x2="81.6688" y2="41.5574" gradientUnits="userSpaceOnUse">
<stop stop-color="#FFD945"/>
<stop offset="0.3126" stop-color="#FFD643"/>
<stop offset="0.5593" stop-color="#FFCC3D"/>
<stop offset="0.7826" stop-color="#FFBB33"/>
<stop offset="0.9922" stop-color="#FFA426"/>
<stop offset="1" stop-color="#FFA325"/>
</linearGradient>
<linearGradient id="paint56_linear" x1="41.2712" y1="35.9633" x2="40.8788" y2="53.0221" gradientUnits="userSpaceOnUse">
<stop stop-color="#BADA00"/>
<stop offset="0.2269" stop-color="#B0CE00"/>
<stop offset="0.6378" stop-color="#95AE00"/>
<stop offset="1" stop-color="#798C00"/>
</linearGradient>
<linearGradient id="paint57_linear" x1="127.841" y1="55.5003" x2="113.085" y2="40.7448" gradientUnits="userSpaceOnUse">
<stop stop-color="#798C00" stop-opacity="0"/>
<stop offset="0.6542" stop-color="#556100" stop-opacity="0.654"/>
<stop offset="1" stop-color="#464F00"/>
</linearGradient>
<linearGradient id="paint58_linear" x1="114.062" y1="38.6044" x2="117.514" y2="45.6568" gradientUnits="userSpaceOnUse">
<stop stop-color="#FF6359"/>
<stop offset="0.2243" stop-color="#FE5B50"/>
<stop offset="0.5952" stop-color="#FC4637"/>
<stop offset="1" stop-color="#F82814"/>
</linearGradient>
<linearGradient id="paint59_linear" x1="105.203" y1="42.3434" x2="107.738" y2="49.3839" gradientUnits="userSpaceOnUse">
<stop stop-color="#FFA936"/>
<stop offset="0.4112" stop-color="#FF8548"/>
<stop offset="0.7781" stop-color="#FF6C54"/>
<stop offset="1" stop-color="#FF6359"/>
</linearGradient>
<linearGradient id="paint60_linear" x1="47.922" y1="49.4121" x2="47.9935" y2="36.8986" gradientUnits="userSpaceOnUse">
<stop stop-color="#798C00" stop-opacity="0"/>
<stop offset="0.6542" stop-color="#556100" stop-opacity="0.654"/>
<stop offset="1" stop-color="#464F00"/>
</linearGradient>
<linearGradient id="paint61_linear" x1="28.0329" y1="31.1021" x2="31.2682" y2="37.5727" gradientUnits="userSpaceOnUse">
<stop stop-color="#8A7889"/>
<stop offset="0.3344" stop-color="#867385"/>
<stop offset="0.7039" stop-color="#7B667B"/>
<stop offset="1" stop-color="#6E566E"/>
</linearGradient>
<linearGradient id="paint62_linear" x1="40.2427" y1="35.923" x2="46.4209" y2="48.5427" gradientUnits="userSpaceOnUse">
<stop stop-color="#FFDECF"/>
<stop offset="0.3791" stop-color="#FDC4B0"/>
<stop offset="0.7655" stop-color="#FBAE97"/>
<stop offset="1" stop-color="#FAA68E"/>
</linearGradient>
<linearGradient id="paint63_linear" x1="50.0589" y1="50.7336" x2="34.5212" y2="35.1962" gradientUnits="userSpaceOnUse">
<stop stop-color="#FFDECF"/>
<stop offset="0.3791" stop-color="#FDC4B0"/>
<stop offset="0.7655" stop-color="#FBAE97"/>
<stop offset="1" stop-color="#FAA68E"/>
</linearGradient>
<linearGradient id="paint64_linear" x1="46.2134" y1="15.9922" x2="49.0169" y2="19.8786" gradientUnits="userSpaceOnUse">
<stop stop-color="#FFDECF"/>
<stop offset="0.3791" stop-color="#FDC4B0"/>
<stop offset="0.7655" stop-color="#FBAE97"/>
<stop offset="1" stop-color="#FAA68E"/>
</linearGradient>
<linearGradient id="paint65_linear" x1="43.8424" y1="18.2119" x2="46.0553" y2="21.2801" gradientUnits="userSpaceOnUse">
<stop stop-color="#FFDECF"/>
<stop offset="0.3791" stop-color="#FDC4B0"/>
<stop offset="0.7655" stop-color="#FBAE97"/>
<stop offset="1" stop-color="#FAA68E"/>
</linearGradient>
<linearGradient id="paint66_linear" x1="45.6731" y1="22.3142" x2="47.0075" y2="24.164" gradientUnits="userSpaceOnUse">
<stop stop-color="#FFDECF"/>
<stop offset="0.3791" stop-color="#FDC4B0"/>
<stop offset="0.7655" stop-color="#FBAE97"/>
<stop offset="1" stop-color="#FAA68E"/>
</linearGradient>
<linearGradient id="paint67_linear" x1="52.5029" y1="22.5875" x2="55.3064" y2="26.4742" gradientUnits="userSpaceOnUse">
<stop stop-color="#FFDECF"/>
<stop offset="0.3791" stop-color="#FDC4B0"/>
<stop offset="0.7655" stop-color="#FBAE97"/>
<stop offset="1" stop-color="#FAA68E"/>
</linearGradient>
<linearGradient id="paint68_linear" x1="56.9097" y1="14.8248" x2="59.1232" y2="17.8933" gradientUnits="userSpaceOnUse">
<stop stop-color="#FFDECF"/>
<stop offset="0.3791" stop-color="#FDC4B0"/>
<stop offset="0.7655" stop-color="#FBAE97"/>
<stop offset="1" stop-color="#FAA68E"/>
</linearGradient>
<linearGradient id="paint69_linear" x1="49.8439" y1="16.216" x2="51.178" y2="18.0661" gradientUnits="userSpaceOnUse">
<stop stop-color="#FFDECF"/>
<stop offset="0.3791" stop-color="#FDC4B0"/>
<stop offset="0.7655" stop-color="#FBAE97"/>
<stop offset="1" stop-color="#FAA68E"/>
</linearGradient>
<linearGradient id="paint70_linear" x1="48.8105" y1="20.4375" x2="50.8823" y2="23.3098" gradientUnits="userSpaceOnUse">
<stop stop-color="#FFDECF"/>
<stop offset="0.3791" stop-color="#FDC4B0"/>
<stop offset="0.7655" stop-color="#FBAE97"/>
<stop offset="1" stop-color="#FAA68E"/>
</linearGradient>
<linearGradient id="paint71_linear" x1="49.4394" y1="18.3011" x2="51.075" y2="20.5687" gradientUnits="userSpaceOnUse">
<stop stop-color="#FFDECF"/>
<stop offset="0.3791" stop-color="#FDC4B0"/>
<stop offset="0.7655" stop-color="#FBAE97"/>
<stop offset="1" stop-color="#FAA68E"/>
</linearGradient>
<linearGradient id="paint72_linear" x1="47.0931" y1="19.1778" x2="48.0793" y2="20.5448" gradientUnits="userSpaceOnUse">
<stop stop-color="#FFDECF"/>
<stop offset="0.3791" stop-color="#FDC4B0"/>
<stop offset="0.7655" stop-color="#FBAE97"/>
<stop offset="1" stop-color="#FAA68E"/>
</linearGradient>
<linearGradient id="paint73_linear" x1="64.3987" y1="10.4663" x2="67.2022" y2="14.3528" gradientUnits="userSpaceOnUse">
<stop stop-color="#FFDECF"/>
<stop offset="0.3791" stop-color="#FDC4B0"/>
<stop offset="0.7655" stop-color="#FBAE97"/>
<stop offset="1" stop-color="#FAA68E"/>
</linearGradient>
<linearGradient id="paint74_linear" x1="61.5979" y1="21.1227" x2="63.8112" y2="24.1909" gradientUnits="userSpaceOnUse">
<stop stop-color="#FFDECF"/>
<stop offset="0.3791" stop-color="#FDC4B0"/>
<stop offset="0.7655" stop-color="#FBAE97"/>
<stop offset="1" stop-color="#FAA68E"/>
</linearGradient>
<linearGradient id="paint75_linear" x1="60.137" y1="17.0331" x2="61.4711" y2="18.8828" gradientUnits="userSpaceOnUse">
<stop stop-color="#FFDECF"/>
<stop offset="0.3791" stop-color="#FDC4B0"/>
<stop offset="0.7655" stop-color="#FBAE97"/>
<stop offset="1" stop-color="#FAA68E"/>
</linearGradient>
<linearGradient id="paint76_linear" x1="71.1084" y1="12.4207" x2="73.9119" y2="16.3075" gradientUnits="userSpaceOnUse">
<stop stop-color="#FFDECF"/>
<stop offset="0.3791" stop-color="#FDC4B0"/>
<stop offset="0.7655" stop-color="#FBAE97"/>
<stop offset="1" stop-color="#FAA68E"/>
</linearGradient>
<linearGradient id="paint77_linear" x1="70.0979" y1="10.441" x2="72.3114" y2="13.5092" gradientUnits="userSpaceOnUse">
<stop stop-color="#FFDECF"/>
<stop offset="0.3791" stop-color="#FDC4B0"/>
<stop offset="0.7655" stop-color="#FBAE97"/>
<stop offset="1" stop-color="#FAA68E"/>
</linearGradient>
<linearGradient id="paint78_linear" x1="68.0289" y1="10.6905" x2="69.3634" y2="12.5402" gradientUnits="userSpaceOnUse">
<stop stop-color="#FFDECF"/>
<stop offset="0.3791" stop-color="#FDC4B0"/>
<stop offset="0.7655" stop-color="#FBAE97"/>
<stop offset="1" stop-color="#FAA68E"/>
</linearGradient>
<linearGradient id="paint79_linear" x1="64.6337" y1="18.1066" x2="66.7054" y2="20.979" gradientUnits="userSpaceOnUse">
<stop stop-color="#FFDECF"/>
<stop offset="0.3791" stop-color="#FDC4B0"/>
<stop offset="0.7655" stop-color="#FBAE97"/>
<stop offset="1" stop-color="#FAA68E"/>
</linearGradient>
<linearGradient id="paint80_linear" x1="67.6247" y1="12.7754" x2="69.2602" y2="15.0428" gradientUnits="userSpaceOnUse">
<stop stop-color="#FFDECF"/>
<stop offset="0.3791" stop-color="#FDC4B0"/>
<stop offset="0.7655" stop-color="#FBAE97"/>
<stop offset="1" stop-color="#FAA68E"/>
</linearGradient>
<linearGradient id="paint81_linear" x1="65.2782" y1="13.6519" x2="66.2644" y2="15.0189" gradientUnits="userSpaceOnUse">
<stop stop-color="#FFDECF"/>
<stop offset="0.3791" stop-color="#FDC4B0"/>
<stop offset="0.7655" stop-color="#FBAE97"/>
<stop offset="1" stop-color="#FAA68E"/>
</linearGradient>
</defs>
</svg>
