<svg width="24" height="24" viewBox="0 0 24 24" fill="none" xmlns="http://www.w3.org/2000/svg">
<path  d="M0.5 5C0.5 2.51472 2.51472 0.5 5 0.5H23.5V23.5H5C2.51472 23.5 0.5 21.4853 0.5 19V5Z" fill="white" stroke="#DCDFE3"/>
<path class="sliderArrow-icon" d="M11.8894 7.34394L9.09506 10.4251C8.30164 11.3 8.30165 12.7 9.09506 13.5749L11.8894 16.6561C12.4182 17.2391 13.3345 17.2391 13.8633 16.6561C14.3238 16.1482 14.3238 15.3738 13.8633 14.866L11.5687 12.3359C11.3959 12.1453 11.3959 11.8547 11.5687 11.6641L13.8633 9.13405C14.3238 8.62621 14.3238 7.85177 13.8633 7.34394C13.3345 6.76089 12.4182 6.76089 11.8894 7.34394Z" fill="#3E5067" stroke="white"/>
</svg>
