<svg version="1.1" id="BG" xmlns="http://www.w3.org/2000/svg" x="0" y="0" viewBox="0 0 1920 1200" xml:space="preserve"><style>.st2{fill:#edeef0}.st4{opacity:.6;fill:#fff}.st5{opacity:.45}.st6{opacity:.17;fill:#fff}</style><path d="M1921.58 746.35V1143c-.53-.26-1.05-.52-1.58-.79-24.02-12.01-47.06-26-68.75-41.88-54.06-39.58-102.42-91.4-156.85-129.36-7.34-5.12-14.79-10-22.39-14.55-26.25-15.75-54.17-27.71-84.95-33.23-10.86-1.95-21.66-3.02-32.42-3.34-8.11-.24-16.21-.05-24.28.51-37.56 2.61-74.66 13.31-111.65 26.65-20.11 7.26-40.19 15.3-60.3 23.25-66.19 26.14-132.7 51.28-201.65 44.21L974.47 677.91c22.77-6.19 64.13-20.19 108.26-34.44 1.07-.34 2.13-.69 3.2-1.04 49.18-15.84 101.31-31.77 134.72-37.42 3.6-.61 6.98-1.1 10.11-1.46 1.99-.23 3.88-.4 5.66-.52 18.74-1.23 37.02-.21 54.95 2.59 3.41.53 6.81 1.13 10.19 1.79 28.95 5.62 57.02 15.72 84.67 28.22 3.08 1.39 6.15 2.81 9.22 4.26 8.95 4.22 17.85 8.67 26.73 13.29 12.77 6.63 25.48 13.59 38.19 20.67 2.89 1.61 5.78 3.22 8.67 4.84 44.46 24.93 88.99 50.76 135.52 68.57 41.81 15.99 86.03 25.12 130.67 27.62a455.494 455.494 0 0068.65-1.35c3.5-.32 6.99-.69 10.47-1.11 19.82-2.34 39.48-5.96 58.81-10.86 3.36-.85 6.71-1.74 10.05-2.68 12.43-3.45 24.71-7.43 36.79-11.94.53-.19 1.05-.39 1.58-.59z" fill="#fff" opacity=".6"/><path class="st2" d="M1921.58 898.52v278.04c0 3.13-.51 6.15-1.43 8.99-.05 0-.1-.01-.15-.01-51.91-2.77-101.91-15.41-139.61-49.78-21.02-19.18-36.98-44.26-61.31-59.03-25.91-15.73-57.71-17.58-88.02-17.46-87.38.36-174.38 13.57-261.76 12.82-31.4-.27-63.23-2.56-94.4-7.79a464.74 464.74 0 01-23.8-4.6c15.63-4.25 30.93-9.36 45.83-15.44 24.94-10.19 48.72-23.1 70.85-39.32 20.97-15.38 40.53-34.26 50.93-57.93.85-1.91 1.63-3.85 2.35-5.83 7.72-21.25 6.36-46.73-5.65-65.31 5.15-1.81 10.34-3.49 15.58-5.03 4.36-1.28 8.75-2.46 13.17-3.54 9.94-2.45 20-4.4 30.13-5.84 5.61-.81 11.25-1.46 16.9-1.95 24.79-2.18 49.84-1.38 74.43 2.51 56.96 9 110.27 33.82 166.69 45.75 45.53 9.62 92.79 10.3 138.68 2.68 7.23-1.19 14.42-2.6 21.56-4.2 9.24-2.08 18.4-4.5 27.45-7.25l1.58-.48zM584.35 903.43c-101.63 37.19-216.58 16.46-318-22.42C175.7 846.26 90.67 797.72.45 762.22v378.77c46.03-24.14 86.48-60.51 133.73-83.26 67.7-32.59 146.45-35.52 220.69-23.95 61.67 9.6 413.42 122.95 499.75 107.21 13.8-59.79-190.11-180.07-270.27-237.56z"/><ellipse cx="964.65" cy="734.11" rx="465.3" ry="443.07" fill="#dcdee2"/><path class="st4" d="M675.65 829.69c-28.68 6.63-57.45 12.84-87.83 11.41-19.52-.92-38.87-3.59-57.97-7.61-3.76-.79-7.52-1.63-11.26-2.53-2.87-.68-5.73-1.39-8.58-2.14H510a470.45 470.45 0 01-24.12-6.94c-3.4-1.06-6.79-2.16-10.16-3.3-16.93-5.68-33.59-12.17-49.92-19.16-2.95-1.25-5.88-2.53-8.81-3.82-.09-.04-.17-.08-.26-.11-16.21-7.16-32.36-14.78-48.97-20.86-3.07-1.12-6.15-2.19-9.25-3.19-7.49-2.43-15.09-4.48-22.86-5.96-35.98-6.88-73.02-1.3-109.34 3.51-31.01 4.11-62.19 7.65-93.41 9.38-5.75.32-11.5.58-17.26.77h-.03c-18.46.6-36.92.48-55.35-.6a537 537 0 01-11.36-.8c-.78-.06-1.55-.13-2.33-.2-4-.35-8-.76-12-1.23-11.42-1.34-22.83-3.19-34.12-5.63l-.45-.09c-.53-.12-1.06-.23-1.59-.35v-67.01c.53-.35 1.06-.69 1.59-1.04V512.84c11.91-1.55 23.77-3.02 35.52-3.86 112.51-8.02 223.97-8.27 335.57 3.69 57.88 6.2 114.39 20.76 169.85 38.09 4.64 1.45 9.28 2.91 13.9 4.4 10.6 3.4 21.16 6.45 31.7 9.27 53.32 14.25 98.21 48.03 126.88 93.21 1.27 1.97 2.48 3.96 3.66 5.97a216.532 216.532 0 0124.29 60.17c11.29 47.42-18.22 94.92-65.72 105.91z"/><path class="st2" d="M1091.18 274.69h-.08c-14.14.08-28.28-.4-42.34-1.49-1.11-.08-2.22-.17-3.33-.27-2.3-.19-4.59-.4-6.88-.63-27.81-2.76-55.19-7.99-81.49-16.15-9.92-3.08-19.81-6.49-29.74-9.72h-.02c-8.7-2.84-17.43-5.53-26.23-7.73-.01-.01-.01-.01-.02-.01-12.73-3.18-25.61-5.33-38.76-5.41-16.52-.09-32.25 3.01-47.48 8.18-3.53 1.19-7.02 2.5-10.5 3.91-30.55 12.32-59.33 32.14-88.75 49.96-2.57 1.56-5.15 3.11-7.73 4.63-16.17 9.52-32.59 18.2-49.67 24.5-3.12 1.14-6.26 2.22-9.43 3.2-9.75 3.02-19.74 5.19-30.02 6.25-21.12 2.17-41.87-.55-62.41-5.8-3.67-.94-7.33-1.96-10.99-3.05-9.87-2.94-19.69-6.37-29.49-10.03-2.52-.94-5.03-1.9-7.55-2.87-11.81-4.54-23.59-9.32-35.37-13.87a778.12 778.12 0 00-16-6.02h-.01c-30.75-11.11-61.62-19.3-93.15-16.4h-.01c-3.78.35-7.58.86-11.39 1.54-1.72.31-3.42.65-5.11 1.03-12.23 2.68-23.73 7.01-34.71 12.52-3.15 1.56-6.25 3.24-9.31 4.99-10.26 5.88-20.09 12.73-29.68 20.13-2.5 1.93-4.98 3.9-7.46 5.9-4.89 3.96-9.74 8.04-14.55 12.18-2.35 2.03-4.69 4.07-7.03 6.12-18.32 16.05-36.43 32.67-55.7 46.78C134.65 426.7 67.02 447.32 0 445.42V75.75c10.06 5.1 19.79 11.35 29.36 18.15 3.08 2.18 6.13 4.42 9.18 6.7 16.6 12.44 32.84 26 49.51 37.49.4.28.8.56 1.2.83 3.33 2.27 6.71 4.46 10.14 6.57 23.3 14.35 48.8 24.98 75.32 31.75 3.66.94 7.35 1.8 11.05 2.59 18.17 3.87 36.74 5.95 55.32 6.19 3.14.05 6.28.04 9.42-.03 31.05-.62 61.97-6.38 91-17.49 12.59-4.82 24.95-10.58 37.16-16.84h.01c3.42-1.75 6.82-3.53 10.21-5.35 9.68-5.17 19.3-10.58 28.9-15.97 3.1-1.74 6.19-3.49 9.29-5.22 11.26-6.3 22.52-12.49 33.85-18.19 3.23-1.62 6.46-3.21 9.7-4.74 9.34-4.42 18.75-8.43 28.27-11.84 3.73-1.33 7.48-2.57 11.24-3.7 19.12-5.76 38.76-8.78 59.27-7.43 29.21 1.92 35.58 7.63 59.22 15.38 0 0 12.08 4.34 39.4 10.2 24.39 5.23 70.63-4.36 126.29-13.98 4.2-.73 8.47-1.45 12.78-2.17 16.94-2.84 34.64-5.57 52.76-7.82 4.24-.53 8.5-1.03 12.79-1.49 23.17-2.54 46.89-4.14 70.5-4.03 3.86.01 7.71.08 11.55.19 10.79.32 21.54 1.03 32.18 2.19 5.45.6 13.06 1.77 23.12 3.55 3.04.53 6.3 1.12 9.8 1.77 10.12 1.88 22.18 4.23 36.37 7.07 32.55 6.5 76.31 15.61 133.6 27.54 4.89 1.02 9.89 2.06 14.98 3.12.35.08.7.15 1.04.22 25.29 5.26 48.68 2.11 70.5-4.61 13.13-4.04 25.7-9.38 37.77-14.95 0 0 .01-.01.02-.01.01-.01.01-.01.02-.01l.01-.01c36.02-16.62 67.65-35.35 96.82-28.14 3.35.82 6.67 1.99 9.95 3.55 2.14 1 4.27 2.17 6.38 3.52 1.86 1.18 9.85 6.28 16.74 14.25 2.05 2.37 4.01 5 5.67 7.85 2.84 4.87 4.84 10.39 5.05 16.44 2.07 61-180.73 154.8-363.53 155.85z"/><path class="st4" d="M1921.58 162.08v442.14c-.53-.25-1.05-.5-1.58-.75-12.76-6.02-25.85-11.04-39.55-14.08-42.36-9.4-84.8.81-126.36 15.74a675.11 675.11 0 00-12.08 4.48c-10.98 4.17-21.89 8.57-32.71 12.92-3.99 1.61-7.97 3.21-11.94 4.79-2.25.89-4.5 1.78-6.74 2.66-12.92 5.07-26.42 9.81-40.17 13.77-5.04 1.45-10.12 2.79-15.21 4.02-46.9 11.21-95.46 11.73-133.65-15.34-7.55-5.35-14.31-11.54-20.5-18.32-2.78-3.04-5.45-6.21-8.02-9.48-11.06-14.05-20.35-29.94-29.46-45.94-1.84-3.25-3.68-6.5-5.53-9.74-6.33-11.12-12.72-22.13-19.71-32.43-2.27-3.34-4.6-6.61-7.02-9.79-11.7-15.42-25.32-28.62-42.93-37.33-12.46-6.16-25.63-9.4-39.18-10.58-31.49-2.75-64.99 5.57-96.19 13.94-124.01 33.26-252.88 64.44-379.62 43.94-24.53-3.97-49.8-10.37-68.58-26.64-18.79-16.26-28.89-44.9-17.19-66.83 7.63-14.3 22.57-23.01 37.2-30 19.66-9.39 40.04-17 60.88-23.19 1.34-.4 2.68-.79 4.02-1.18 36.97-10.64 75.35-16.95 113.68-21.02 68.9-7.31 138.53-7.57 207.5-.96 80.66 7.73 160.42 24.87 237.06 51.18 32.31 11.09 66.52 23.96 99.73 15.93 11.52-2.78 22.12-7.94 31.92-14.54 4.09-2.75 8.04-5.75 11.86-8.94 8.28-6.88 15.97-14.64 23.16-22.58.13-.15.27-.29.4-.44 2.55-2.83 5.06-5.68 7.53-8.57 10.9-12.68 21.13-25.91 31.14-39.32 2.24-3 4.47-6.01 6.69-9.03 8.15-11.04 16.22-22.15 24.46-33.12 2.26-3.01 4.53-6.02 6.82-9.01 7.43-9.68 15.03-19.21 23-28.45 35.24-40.86 80.09-77.03 133.31-85.9 8.94-1.49 17.88-2.18 26.82-2.21 3.03-.01 6.06.06 9.09.2 18.8.86 37.55 4.47 56.07 9.56.53.15 1.05.29 1.58.44z"/><g class="st5"><path class="st2" d="M715.56 295.33c-8.39-26.06-24.89-54.07-49.18-82.89-38.28-45.42-92.49-88.91-156.25-125.79-19.29-11.17-39.46-21.73-60.33-31.55C395.92 29.73 341.22 11.04 289.38 0h-54.03c65.67 7.45 138.87 29.23 210.71 63.06 18.19 8.57 35.84 17.69 52.83 27.29 65.84 37.19 121.76 81.48 160.76 127.76 20.43 24.25 35.15 47.76 43.93 69.8 1.62 4.07 3.04 8.09 4.25 12.05 2.72 8.86 4.42 17.45 5.08 25.71.31 3.8.39 7.52.25 11.18-.36 10-2.37 19.43-6.06 28.2v.01c-.41.98-.85 1.96-1.3 2.92-11.24 23.87-34.61 41.09-67.98 50.77-21.64 6.28-47.48 9.4-76.95 9.12-76.13-.72-166.9-24.13-255.58-65.89a801.503 801.503 0 01-53.77-27.82C186.09 297.08 130.5 253 91.69 206.93 59.48 168.7 41.46 132.29 38.54 100.6c-1.46-15.81.83-30.44 7-43.54C59.89 26.6 93.98 6.97 143.42 0h-39.15C71.99 10.76 49.13 28.8 37.59 53.31c-5.85 12.43-8.57 26.05-8.23 40.59.35 14.66 3.8 30.24 10.28 46.51 9.15 22.96 24.33 47.28 45.33 72.19 38.92 46.2 94.34 90.39 159.52 127.68 18.3 10.47 37.36 20.39 57.05 29.66 89.8 42.29 181.87 65.99 259.24 66.73 23.87.23 45.49-1.74 64.61-5.8h.01c43.8-9.26 74.38-29.46 88.36-59.14 2.11-4.49 3.82-9.12 5.11-13.91v-.01c2.07-7.61 3.11-15.59 3.14-23.87v-.73c-.05-12.03-2.21-24.7-6.45-37.88z"/><path class="st2" d="M612.67 213.48c-34.2-40.59-83.78-79.3-142.05-111.29a674.013 674.013 0 00-37.18-18.93c-74.3-34.99-150.5-54.6-214.54-55.21-65.24-.63-110.38 18.59-127.11 54.1-7.75 16.46-8.91 35.39-3.74 55.94 1.36 5.44 3.18 11 5.43 16.65 7.59 19.05 20.17 39.21 37.57 59.86 32.82 38.95 79.79 76.17 135.02 107.38a672.36 672.36 0 0044.2 22.83c74.31 35 150.5 54.6 214.55 55.22 65.24.62 110.38-18.59 127.1-54.1 3.19-6.76 5.26-13.94 6.24-21.47 4.16-32.05-11.45-70.58-45.49-110.98zm31.3 128.7c-15.18 32.22-57.46 49.64-119.07 49.05-62.8-.6-137.69-19.91-210.88-54.37a665.58 665.58 0 01-40.49-20.78c-55.68-31.05-102.97-68.25-135.75-107.15-18.69-22.19-31.58-43.61-38.39-63.44-7.66-22.28-7.67-42.54.36-59.59 15.18-32.23 57.46-49.65 119.07-49.06 62.8.61 137.69 19.92 210.88 54.38a678.848 678.848 0 0131.22 15.71c59.7 32.03 110.44 71.18 145.02 112.22 34.02 40.36 48.8 78.23 42.79 108.51a62.4 62.4 0 01-4.76 14.52z"/><path class="st2" d="M544.17 212.83c-27.45-32.58-68.73-63.45-117.1-87.71-3.58-1.8-7.2-3.56-10.85-5.28-53.03-24.97-107.43-38.97-153.18-39.4-46.95-.45-79.48 13.48-91.6 39.22-7.13 15.14-6.61 33.11 1.17 52.65.65 1.63 1.35 3.28 2.1 4.93 5.56 12.21 13.87 24.98 24.84 38.01 24.87 29.52 61.1 57.63 103.66 80.7 7.89 4.27 16 8.37 24.29 12.28 53.03 24.98 107.43 38.97 153.18 39.41 33.05.32 58.95-6.49 75.62-19.53 7.01-5.48 12.39-12.07 15.98-19.69 12.12-25.74 2.14-59.7-28.11-95.59zm20.15 91.84c-3.87 8.21-10.29 15.05-19.01 20.39-15.1 9.26-37.09 14.05-64.55 13.79-44.5-.43-97.6-14.13-149.51-38.57-6.36-2.99-12.61-6.11-18.73-9.32-43.82-23.05-81.07-51.51-106.24-81.37-8.61-10.22-15.47-20.19-20.52-29.76-11.37-21.47-13.68-40.89-6.36-56.42 10.57-22.46 40.25-34.59 83.55-34.18 22.26.21 46.66 3.75 71.98 10.28 25.33 6.53 51.58 16.07 77.54 28.29 1.78.84 3.55 1.68 5.31 2.54 49.62 24.12 91.96 55.28 119.66 88.15 11.9 14.12 20.46 27.78 25.54 40.55 6.85 17.19 7.41 32.75 1.34 45.63z"/><path class="st2" d="M401.18 151.78a308.3 308.3 0 00-12.3-5.47c-30.48-12.79-61.06-19.88-87.3-20.13-30.97-.3-52.49 9.02-60.59 26.23-4.6 9.75-4.49 21.21.09 33.61.2.54.41 1.09.63 1.64 3.59 9.01 9.5 18.49 17.65 28.17 19.19 22.76 48.73 44.24 83.18 60.46 1.56.74 3.13 1.46 4.69 2.15 48.69 22 95.57 28.6 125.67 19.85 14.21-4.12 24.67-11.66 29.83-22.62 2.3-4.88 3.4-10.14 3.4-15.68 0-34.06-41.83-78.48-104.95-108.21zm93.6 120.14c-5.44 11.53-19.17 18.29-37.88 20.35h-.01c-24.88 2.77-58.54-2.76-93.15-16.4h-.01a290.33 290.33 0 01-17.44-7.53c-33.34-15.7-61.82-36.36-80.2-58.18-7.09-8.41-12.31-16.55-15.59-24.17-4.87-11.32-5.47-21.51-1.55-29.83 6.55-13.93 25.21-21.45 52.55-21.19 23.19.23 50.02 6.08 77.16 16.69h.01c6.25 2.44 12.52 5.14 18.76 8.08 66.63 31.38 111.2 82.75 97.35 112.18z"/></g><g class="st5"><path class="st2" d="M1920 283.35c-40.52 24.72-86.62 46.64-136.03 64.41-73.48 26.43-147.17 41.14-212.46 42.75-16.67.41-32.78-.03-48.21-1.35-74.66-6.38-123.89-32.43-138.61-73.35-14.72-40.92 6.64-92.35 60.13-144.83 54.35-53.32 135.08-100.95 227.32-134.13C1721.2 19.21 1770.35 6.78 1817.03 0h-48.98c-32.51 7.08-65.73 16.65-98.89 28.57-93.4 33.6-175.26 81.94-230.5 136.13-56.09 55.03-78.19 109.75-62.24 154.09 9.33 25.95 30.98 46.34 63.04 60.13 22.7 9.77 50.63 16.23 83.09 19 11.98 1.02 24.37 1.53 37.1 1.53 69.18-.01 148.41-15.04 227.3-43.41 48.1-17.3 93.13-38.52 133.05-62.42.53-.32 1.05-.64 1.58-.96v-10.28c-.53.33-1.05.65-1.58.97z"/><path class="st2" d="M1920 246.95c-40.81 30.15-91.65 56.73-147.62 76.86-58.57 21.07-117.31 33.12-169.78 35.11-15.72.6-30.88.29-45.3-.94-61.38-5.25-101.83-26.59-113.89-60.11-12.05-33.51 5.53-75.73 49.51-118.87 44.84-43.99 111.45-83.29 187.57-110.67 76.11-27.38 152.5-39.51 215.08-34.16 8.56.73 16.71 1.77 24.43 3.13v-8.93c-7.53-1.27-15.43-2.26-23.68-2.97-63.82-5.45-141.52 6.86-218.81 34.66-77.29 27.79-145.03 67.81-190.75 112.66-46.58 45.69-64.91 91.19-51.62 128.13 7.79 21.65 25.82 38.65 52.51 50.14 18.85 8.1 42 13.46 68.9 15.76 12.23 1.04 24.97 1.44 38.12 1.18 55.46-1.02 118.21-13.37 180.69-35.84 54.39-19.56 104.05-45.18 144.64-74.27.53-.37 1.06-.75 1.58-1.14v-10.91c-.52.4-1.05.79-1.58 1.18z"/><path class="st2" d="M1920 171.18c-6.29 11.68-15.78 23.85-28.31 36.14-31.77 31.17-79 59.03-132.99 78.45-40.76 14.66-81.61 23.16-118.27 24.8-11.9.55-23.36.37-34.23-.56-43.15-3.69-71.55-18.58-79.94-41.93-8.4-23.36 4-52.92 34.91-83.25 15.89-15.59 35.64-30.34 58.17-43.63 22.53-13.29 47.83-25.11 74.83-34.82 53.99-19.42 108.15-28.03 152.5-24.24 18.39 1.57 34.11 5.18 46.73 10.61 11.56 4.97 20.53 11.47 26.6 19.34V99.2c-15.43-14.11-40.25-23.06-72.58-25.82-45.59-3.9-101.07 4.88-156.23 24.72s-103.52 48.41-136.18 80.45c-33.51 32.88-46.66 65.73-37.03 92.5 5.66 15.75 18.74 28.09 38.06 36.41 13.54 5.82 30.14 9.67 49.41 11.31 9.06.78 18.52 1.05 28.29.83 39.35-.86 83.75-9.65 127.93-25.55 55.16-19.84 103.53-48.41 136.18-80.45 8.8-8.63 16.2-17.27 22.15-25.79.54-.77 1.07-1.54 1.58-2.32v-17.37c-.49 1.01-1.02 2.03-1.58 3.06z"/><path class="st2" d="M1863.93 152.08c-.33-1.68-.79-3.34-1.38-4.97-7.68-21.37-35.09-32.56-71.91-32.56-25.74 0-56.09 5.47-87.5 16.77-35.83 12.89-67.28 31.47-88.53 52.32-22.11 21.69-30.73 43.49-24.3 61.39 3.81 10.59 12.55 18.88 25.45 24.42 8.9 3.83 19.79 6.36 32.39 7.43 5.38.46 10.98.65 16.74.57 26.01-.34 55.51-6.07 84.83-16.62 72.9-26.23 121.39-72.97 114.21-108.75zm-117.18 100.47c-25.86 9.3-51.76 14.74-75.04 15.89-7.94.4-15.58.3-22.81-.32-27.23-2.33-45.1-11.58-50.31-26.06-5.21-14.48 2.67-33 22.18-52.14 20.37-19.98 50.68-37.85 85.35-50.32 69.3-24.93 137.14-20.12 148.16 10.49.21.59.4 1.19.56 1.79 8.54 30.62-40.13 76.22-108.09 100.67z"/></g><g class="st5"><path class="st2" d="M1920 950.82c-26.71 12.78-61.82 20.11-103.93 21.38-44.17 1.32-93.1-4.13-144.06-15.78-38.37-8.77-77.88-21.04-117.37-36.57a959.43 959.43 0 01-21.37-8.73c-31.21-13.21-61.08-27.93-89.11-43.82a790.237 790.237 0 01-30.12-17.97c-48.01-30.14-89.46-63.7-121.46-98.76-49.22-53.92-70.7-105.41-61.82-147.02a82.926 82.926 0 014.76-15.14c15.49-36.6 56.63-60.44 117.48-68.77.87-.12 1.75-.24 2.64-.35 4.91-.64 9.95-1.17 15.12-1.59 6.76-.57 13.73-.97 20.91-1.18 8.72-.26 17.63-.26 26.7 0 77.7 2.24 167.49 23.56 256.1 61.07 23.33 9.88 45.92 20.6 67.54 32.02 70.1 37.02 130.16 81.42 173.15 128.53 1.64 1.8 3.26 3.6 4.84 5.4v-14.37c-41.97-45.27-99.29-87.97-165.91-124.04-24.16-13.07-49.54-25.28-75.86-36.42-92.46-39.14-186.33-60.86-266.88-61.98-6.76-.1-13.41-.05-19.97.15-9.04.27-17.77.82-26.19 1.64-71.77 6.97-120.52 33.56-138.55 76.13a93.227 93.227 0 00-5.99 20.36c-4 22.9.12 48.22 12.03 74.96 2.5 5.61 5.33 11.27 8.51 17 .51.91 1.03 1.83 1.56 2.75 10.68 18.68 24.96 37.9 42.71 57.35 33.07 36.24 76.02 70.88 125.75 101.86a790.32 790.32 0 0019.78 11.91c30.78 17.95 63.84 34.48 98.52 49.16.28.12.57.24.85.36 55.24 23.32 110.97 40.42 164.04 50.61 42.95 8.26 84.15 12 121.96 10.86 41.29-1.24 76.23-8.23 103.64-20.43.53-.23 1.06-.47 1.58-.71v-10.63c-.52.26-1.05.51-1.58.76z"/><path class="st2" d="M1883.21 758.88c-5.86-7.86-12.43-15.79-19.71-23.76-37.97-41.61-91.65-80.66-154.2-112.59a731.523 731.523 0 00-47.77-22.26c-77.48-32.81-156.19-50.83-223.45-51.32-4.7-.03-9.35.02-13.94.16-12.43.37-24.16 1.37-35.15 2.98-47.73 7-81.55 25.44-97.62 53.53-1.53 2.67-2.9 5.43-4.1 8.27-9.84 23.23-7.96 50.33 5 79.43 9.14 20.54 23.8 42.08 43.75 63.94 22.69 24.85 50.98 48.8 83.42 70.85 17.19 11.7 35.54 22.86 54.85 33.35 20.27 11.01 41.59 21.28 63.7 30.64 82.9 35.1 167.21 53.27 237.39 51.16 52.67-1.58 92.92-14.49 117.17-37.01 8.67-8.05 15.29-17.33 19.7-27.77 14.25-33.64 3.91-75.42-29.04-119.6zm20.16 115.84c-6.1 14.41-17.07 26.41-32.38 35.73-22.88 13.96-55.45 21.95-95.9 23.17-68.82 2.07-151.69-15.83-233.35-50.4-17.4-7.36-34.29-15.3-50.55-23.71-24.81-12.84-48.15-26.79-69.57-41.57-30.46-21.01-57.04-43.7-78.48-67.18-45.52-49.89-62.21-97.16-46.99-133.11 1.51-3.56 3.31-6.98 5.41-10.24 15.6-24.3 47.26-40.21 91.62-46.17h.01c9.8-1.33 20.23-2.16 31.24-2.49 6.28-.19 12.67-.21 19.18-.06 64.75 1.4 139.96 19.04 214.17 50.46a726.639 726.639 0 0139.58 18.17c64.77 32.08 120.29 71.86 159.02 114.29 6.12 6.7 11.72 13.36 16.78 19.95 32.65 42.44 43.38 82.04 30.21 113.16z"/><path class="st2" d="M1473.07 604.63c-23.64.86-43.73 4.97-59.67 12 .01.04.03.09.04.13.13.44.26.88.38 1.32.14.49.28.99.41 1.48l.12.44c.02.08.04.15.07.23.15.55.31 1.1.45 1.65l.06.21c.27.96.53 1.93.78 2.89l.12.44.15.57c15.28-7.02 35.22-11.06 59.07-11.78 2-.06 4.01-.09 6.04-.1-2.78-3.04-5.45-6.21-8.02-9.48zm0 0c-23.64.86-43.73 4.97-59.67 12 .01.04.03.09.04.13.13.44.26.88.38 1.32.14.49.28.99.41 1.48l.12.44c.02.08.04.15.07.23.15.55.31 1.1.45 1.65l.06.21c.27.96.53 1.93.78 2.89l.12.44.15.57c15.28-7.02 35.22-11.06 59.07-11.78 2-.06 4.01-.09 6.04-.1-2.78-3.04-5.45-6.21-8.02-9.48zm0 0c-23.64.86-43.73 4.97-59.67 12 .01.04.03.09.04.13.13.44.26.88.38 1.32.14.49.28.99.41 1.48l.12.44c.02.08.04.15.07.23.15.55.31 1.1.45 1.65l.06.21c.27.96.53 1.92.78 2.89l.12.44.15.57c15.28-7.02 35.22-11.06 59.07-11.78 2-.06 4.01-.09 6.04-.1-2.78-3.04-5.45-6.21-8.02-9.48zm341.28 167.79c-6.4-11.42-15.07-23.17-25.91-35.05-32.62-35.74-81.44-68.84-137.99-93.62-2.06-.9-4.12-1.79-6.2-2.67-59.17-25.05-119.36-38.01-169.49-36.51l-1.69.06c-23.64.86-43.73 4.97-59.67 12-11.18 4.92-20.31 11.3-27.17 19-4.26 4.79-7.64 10.09-10.09 15.88-7.15 16.89-5.81 36.56 3.57 57.63 6.57 14.76 17.08 30.2 31.37 45.86 5.3 5.81 11.04 11.55 17.16 17.19 32.91 30.35 77.13 57.98 127.03 79.1 59.17 25.05 119.36 38.02 169.49 36.51 51.44-1.55 86.46-18.22 98.62-46.94 8.37-19.75 5.12-43.3-9.03-68.44zm.16 64.68c-10.61 25.05-42.59 39.63-90.04 41.06-48.77 1.47-107.53-11.23-165.45-35.75-51.82-21.94-97.3-50.94-129.86-82.62-3.84-3.72-7.49-7.49-10.96-11.29-32-35.07-43.79-68.18-33.18-93.23 2.4-5.68 5.9-10.82 10.43-15.38 5.41-5.46 12.3-10.11 20.53-13.9 15.28-7.02 35.22-11.06 59.07-11.78 2-.06 4.01-.09 6.04-.1.55-.01 1.1-.01 1.66-.01 45.68 0 99.31 11.83 152.49 33.67 1.75.72 3.51 1.45 5.26 2.19 57.92 24.52 107.93 57.87 140.82 93.91 9.22 10.1 16.76 20.03 22.56 29.66 2.8 4.63 5.19 9.19 7.18 13.65 8.24 18.52 9.53 35.55 3.45 49.92zm-341.44-232.47c-23.64.86-43.73 4.97-59.67 12 .01.04.03.09.04.13.13.44.26.88.38 1.32.14.49.28.99.41 1.48l.12.44c.02.08.04.15.07.23.15.55.31 1.1.45 1.65l.06.21c.27.96.53 1.93.78 2.89l.12.44.15.57c15.28-7.02 35.22-11.06 59.07-11.78 2-.06 4.01-.09 6.04-.1-2.78-3.04-5.45-6.21-8.02-9.48zm0 0c-23.64.86-43.73 4.97-59.67 12 .01.04.03.09.04.13.13.44.26.88.38 1.32.14.49.28.99.41 1.48l.12.44c.02.08.04.15.07.23.15.55.31 1.1.45 1.65l.06.21c.27.96.53 1.93.78 2.89l.12.44.15.57c15.28-7.02 35.22-11.06 59.07-11.78 2-.06 4.01-.09 6.04-.1-2.78-3.04-5.45-6.21-8.02-9.48zm0 0c-23.64.86-43.73 4.97-59.67 12 .01.04.03.09.04.13.13.44.26.88.38 1.32.14.49.28.99.41 1.48l.12.44c.02.08.04.15.07.23.15.55.31 1.1.45 1.65l.06.21c.27.96.53 1.93.78 2.89l.12.44.15.57c15.28-7.02 35.22-11.06 59.07-11.78 2-.06 4.01-.09 6.04-.1-2.78-3.04-5.45-6.21-8.02-9.48z"/><path class="st2" d="M1745.83 775.35c-11.59-34.13-55.61-72.77-116.66-98.63-38.45-16.27-77.58-24.7-110.2-23.72-27.17.82-47.43 8.12-58.6 20.85-2.78 3.17-5.01 6.68-6.63 10.51-4.81 11.36-3.94 24.53 2.32 38.59 4.32 9.71 11.21 19.84 20.56 30.08 22 24.1 55.29 46.34 93.73 62.62 81.88 34.66 158.94 31.31 175.44-7.64 2.08-4.91 3.08-10.12 3.08-15.54 0-5.51-1.04-11.25-3.04-17.12zm-8.92 28.9c-13.91 32.84-88.46 33.99-162.8 2.52-37.19-15.75-69.29-37.14-90.37-60.24-20.2-22.13-27.7-42.87-21.12-58.41 1.47-3.48 3.63-6.63 6.42-9.43 9.66-9.75 26.98-15.35 50.21-16.05 31.27-.94 68.97 7.21 106.16 22.96 54.91 23.25 97.11 58.96 109.82 89.28 4.51 10.73 5.31 20.79 1.68 29.37z"/></g><g class="st5"><path class="st2" d="M601.92 654.52c-11.58-29.71-37.99-52.24-76.74-66.34-24.02-8.74-52.77-14.24-85.67-16.18-84.67-5-187.14 13.99-288.53 53.49C95.93 646.93 44.73 673.04 0 702.19c-.53.35-1.06.69-1.59 1.04v11.55c.53-.36 1.06-.71 1.59-1.06 45.39-30.17 97.85-57.19 154.48-79.25 100.13-39 201.15-57.77 284.46-52.84 31.52 1.86 58.99 7.02 81.86 15.18h.01c.39.13.78.28 1.17.42 1.73.63 3.44 1.28 5.12 1.95.17.06.33.13.49.19 32.93 13.16 55.36 33.03 65.35 58.65 17.3 44.42-4.63 101.4-61.74 160.44-4.06 4.2-8.27 8.37-12.61 12.5a389.98 389.98 0 01-6.59 6.18c-31.33 28.77-69.24 55.98-111.83 80.44-35.23 20.23-73.65 38.58-114.22 54.38-100.12 39-201.15 57.77-284.46 52.84-.35-.02-.7-.04-1.04-.07-.15 0-.3-.01-.45-.02v9.66l.45.03.47.03c84.67 5.01 187.14-13.99 288.53-53.49 45.14-17.57 87.67-38.29 126.19-61.25 37.25-22.2 70.73-46.49 99.14-72.05 5.2-4.68 10.22-9.39 15.07-14.15 2.82-2.76 5.58-5.54 8.28-8.33 59.88-61.9 82.54-122.5 63.79-170.64z"/><path class="st2" d="M534.75 684.22c-5.31-13.64-14.36-25.46-26.8-35.29-24.13-19.07-61.02-30.65-108.14-33.43-70.08-4.15-154.88 11.57-238.78 44.25C99.87 683.58 44.45 714.36 0 748.85c-.53.41-1.06.82-1.59 1.24v12.33c.52-.44 1.06-.87 1.59-1.28 44.65-35.81 101.46-67.84 164.53-92.41 82.63-32.19 165.98-47.67 234.71-43.61 47.87 2.83 84.41 14.87 106.64 34.64 9.08 8.06 15.77 17.41 19.88 27.96 10.93 28.06 2.69 62.29-23.19 98.75-7.48 10.55-16.45 21.29-26.85 32.11l-.8.83c-31.33 32.39-72.94 62.84-121.12 89.04-25.43 13.84-52.7 26.48-81.24 37.6-82.62 32.19-165.98 47.68-234.71 43.62-13.37-.79-25.86-2.31-37.4-4.51-.15-.02-.3-.05-.45-.08v9.8c.15.03.3.06.45.08 11.45 2.11 23.75 3.56 36.84 4.33 70.08 4.14 154.88-11.57 238.77-44.25 32.5-12.66 63.36-27.28 91.82-43.39h.01c45.04-25.46 84.06-54.62 113.96-85.54 1.37-1.41 2.71-2.82 4.03-4.23 6.83-7.3 13.03-14.58 18.6-21.81 11.68-15.16 20.54-30.08 26.51-44.54.17-.4.34-.81.5-1.22 10.18-25.3 11.43-49.11 3.26-70.09z"/><path class="st2" d="M444.82 719.25c-2.28-5.84-5.49-11.23-9.6-16.12a60.411 60.411 0 00-4.65-4.99c-17.09-16.49-45.56-26.46-82.97-28.67-50.06-2.96-110.61 8.25-170.48 31.58C126 720.96 80.49 747.7 46.57 777.54c-1.02.89-2.02 1.78-3.01 2.68-4.7 4.24-9.16 8.54-13.36 12.89C17.38 806.36 7.42 819.53.45 832.32c-.15.28-.3.55-.45.83v25.75c.14-.56.29-1.12.45-1.69 4.94-17.85 17.32-37.39 36.68-57.4a275.11 275.11 0 0116.1-15.3c2.29-2 4.63-4 7.03-5.97 11.9-9.84 25.1-19.29 39.36-28.21 24.3-15.21 51.69-28.89 81-40.3 58.61-22.83 117.71-33.82 166.41-30.94 20.21 1.2 37.53 4.7 51.52 10.29 18.83 7.52 31.63 18.83 37.29 33.37 7.97 20.48 1.19 45.78-19.11 72.74-4.83 6.41-10.43 12.92-16.77 19.48-27.1 28.02-65.08 54.01-109.14 74.96a514.344 514.344 0 01-34.34 14.83c-58.61 22.83-117.71 33.81-166.42 30.93-47.39-2.8-78.93-18.3-88.8-43.65a42.931 42.931 0 01-1.26-3.7v20.98c.14.2.29.39.45.58 7.95 10.24 19.62 18.46 34.58 24.44 15 5.99 33.3 9.73 54.46 10.98 50.07 2.96 110.61-8.25 170.49-31.58 15.17-5.91 29.85-12.42 43.88-19.44 41.33-20.67 77.01-45.71 103.03-72.62 7.22-7.46 13.54-14.9 18.91-22.26 21.31-29.11 28.06-56.97 19.02-80.17z"/><path class="st2" d="M366.31 749.83c-8.66-22.21-36.87-33.68-74.68-33.68-29.28 0-64.31 6.87-100.46 20.96-28.75 11.2-54.75 25.73-75.53 42.03h-.03c-7.34 5.75-14.03 11.72-19.95 17.84-1.59 1.64-3.11 3.28-4.56 4.92-20.16 22.71-27.37 44.93-20.31 63.05 4.48 11.5 14.29 20.32 28.58 26.03 9.87 3.94 21.87 6.39 35.71 7.21 32.58 1.93 71.95-5.36 110.85-20.51 1.98-.77 3.95-1.56 5.9-2.37 63.5-26.04 108.2-66.03 115.93-100.68 1.95-8.71 1.56-17.08-1.45-24.8zM242.43 868.7c-1.17.46-2.34.9-3.51 1.34-36.48 13.75-73.02 20.31-103.27 18.53-29.91-1.77-49.75-11.4-55.88-27.12-5.88-15.11 1.37-34.63 20.44-55.25.77-.84 1.57-1.68 2.38-2.52 8.53-8.82 18.76-17.33 30.31-25.31 17.86-12.33 38.91-23.37 61.77-32.28 75.22-29.3 149.7-25.98 162.65 7.24 2.17 5.56 2.5 11.66 1.19 18.11-6.47 32.13-53.44 72.85-116.08 97.26z"/></g><g class="st5"><path class="st2" d="M1520.32 0c-11.29 23.1-28.96 47.3-52.72 71.87-7.41 7.66-15.29 15.22-23.61 22.68-56.87 50.97-134.3 96.8-221.64 130.82-58.9 22.94-118.11 38.88-173.85 47.11h-.01c-1.02.16-2.03.31-3.06.45-2.44.35-4.87.69-7.3 1h-.01c-35.25 4.64-68.99 6.13-100.23 4.28-53.67-3.17-95.63-15.89-123.08-36.75-14.49-11.01-24.93-24.3-30.91-39.64-12.62-32.4-4.37-71.48 23.19-113.17 10.21-15.47 23.09-31.29 38.54-47.27C859.31 27.24 874.61 13.4 891.31 0h-15.19c-13.49 11.3-26.01 22.88-37.42 34.68-18.32 18.94-33.16 37.76-44.39 56.14-25.48 41.69-32.41 81.1-19.4 114.5 5.97 15.32 15.89 28.73 29.4 40.05 11.34 9.52 25.21 17.56 41.41 24.04 25.16 10.05 55.95 16.32 91.6 18.43 46.87 2.77 99.2-1.81 153.78-13.15h.08c43.97-9.15 89.45-22.7 134.67-40.33 88-34.28 166.14-80.48 223.81-131.96 8.78-7.82 17.08-15.77 24.87-23.83 25.86-26.73 44.78-53.22 56.41-78.57h-10.62z"/><path class="st2" d="M1460.57 0c-8.35 23-24.92 47.67-49.25 72.82-.13.14-.26.27-.4.41-47.86 49.32-119.56 94.14-201.96 126.24-82.62 32.18-165.98 47.67-234.71 43.61-67.41-3.99-112.34-26.22-126.52-62.6-11.17-28.67-2.33-63.78 24.91-101.14 7.32-10.05 15.97-20.26 25.93-30.55 16.35-16.9 35.5-33.27 56.93-48.79h-16.15c-17.69 13.51-33.7 27.61-47.71 42.09-12.61 13.03-23.22 25.99-31.79 38.74-25.25 37.55-32.76 73.21-21.1 103.15 9.15 23.5 29.41 41.61 58.98 53.43 1.09.44 2.2.86 3.32 1.28.01 0 .01 0 .02.01 8.09 3.03 16.85 5.61 26.23 7.73h.02c14.08 3.17 29.57 5.28 46.36 6.27 70.09 4.15 154.89-11.57 238.78-44.25 83.89-32.68 156.98-78.47 205.79-128.93.88-.91 1.76-1.83 2.62-2.74 24.92-26.32 41.69-52.32 49.86-76.78h-10.16z"/><path class="st2" d="M1375.17 0c-2.18 20.67-15.4 44.19-38.81 68.39-16.4 16.95-36.78 33.16-60.08 47.96-24.89 15.81-53.13 30.03-83.4 41.82-58.61 22.83-117.71 33.82-166.42 30.94-47.39-2.81-78.93-18.31-88.8-43.66-7.7-19.77-1.65-44.03 17.03-69.95 5.28-7.32 11.57-14.76 18.84-22.28 16.96-17.53 38.18-34.27 62.49-49.48 2.02-1.26 4.05-2.51 6.11-3.74H1024c-22.11 14.43-41.55 30.13-57.4 46.52-9.36 9.68-17.2 19.32-23.46 28.79-17.67 26.73-22.83 52.18-14.47 73.64 6.66 17.09 21.34 30.24 42.76 38.8 15 5.99 33.3 9.73 54.46 10.98 50.07 2.96 110.61-8.25 170.49-31.58 44.9-17.49 85.48-40.26 117.67-65.75 0 0 .01-.01.02-.01.01-.01.01-.01.02-.01l.01-.01c10.71-8.5 20.49-17.29 29.19-26.28 25.26-26.12 39.41-51.94 41.55-75.09h-9.67z"/><path class="st2" d="M1302.71 3.25c-.43-1.11-.92-2.2-1.45-3.25h-11.3c1.56 2.09 2.82 4.34 3.76 6.74 12.31 31.6-34.65 80.91-103.96 110.88-3.59 1.55-7.23 3.05-10.93 4.49-37.64 14.66-75.56 21.72-106.78 19.87-29.91-1.77-49.75-11.4-55.88-27.12-3.59-9.22-2.29-20.09 3.62-31.85 4.15-8.29 10.59-17.02 19.2-25.92 21.5-22.23 53.71-42.47 90.82-57.09h-24.27c-29.61 14-55.19 31.48-73.49 50.39-10.1 10.45-17.5 20.84-22.06 30.85-6.09 13.36-7.13 26.01-2.8 37.12 4.48 11.5 14.29 20.32 28.58 26.03 9.87 3.94 21.87 6.4 35.71 7.21 32.58 1.93 71.95-5.35 110.85-20.51 8.12-3.16 15.95-6.55 23.45-10.13 69.11-32.98 110.78-82.16 96.93-117.71z"/></g><g><path class="st4" d="M813.87 551.65s-2.58 2.45-3.65 2.89c-1.08.44-4.63.46-4.63.46s2.45 2.58 2.89 3.65c.44 1.08.46 4.63.46 4.63s2.58-2.45 3.65-2.89c1.08-.44 4.63-.46 4.63-.46s-2.45-2.58-2.89-3.66c-.43-1.06-.46-4.62-.46-4.62zM721.68 525.39s1.66-2.6 1.85-3.59c.19-.99-.38-4.02-.38-4.02s2.6 1.66 3.59 1.85c.99.19 4.02-.38 4.02-.38s-1.66 2.6-1.85 3.59c-.19.99.38 4.02.38 4.02s-2.6-1.66-3.59-1.85c-.99-.19-4.02.38-4.02.38z"/><path class="st6" d="M924.8 315.71s2.98-4.67 3.33-6.45c.35-1.78-.68-7.23-.68-7.23s4.67 2.98 6.45 3.33c1.78.35 7.23-.68 7.23-.68s-2.98 4.67-3.33 6.45c-.34 1.78.68 7.23.68 7.23s-4.67-2.98-6.45-3.33c-1.78-.35-7.23.68-7.23.68z"/><path class="st4" d="M869.42 365.77s.01 2.32.3 3.02c.28.7 1.88 2.39 1.88 2.39s-2.32.01-3.02.3c-.7.28-2.39 1.88-2.39 1.88s-.01-2.32-.3-3.02-1.88-2.39-1.88-2.39 2.32-.01 3.02-.3c.71-.28 2.39-1.88 2.39-1.88z"/><path class="st6" d="M956.03 410.77s.72-3 1.3-3.83c.58-.83 3.16-2.52 3.16-2.52s-3-.72-3.83-1.3c-.83-.58-2.52-3.16-2.52-3.16s-.72 3-1.3 3.83c-.58.83-3.16 2.52-3.16 2.52s3 .72 3.83 1.3c.83.58 2.52 3.16 2.52 3.16z"/><path class="st4" d="M776.39 374.49s.72-3 1.3-3.83c.58-.83 3.16-2.52 3.16-2.52s-3-.72-3.83-1.3c-.83-.58-2.52-3.16-2.52-3.16s-.72 3-1.3 3.83c-.58.83-3.16 2.52-3.16 2.52s3 .72 3.83 1.3c.83.58 2.52 3.16 2.52 3.16zM910.17 322.22s.72-3 1.3-3.83c.58-.83 3.16-2.52 3.16-2.52s-3-.72-3.83-1.3c-.83-.58-2.52-3.16-2.52-3.16s-.72 3-1.3 3.83c-.58.83-3.16 2.52-3.16 2.52s3 .72 3.83 1.3c.82.58 2.52 3.16 2.52 3.16z"/><path class="st6" d="M429.89 697.64s2.45 1.87 3.43 2.14c.97.27 4.04-.04 4.04-.04s-1.87 2.45-2.14 3.43c-.27.97.04 4.04.04 4.04s-2.45-1.87-3.43-2.14c-.97-.27-4.04.04-4.04.04s1.87-2.45 2.14-3.43c.28-.97-.04-4.04-.04-4.04zM643.49 772.54s2.45 1.87 3.43 2.14c.97.27 4.04-.04 4.04-.04s-1.87 2.45-2.14 3.43c-.27.97.04 4.04.04 4.04s-2.45-1.87-3.43-2.14c-.97-.27-4.04.04-4.04.04s1.87-2.45 2.14-3.43c.28-.97-.04-4.04-.04-4.04z"/><path class="st4" d="M530.01 755.18s2.93.97 3.71 1.61c.78.65 2.25 3.36 2.25 3.36s.97-2.93 1.61-3.71c.65-.78 3.36-2.25 3.36-2.25s-2.93-.97-3.71-1.61c-.78-.65-2.25-3.36-2.25-3.36s-.97 2.93-1.61 3.71-3.36 2.25-3.36 2.25zM546.48 663.1s2.66 1.56 3.66 1.72c1 .16 4.01-.53 4.01-.53s-1.56 2.66-1.72 3.66c-.16 1 .53 4.01.53 4.01s-2.66-1.56-3.66-1.72c-1-.16-4.01.53-4.01.53s1.56-2.66 1.72-3.66c.15-1.01-.53-4.01-.53-4.01zM530.36 598.88s-2.54-2.48-3.02-3.55c-.47-1.06-.63-4.61-.63-4.61s-2.48 2.54-3.55 3.02c-1.06.47-4.61.63-4.61.63s2.54 2.48 3.02 3.55c.47 1.06.63 4.61.63 4.61s2.48-2.54 3.55-3.02c1.06-.48 4.61-.63 4.61-.63zM551.45 517.98s2.66 1.56 3.66 1.72c1 .16 4.01-.53 4.01-.53s-1.56 2.66-1.72 3.66c-.16 1 .53 4.01.53 4.01s-2.66-1.56-3.66-1.72c-1-.16-4.01.53-4.01.53s1.56-2.66 1.72-3.66c.15-1-.53-4.01-.53-4.01zM722.7 333.91s-3.79-3.7-4.5-5.28-.93-6.88-.93-6.88-3.7 3.79-5.28 4.5-6.88.93-6.88.93 3.79 3.7 4.5 5.28.93 6.88.93 6.88 3.7-3.79 5.29-4.5c1.58-.71 6.87-.93 6.87-.93zM738.67 241.49s2.66 1.56 3.66 1.72c1 .16 4.01-.53 4.01-.53s-1.56 2.66-1.72 3.66c-.16 1 .53 4.01.53 4.01s-2.66-1.56-3.66-1.72c-1-.16-4.01.53-4.01.53s1.56-2.66 1.72-3.66c.16-1-.53-4.01-.53-4.01z"/><path class="st6" d="M192.16 995.98s-3.65-3.57-4.34-5.1c-.68-1.53-.9-6.63-.9-6.63s-3.57 3.65-5.1 4.34c-1.53.68-6.63.9-6.63.9s3.65 3.57 4.34 5.1c.68 1.53.9 6.63.9 6.63s3.57-3.65 5.1-4.34c1.53-.68 6.63-.9 6.63-.9zM208.88 903.49s2.66 1.56 3.66 1.72c1 .16 4.01-.53 4.01-.53s-1.56 2.66-1.72 3.66c-.16 1 .53 4.01.53 4.01s-2.66-1.56-3.66-1.72c-1-.16-4.01.53-4.01.53s1.56-2.66 1.72-3.66c.15-1-.53-4.01-.53-4.01z"/><g><path class="st4" d="M840.36 471.05s-2.4 2.62-3.44 3.13c-1.05.51-4.59.78-4.59.78s2.62 2.4 3.13 3.44c.51 1.05.78 4.59.78 4.59s2.4-2.62 3.44-3.13c1.05-.51 4.59-.78 4.59-.78s-2.62-2.4-3.13-3.44c-.5-1.05-.78-4.59-.78-4.59zM746.55 451.32s1.47-2.71 1.6-3.71c.12-1-.66-3.99-.66-3.99s2.71 1.47 3.71 1.6c1 .12 3.99-.66 3.99-.66s-1.47 2.71-1.6 3.71c-.12 1 .66 3.99.66 3.99s-2.71-1.47-3.71-1.6c-1-.12-3.99.66-3.99.66z"/></g><g><path class="st6" d="M767.49 711.99s2.66 1.56 3.66 1.72c1 .16 4.01-.53 4.01-.53s-1.56 2.66-1.72 3.66c-.16 1 .53 4.01.53 4.01s-2.66-1.56-3.66-1.72c-1-.16-4.01.53-4.01.53s1.56-2.66 1.72-3.66c.15-1-.53-4.01-.53-4.01z"/></g><g><path class="st4" d="M719.7 663.4s-3.55.15-4.61.63c-1.06.47-3.55 3.02-3.55 3.02s-.15-3.55-.63-4.61c-.47-1.06-3.02-3.55-3.02-3.55s3.55-.15 4.61-.63c1.06-.47 3.55-3.02 3.55-3.02s.15 3.55.63 4.61c.47 1.06 3.02 3.55 3.02 3.55zM674.58 747.98s3.02.61 3.87 1.16c.85.55 2.63 3.07 2.63 3.07s.61-3.02 1.16-3.87c.55-.85 3.07-2.63 3.07-2.63s-3.02-.61-3.87-1.16c-.85-.55-2.63-3.07-2.63-3.07s-.61 3.02-1.16 3.87c-.55.84-3.07 2.63-3.07 2.63z"/></g><g><path class="st4" d="M482.71 408.32s2.19 1.29 3.01 1.42c.82.13 3.3-.43 3.3-.43s-1.29 2.19-1.42 3.01c-.13.82.43 3.3.43 3.3s-2.19-1.29-3.01-1.42c-.82-.13-3.3.43-3.3.43s1.29-2.19 1.42-3.01c.13-.82-.43-3.3-.43-3.3z"/></g><g><path class="st4" d="M435.13 358.37s-3.55.15-4.61.63c-1.06.47-3.55 3.02-3.55 3.02s-.15-3.55-.63-4.61c-.47-1.06-3.02-3.55-3.02-3.55s3.55-.15 4.61-.63 3.55-3.02 3.55-3.02.15 3.55.63 4.61c.47 1.07 3.02 3.55 3.02 3.55zM390.01 442.95s3.02.61 3.87 1.16c.85.55 2.63 3.07 2.63 3.07s.61-3.02 1.16-3.87c.55-.85 3.07-2.63 3.07-2.63s-3.02-.61-3.87-1.16c-.85-.55-2.63-3.07-2.63-3.07s-.61 3.02-1.16 3.87c-.55.85-3.07 2.63-3.07 2.63z"/></g><g><path class="st4" d="M776.08 537.81s-5.05.22-6.56.89c-1.51.68-5.04 4.29-5.04 4.29s-.22-5.05-.89-6.56c-.68-1.51-4.29-5.04-4.29-5.04s5.05-.22 6.56-.89c1.51-.68 5.04-4.29 5.04-4.29s.22 5.05.89 6.56 4.29 5.04 4.29 5.04zM704.26 567.13s3.02.61 3.87 1.16c.85.55 2.63 3.07 2.63 3.07s.61-3.02 1.16-3.87c.55-.85 3.07-2.63 3.07-2.63s-3.02-.61-3.87-1.16c-.85-.55-2.63-3.07-2.63-3.07s-.61 3.02-1.16 3.87c-.56.84-3.07 2.63-3.07 2.63z"/></g><g><path class="st4" d="M538.05 477.76s2.54 2.48 3.02 3.55c.47 1.06.63 4.61.63 4.61s2.48-2.54 3.55-3.02c1.06-.47 4.61-.63 4.61-.63s-2.54-2.48-3.02-3.55c-.47-1.06-.63-4.61-.63-4.61s-2.48 2.54-3.55 3.02c-1.06.47-4.61.63-4.61.63zM515.19 570.85s-2.66-1.56-3.66-1.72c-1-.16-4.01.53-4.01.53s1.56-2.66 1.72-3.66c.16-1-.53-4.01-.53-4.01s2.66 1.56 3.66 1.72c1 .16 4.01-.53 4.01-.53s-1.56 2.66-1.72 3.66c-.16 1 .53 4.01.53 4.01z"/></g><g><path class="st4" d="M511.57 319.93s1.63-3.16 2.5-3.93c.88-.77 4.23-1.96 4.23-1.96s-3.16-1.63-3.93-2.5c-.77-.88-1.96-4.23-1.96-4.23s-1.63 3.16-2.5 3.93c-.88.77-4.23 1.96-4.23 1.96s3.16 1.63 3.93 2.5c.77.88 1.96 4.23 1.96 4.23zM607.28 314.37s-.71 3-.57 4c.15 1 1.68 3.68 1.68 3.68s-3-.71-4-.57c-1 .15-3.68 1.68-3.68 1.68s.71-3 .57-4c-.15-1-1.68-3.68-1.68-3.68s3 .71 4 .57c1-.15 3.68-1.68 3.68-1.68z"/></g><g><path class="st4" d="M641.78 289.72s-1.63 3.16-2.5 3.93c-.88.77-4.23 1.96-4.23 1.96s3.16 1.63 3.93 2.5c.77.88 1.96 4.23 1.96 4.23s1.63-3.16 2.5-3.93c.88-.77 4.23-1.96 4.23-1.96s-3.16-1.63-3.93-2.5c-.77-.88-1.96-4.23-1.96-4.23zM546.07 295.28s.71-3 .57-4c-.15-1-1.68-3.68-1.68-3.68s3 .71 4 .57c1-.15 3.68-1.68 3.68-1.68s-.71 3-.57 4c.15 1 1.68 3.68 1.68 3.68s-3-.71-4-.57-3.68 1.68-3.68 1.68z"/></g><g><path class="st6" d="M296.49 550.43s3.55-.15 4.61-.63c1.06-.47 3.55-3.02 3.55-3.02s.15 3.55.63 4.61c.47 1.06 3.02 3.55 3.02 3.55s-3.55.15-4.61.63c-1.06.48-3.55 3.02-3.55 3.02s-.15-3.55-.63-4.61c-.48-1.06-3.02-3.55-3.02-3.55z"/><path class="st4" d="M356.89 525.3s-1.05-1.57-1.17-2.18c-.13-.61.19-2.47.19-2.47s-1.57 1.05-2.18 1.17c-.61.13-2.47-.19-2.47-.19s1.05 1.57 1.17 2.18c.13.61-.19 2.47-.19 2.47s1.57-1.05 2.18-1.17c.6-.13 2.47.19 2.47.19z"/></g></g><g><path class="st4" d="M1373.28 636.47s-3.3 1.31-4.47 1.31c-1.16 0-4.47-1.31-4.47-1.31s1.31 3.3 1.31 4.47c0 1.16-1.31 4.47-1.31 4.47s3.3-1.31 4.47-1.31c1.16 0 4.47 1.31 4.47 1.31s-1.31-3.3-1.31-4.47c.01-1.17 1.31-4.47 1.31-4.47zM1297.6 577.63s2.51-1.79 3.06-2.64c.55-.85 1.15-3.87 1.15-3.87s1.79 2.51 2.64 3.06c.85.55 3.87 1.15 3.87 1.15s-2.51 1.79-3.06 2.64c-.55.85-1.15 3.87-1.15 3.87s-1.79-2.51-2.64-3.06c-.84-.54-3.87-1.15-3.87-1.15z"/><path class="st6" d="M1564.41 459.14s4.51-3.22 5.5-4.74c.99-1.52 2.07-6.96 2.07-6.96s3.22 4.51 4.74 5.5c1.52.99 6.96 2.07 6.96 2.07s-4.51 3.22-5.5 4.74c-.99 1.52-2.07 6.96-2.07 6.96s-3.22-4.51-4.74-5.5c-1.52-.99-6.96-2.07-6.96-2.07z"/><path class="st4" d="M1494.33 484.85s-.85 2.16-.85 2.92c0 .76.85 2.92.85 2.92s-2.16-.85-2.92-.85c-.76 0-2.92.85-2.92.85s.85-2.16.85-2.92c0-.76-.85-2.92-.85-2.92s2.16.85 2.92.85c.76 0 2.92-.85 2.92-.85z"/><path class="st6" d="M1557.82 558.98s1.79-2.51 2.64-3.06c.85-.55 3.87-1.15 3.87-1.15s-2.51-1.79-3.06-2.64c-.55-.85-1.15-3.87-1.15-3.87s-1.79 2.51-2.64 3.06c-.85.55-3.87 1.15-3.87 1.15s2.51 1.79 3.06 2.64c.55.84 1.15 3.87 1.15 3.87z"/><path class="st4" d="M1404.79 458.14s1.79-2.51 2.64-3.06c.85-.55 3.87-1.15 3.87-1.15s-2.51-1.79-3.06-2.64c-.55-.85-1.15-3.87-1.15-3.87s-1.79 2.51-2.64 3.06c-.85.55-3.87 1.15-3.87 1.15s2.51 1.79 3.06 2.64c.54.85 1.15 3.87 1.15 3.87zM1548.4 459.7s1.79-2.51 2.64-3.06 3.87-1.15 3.87-1.15-2.51-1.79-3.06-2.64c-.55-.85-1.15-3.87-1.15-3.87s-1.79 2.51-2.64 3.06c-.85.55-3.87 1.15-3.87 1.15s2.51 1.79 3.06 2.64c.55.84 1.15 3.87 1.15 3.87z"/><path class="st6" d="M1190.55 102.18s1.58 2.65 2.38 3.27c.8.62 3.77 1.47 3.77 1.47s-2.65 1.58-3.27 2.38c-.62.8-1.47 3.77-1.47 3.77s-1.58-2.65-2.38-3.27c-.8-.62-3.77-1.47-3.77-1.47s2.65-1.58 3.27-2.38c.62-.8 1.47-3.77 1.47-3.77zM1360.63 251.54s1.58 2.65 2.38 3.27c.8.62 3.77 1.47 3.77 1.47s-2.65 1.58-3.27 2.38c-.62.8-1.47 3.77-1.47 3.77s-1.58-2.65-2.38-3.27c-.8-.62-3.77-1.47-3.77-1.47s2.65-1.58 3.27-2.38c.62-.81 1.47-3.77 1.47-3.77z"/><path class="st4" d="M1261.88 192.99s2.36 1.99 2.83 2.88c.48.89.83 3.96.83 3.96s1.99-2.36 2.88-2.83c.89-.48 3.96-.83 3.96-.83s-2.36-1.99-2.83-2.88c-.48-.89-.83-3.96-.83-3.96s-1.99 2.36-2.88 2.83c-.89.48-3.96.83-3.96.83zM1083.62 639.81s1.88 2.45 2.75 2.96c.87.52 3.91 1.01 3.91 1.01s-2.45 1.88-2.96 2.75c-.52.87-1.01 3.91-1.01 3.91s-1.88-2.45-2.75-2.96c-.87-.52-3.91-1.01-3.91-1.01s2.45-1.88 2.96-2.75c.52-.86 1.01-3.91 1.01-3.91zM1092.68 574.23s-1.43-3.25-1.47-4.42c-.04-1.16 1.14-4.51 1.14-4.51s-3.25 1.43-4.42 1.47c-1.16.04-4.51-1.14-4.51-1.14s1.43 3.25 1.47 4.42c.04 1.16-1.14 4.51-1.14 4.51s3.25-1.43 4.42-1.47c1.16-.05 4.51 1.14 4.51 1.14zM1142.5 507.09s1.88 2.45 2.75 2.96c.87.52 3.91 1.01 3.91 1.01s-2.45 1.88-2.96 2.75c-.52.87-1.01 3.91-1.01 3.91s-1.88-2.45-2.75-2.96c-.87-.52-3.91-1.01-3.91-1.01s2.45-1.88 2.96-2.75c.51-.87 1.01-3.91 1.01-3.91zM1370.17 400.42s-2.13-4.85-2.19-6.58c-.06-1.73 1.7-6.73 1.7-6.73s-4.85 2.13-6.58 2.19c-1.73.06-6.73-1.71-6.73-1.71s2.13 4.85 2.19 6.58c.06 1.73-1.71 6.73-1.71 6.73s4.85-2.13 6.58-2.19c1.75-.06 6.74 1.71 6.74 1.71zM1419.55 320.69s1.88 2.45 2.75 2.96c.87.52 3.91 1.01 3.91 1.01s-2.45 1.88-2.96 2.75c-.52.87-1.01 3.91-1.01 3.91s-1.88-2.45-2.75-2.96c-.87-.52-3.91-1.01-3.91-1.01s2.45-1.88 2.96-2.75c.52-.87 1.01-3.91 1.01-3.91z"/><path class="st6" d="M1050.02 276.39s-2.05-4.68-2.11-6.35c-.06-1.67 1.64-6.49 1.64-6.49s-4.68 2.05-6.35 2.11c-1.67.06-6.49-1.64-6.49-1.64s2.05 4.68 2.12 6.35c.06 1.67-1.64 6.49-1.64 6.49s4.68-2.05 6.35-2.11c1.67-.06 6.48 1.64 6.48 1.64zM1100.12 196.87s1.88 2.45 2.75 2.96c.87.52 3.91 1.01 3.91 1.01s-2.45 1.88-2.96 2.75c-.52.87-1.01 3.91-1.01 3.91s-1.88-2.45-2.75-2.96c-.87-.52-3.91-1.01-3.91-1.01s2.45-1.88 2.96-2.75c.52-.87 1.01-3.91 1.01-3.91z"/><g><path class="st4" d="M1428 571.62s-3.2 1.54-4.37 1.62c-1.16.08-4.55-.99-4.55-.99s1.54 3.2 1.62 4.37c.08 1.16-.99 4.55-.99 4.55s3.2-1.54 4.37-1.62c1.16-.08 4.55.99 4.55.99s-1.54-3.21-1.62-4.37c-.08-1.16.99-4.55.99-4.55zM1348.38 518.23s2.38-1.96 2.87-2.85c.49-.88.88-3.95.88-3.95s1.96 2.38 2.85 2.87c.88.49 3.95.88 3.95.88s-2.38 1.96-2.87 2.85c-.49.88-.88 3.95-.88 3.95s-1.96-2.38-2.85-2.87c-.89-.48-3.95-.88-3.95-.88z"/></g><g><path class="st6" d="M1270.3 767.82s1.88 2.45 2.75 2.96c.87.52 3.91 1.01 3.91 1.01s-2.45 1.88-2.96 2.75c-.52.87-1.01 3.91-1.01 3.91s-1.88-2.45-2.75-2.96c-.87-.52-3.91-1.01-3.91-1.01s2.45-1.88 2.96-2.75c.52-.86 1.01-3.91 1.01-3.91z"/></g><g><path class="st4" d="M1244.15 704.88s-3.35-1.19-4.51-1.14c-1.16.04-4.42 1.47-4.42 1.47s1.19-3.35 1.14-4.51c-.04-1.16-1.47-4.42-1.47-4.42s3.35 1.19 4.51 1.14c1.16-.04 4.42-1.47 4.42-1.47s-1.19 3.35-1.14 4.51c.04 1.16 1.47 4.42 1.47 4.42zM1170.67 766.45s2.58 1.7 3.16 2.52c.58.83 1.3 3.83 1.3 3.83s1.7-2.58 2.53-3.16c.83-.58 3.83-1.3 3.83-1.3s-2.58-1.7-3.16-2.53c-.58-.83-1.3-3.83-1.3-3.83s-1.7 2.58-2.53 3.16c-.82.59-3.83 1.31-3.83 1.31z"/></g><g><path class="st4" d="M1119.77 379.67s1.55 2.01 2.26 2.44c.71.43 3.22.83 3.22.83s-2.01 1.55-2.44 2.26c-.43.71-.83 3.22-.83 3.22s-1.55-2.01-2.26-2.44c-.71-.43-3.22-.83-3.22-.83s2.01-1.55 2.44-2.26c.42-.71.83-3.22.83-3.22z"/></g><g><path class="st4" d="M1094.32 315.55s-3.35-1.19-4.51-1.14c-1.16.04-4.42 1.47-4.42 1.47s1.19-3.35 1.14-4.51c-.04-1.16-1.47-4.42-1.47-4.42s3.35 1.19 4.51 1.14 4.42-1.47 4.42-1.47-1.19 3.35-1.14 4.51c.04 1.17 1.47 4.42 1.47 4.42zM1020.84 377.13s2.58 1.7 3.16 2.53c.58.83 1.3 3.83 1.3 3.83s1.7-2.58 2.53-3.16c.83-.58 3.83-1.3 3.83-1.3s-2.58-1.7-3.16-2.53c-.58-.83-1.3-3.83-1.3-3.83s-1.7 2.58-2.53 3.16c-.83.58-3.83 1.3-3.83 1.3z"/></g><g><path class="st4" d="M1343.41 609.5s-4.77-1.69-6.42-1.63c-1.65.06-6.28 2.09-6.28 2.09s1.69-4.76 1.63-6.42c-.06-1.65-2.09-6.28-2.09-6.28s4.77 1.69 6.42 1.63c1.65-.06 6.28-2.09 6.28-2.09s-1.69 4.77-1.63 6.42c.06 1.65 2.09 6.28 2.09 6.28zM1265.84 609.82s2.58 1.7 3.16 2.53c.58.83 1.3 3.83 1.3 3.83s1.7-2.58 2.53-3.16c.83-.58 3.83-1.3 3.83-1.3s-2.58-1.7-3.16-2.53c-.58-.83-1.3-3.83-1.3-3.83s-1.7 2.58-2.53 3.16c-.83.59-3.83 1.3-3.83 1.3z"/></g><g><path class="st4" d="M1145.12 464.77s1.43 3.25 1.47 4.42c.04 1.16-1.14 4.51-1.14 4.51s3.25-1.43 4.42-1.47c1.16-.04 4.51 1.14 4.51 1.14s-1.43-3.25-1.47-4.42c-.04-1.16 1.14-4.51 1.14-4.51s-3.25 1.43-4.42 1.47c-1.16.05-4.51-1.14-4.51-1.14zM1089.09 542.56s-1.88-2.45-2.75-2.96c-.87-.52-3.91-1.01-3.91-1.01s2.45-1.88 2.96-2.75c.52-.87 1.01-3.91 1.01-3.91s1.88 2.45 2.75 2.96c.87.52 3.91 1.01 3.91 1.01s-2.45 1.88-2.96 2.75c-.51.86-1.01 3.91-1.01 3.91z"/></g><g><path class="st4" d="M1179.6 308.49s2.69-2.32 3.79-2.71c1.1-.38 4.65-.24 4.65-.24s-2.32-2.69-2.71-3.79c-.38-1.1-.24-4.65-.24-4.65s-2.69 2.32-3.79 2.71c-1.1.38-4.65.24-4.65.24s2.32 2.69 2.71 3.79c.38 1.1.24 4.65.24 4.65zM1270.43 339.13s-1.78 2.52-2.02 3.5.19 4.04.19 4.04-2.52-1.78-3.5-2.02-4.04.19-4.04.19 1.78-2.52 2.02-3.5-.19-4.04-.19-4.04 2.52 1.78 3.5 2.02c.99.24 4.04-.19 4.04-.19z"/></g><g><path class="st4" d="M1311.65 329.18s-2.69 2.32-3.79 2.71c-1.1.38-4.65.24-4.65.24s2.32 2.69 2.71 3.79c.38 1.1.24 4.65.24 4.65s2.69-2.32 3.79-2.71c1.1-.38 4.65-.24 4.65-.24s-2.32-2.69-2.71-3.79c-.39-1.1-.24-4.65-.24-4.65zM1220.81 298.54s1.78-2.52 2.02-3.5-.19-4.04-.19-4.04 2.52 1.78 3.5 2.02 4.04-.19 4.04-.19-1.78 2.52-2.02 3.5.19 4.04.19 4.04-2.52-1.78-3.5-2.02-4.04.19-4.04.19z"/></g><g><path class="st6" d="M893.91 441.83s3.35 1.19 4.51 1.14c1.16-.04 4.42-1.47 4.42-1.47s-1.19 3.35-1.14 4.51c.04 1.16 1.47 4.42 1.47 4.42s-3.35-1.19-4.51-1.14c-1.16.04-4.42 1.47-4.42 1.47s1.19-3.35 1.14-4.51c-.04-1.17-1.47-4.42-1.47-4.42z"/><path class="st4" d="M959.32 441.1s-.38-1.85-.27-2.46c.11-.61 1.1-2.22 1.1-2.22s-1.85.38-2.46.27c-.61-.11-2.22-1.1-2.22-1.1s.38 1.85.27 2.46c-.11.61-1.1 2.22-1.1 2.22s1.85-.38 2.46-.27c.61.11 2.22 1.1 2.22 1.1z"/></g></g></svg>