<svg fill="none" xmlns="http://www.w3.org/2000/svg" viewBox="0 0 212 140"><path d="M182.773 27.707v1.5h1.52c14.41 0 26.207 11.797 26.207 26.21 0 14.41-11.797 26.207-26.207 26.207h-38.396v1.5c0 14.41-11.796 26.207-26.209 26.207H55.623c-14.412 0-26.21-11.797-26.21-26.207v-1.5h-1.706C13.297 81.624 1.5 69.827 1.5 55.416c0-14.412 11.797-26.209 26.207-26.209h38.584v-1.5C66.291 13.297 78.088 1.5 92.5 1.5h64.067c14.41 0 26.207 11.797 26.207 26.207z" fill="#FFFFFE" stroke="#DBDCD6" stroke-width="3"/><path fill-rule="evenodd" clip-rule="evenodd" d="M184.293 27.707h-.02C184.273 12.468 171.804 0 156.566 0H106v110.831h13.688c15.241 0 27.709-12.468 27.709-27.707h36.896c15.239 0 27.707-12.469 27.707-27.708 0-15.24-12.468-27.709-27.707-27.709z" fill="#DBDCD6"/><path fill-rule="evenodd" clip-rule="evenodd" d="M148.906 40.287l-25.378 60.147c-7.526 17.84 4.818 38.156 24.166 38.942a30.468 30.468 0 002.423 0c19.348-.786 31.694-21.102 24.167-38.942l-25.378-60.147z" fill="#98D1D8"/><path fill-rule="evenodd" clip-rule="evenodd" d="M174.283 100.434l-25.377-60.147v99.114c.406 0 .811-.009 1.211-.025 19.348-.786 31.694-21.102 24.166-38.942z" fill="#87B3BB"/></svg>