<svg fill="none" xmlns="http://www.w3.org/2000/svg" viewBox="0 0 212 201"><path fill-rule="evenodd" clip-rule="evenodd" d="M45.928 80.161c0-33.177 26.895-60.07 60.072-60.07 33.176 0 60.071 26.893 60.071 60.07 0 33.176-26.895 60.071-60.071 60.071-33.177 0-60.072-26.895-60.072-60.07zm-5.146 9.101l-10.84 20.925 21.99 8.475.127 23.568 23.41-2.715 11.065 20.808L106 147.04l19.467 13.283 11.063-20.808 23.41 2.715.127-23.568 21.99-8.475-10.839-20.925 15.532-17.725-19.322-13.491 5.517-22.912-23.38-2.966-5.763-22.852-22.08 8.24L106 0 90.277 17.555 68.198 9.316l-5.763 22.852-23.38 2.966 5.516 22.912L25.25 71.537l15.533 17.725z" fill="#F0A64D"/><path fill-rule="evenodd" clip-rule="evenodd" d="M106 26.736c29.505 0 53.424 23.919 53.424 53.424 0 29.506-23.919 53.424-53.424 53.424S52.576 109.666 52.576 80.16c0-29.505 23.919-53.424 53.424-53.424z" fill="#F0A64D"/><path fill-rule="evenodd" clip-rule="evenodd" d="M166.071 80.161c0-33.177-26.896-60.07-60.071-60.07V0l15.722 17.555 22.08-8.239 5.763 22.852 23.38 2.966-5.518 22.912 19.323 13.491-15.532 17.725 10.839 20.925-21.99 8.475-.127 23.568-23.41-2.715-11.063 20.808L106 147.04v-6.808c33.175 0 60.071-26.895 60.071-60.07z" fill="#EB8C3C"/><path fill-rule="evenodd" clip-rule="evenodd" d="M159.424 80.16c0 29.506-23.919 53.424-53.424 53.424V26.736c29.505 0 53.424 23.919 53.424 53.424z" fill="#EB8C3C"/><path d="M182.772 117.004v1.5h1.52c14.411 0 26.208 11.798 26.208 26.208 0 14.412-11.797 26.208-26.208 26.208h-38.396v1.5c0 14.411-11.797 26.207-26.208 26.207H55.62c-14.41 0-26.207-11.796-26.207-26.207v-1.5h-1.705c-14.412 0-26.208-11.796-26.208-26.208 0-14.41 11.796-26.208 26.208-26.208H66.29v-1.5c0-14.41 11.795-26.207 26.207-26.207h64.067c14.41 0 26.207 11.797 26.207 26.207z" fill="#FFFFFE" stroke="#DBDCD6" stroke-width="3"/><path fill-rule="evenodd" clip-rule="evenodd" d="M184.292 117.004h-.02c0-15.238-12.469-27.707-27.707-27.707H106v110.83h13.688c15.239 0 27.708-12.467 27.708-27.707h36.896c15.239 0 27.708-12.468 27.708-27.708 0-15.239-12.469-27.708-27.708-27.708z" fill="#DBDCD6"/></svg>