<svg fill="none" xmlns="http://www.w3.org/2000/svg" viewBox="0 0 207 211"><mask id="a" fill="#fff"><path fill-rule="evenodd" clip-rule="evenodd" d="M201.825 100.378h-10.366l8.306-7.18a5.122 5.122 0 10-6.7-7.751l-17.271 14.931h-7.64l12.749-11.374a5.12 5.12 0 00.411-7.231 5.116 5.116 0 00-7.23-.412l-21.32 19.017h-37.103l26.338-26.879 28.237-1.938a5.122 5.122 0 004.759-5.46 5.135 5.135 0 00-5.46-4.763l-16.749 1.15 5.496-5.608 22.553-1.91a5.124 5.124 0 004.674-5.536 5.105 5.105 0 00-5.537-4.674l-10.706.908 7.407-7.561a5.125 5.125 0 00-.073-7.245 5.126 5.126 0 00-7.246.074l-7.142 7.29.879-10.827a5.127 5.127 0 00-4.692-5.522c-2.773-.188-5.291 1.873-5.52 4.694l-1.873 23.092-5.278 5.387 1.118-16.996a5.12 5.12 0 00-4.774-5.447c-2.799-.196-5.264 1.95-5.448 4.775l-1.901 28.9-26.127 26.666V55.095l18.674-21.803a5.123 5.123 0 00-7.78-6.663l-10.894 12.718v-7.754l14.671-17.68a5.125 5.125 0 00-7.885-6.545l-6.786 8.182V5.122a5.123 5.123 0 00-10.245 0v10.426L91.567 7.37a5.115 5.115 0 00-7.21-.672 5.12 5.12 0 00-.675 7.213l14.67 17.68v7.756L87.454 26.629a5.114 5.114 0 00-7.221-.56 5.122 5.122 0 00-.56 7.223l18.677 21.803v37.86L72.23 66.294l-1.904-28.913c-.186-2.826-2.672-4.971-5.446-4.774a5.118 5.118 0 00-4.774 5.446l1.117 17.006-5.277-5.385-1.879-23.104c-.229-2.821-2.739-4.88-5.52-4.694a5.127 5.127 0 00-4.692 5.524l.881 10.833-7.15-7.299a5.127 5.127 0 00-7.246-.073 5.125 5.125 0 00-.073 7.245l7.404 7.559-10.695-.906a5.108 5.108 0 00-5.537 4.674 5.12 5.12 0 004.672 5.536l22.547 1.908 5.498 5.61-16.749-1.15c-2.784-.196-5.266 1.939-5.46 4.762a5.126 5.126 0 004.762 5.46l28.23 1.937 26.34 26.881H54.183L32.868 81.361a5.12 5.12 0 00-7.233.412 5.12 5.12 0 00.414 7.23l12.746 11.375h-7.64L13.878 85.447a5.125 5.125 0 00-7.225.526 5.12 5.12 0 00.527 7.225l8.308 7.18H5.122A5.121 5.121 0 000 105.5a5.121 5.121 0 005.122 5.122h10.366l-8.308 7.182a5.121 5.121 0 00-.527 7.225 5.102 5.102 0 003.877 1.774 5.113 5.113 0 003.348-1.248l17.279-14.933h7.638L26.05 121.996a5.12 5.12 0 003.411 8.944 5.1 5.1 0 003.408-1.301l21.315-19.017h37.095l-26.34 26.883-28.23 1.934a5.127 5.127 0 00-4.762 5.463 5.127 5.127 0 005.46 4.76l16.747-1.15-5.496 5.61-22.547 1.908a5.12 5.12 0 00-4.671 5.536 5.127 5.127 0 005.536 4.674l10.695-.906-7.405 7.559a5.125 5.125 0 003.66 8.708 5.11 5.11 0 003.66-1.537l7.15-7.298-.88 10.833a5.127 5.127 0 004.692 5.524l.42.014a5.121 5.121 0 005.1-4.706l1.878-23.106 5.276-5.385-1.116 17.006a5.12 5.12 0 004.774 5.447l.342.012a5.122 5.122 0 005.104-4.787l1.904-28.913 26.122-26.659v37.859l-18.676 21.803a5.123 5.123 0 00.559 7.223 5.118 5.118 0 007.22-.56l10.897-12.718v7.754l-14.669 17.674a5.125 5.125 0 003.94 8.395 5.114 5.114 0 003.945-1.85l6.784-8.176v10.428a5.122 5.122 0 1010.245 0v-10.43l6.786 8.178a5.127 5.127 0 007.215.67 5.125 5.125 0 00.67-7.215l-14.671-17.676v-7.752l10.894 12.718a5.1 5.1 0 003.891 1.791 5.123 5.123 0 003.889-8.454l-18.674-21.803v-37.853l26.125 26.665 1.903 28.901a5.122 5.122 0 005.106 4.787l.342-.012a5.121 5.121 0 004.774-5.447l-1.118-16.996 5.278 5.387 1.873 23.094a5.12 5.12 0 005.1 4.706l.42-.014a5.127 5.127 0 004.692-5.522l-.879-10.827 7.142 7.29a5.114 5.114 0 003.66 1.537 5.124 5.124 0 003.659-8.708l-7.407-7.561 10.706.908a5.124 5.124 0 00.863-10.21l-22.553-1.91-5.496-5.608 16.749 1.15a5.12 5.12 0 005.46-4.76 5.123 5.123 0 00-4.759-5.463l-28.235-1.934-26.34-26.883h37.103l21.32 19.017a5.09 5.09 0 003.407 1.301 5.104 5.104 0 003.823-1.713 5.12 5.12 0 00-.411-7.231l-12.749-11.374h7.638l17.273 14.933a5.113 5.113 0 003.348 1.248 5.123 5.123 0 003.352-8.999l-8.308-7.182h10.368a5.122 5.122 0 000-10.244z"/></mask><path fill-rule="evenodd" clip-rule="evenodd" d="M201.825 100.378h-10.366l8.306-7.18a5.122 5.122 0 10-6.7-7.751l-17.271 14.931h-7.64l12.749-11.374a5.12 5.12 0 00.411-7.231 5.116 5.116 0 00-7.23-.412l-21.32 19.017h-37.103l26.338-26.879 28.237-1.938a5.122 5.122 0 004.759-5.46 5.135 5.135 0 00-5.46-4.763l-16.749 1.15 5.496-5.608 22.553-1.91a5.124 5.124 0 004.674-5.536 5.105 5.105 0 00-5.537-4.674l-10.706.908 7.407-7.561a5.125 5.125 0 00-.073-7.245 5.126 5.126 0 00-7.246.074l-7.142 7.29.879-10.827a5.127 5.127 0 00-4.692-5.522c-2.773-.188-5.291 1.873-5.52 4.694l-1.873 23.092-5.278 5.387 1.118-16.996a5.12 5.12 0 00-4.774-5.447c-2.799-.196-5.264 1.95-5.448 4.775l-1.901 28.9-26.127 26.666V55.095l18.674-21.803a5.123 5.123 0 00-7.78-6.663l-10.894 12.718v-7.754l14.671-17.68a5.125 5.125 0 00-7.885-6.545l-6.786 8.182V5.122a5.123 5.123 0 00-10.245 0v10.426L91.567 7.37a5.115 5.115 0 00-7.21-.672 5.12 5.12 0 00-.675 7.213l14.67 17.68v7.756L87.454 26.629a5.114 5.114 0 00-7.221-.56 5.122 5.122 0 00-.56 7.223l18.677 21.803v37.86L72.23 66.294l-1.904-28.913c-.186-2.826-2.672-4.971-5.446-4.774a5.118 5.118 0 00-4.774 5.446l1.117 17.006-5.277-5.385-1.879-23.104c-.229-2.821-2.739-4.88-5.52-4.694a5.127 5.127 0 00-4.692 5.524l.881 10.833-7.15-7.299a5.127 5.127 0 00-7.246-.073 5.125 5.125 0 00-.073 7.245l7.404 7.559-10.695-.906a5.108 5.108 0 00-5.537 4.674 5.12 5.12 0 004.672 5.536l22.547 1.908 5.498 5.61-16.749-1.15c-2.784-.196-5.266 1.939-5.46 4.762a5.126 5.126 0 004.762 5.46l28.23 1.937 26.34 26.881H54.183L32.868 81.361a5.12 5.12 0 00-7.233.412 5.12 5.12 0 00.414 7.23l12.746 11.375h-7.64L13.878 85.447a5.125 5.125 0 00-7.225.526 5.12 5.12 0 00.527 7.225l8.308 7.18H5.122A5.121 5.121 0 000 105.5a5.121 5.121 0 005.122 5.122h10.366l-8.308 7.182a5.121 5.121 0 00-.527 7.225 5.102 5.102 0 003.877 1.774 5.113 5.113 0 003.348-1.248l17.279-14.933h7.638L26.05 121.996a5.12 5.12 0 003.411 8.944 5.1 5.1 0 003.408-1.301l21.315-19.017h37.095l-26.34 26.883-28.23 1.934a5.127 5.127 0 00-4.762 5.463 5.127 5.127 0 005.46 4.76l16.747-1.15-5.496 5.61-22.547 1.908a5.12 5.12 0 00-4.671 5.536 5.127 5.127 0 005.536 4.674l10.695-.906-7.405 7.559a5.125 5.125 0 003.66 8.708 5.11 5.11 0 003.66-1.537l7.15-7.298-.88 10.833a5.127 5.127 0 004.692 5.524l.42.014a5.121 5.121 0 005.1-4.706l1.878-23.106 5.276-5.385-1.116 17.006a5.12 5.12 0 004.774 5.447l.342.012a5.122 5.122 0 005.104-4.787l1.904-28.913 26.122-26.659v37.859l-18.676 21.803a5.123 5.123 0 00.559 7.223 5.118 5.118 0 007.22-.56l10.897-12.718v7.754l-14.669 17.674a5.125 5.125 0 003.94 8.395 5.114 5.114 0 003.945-1.85l6.784-8.176v10.428a5.122 5.122 0 1010.245 0v-10.43l6.786 8.178a5.127 5.127 0 007.215.67 5.125 5.125 0 00.67-7.215l-14.671-17.676v-7.752l10.894 12.718a5.1 5.1 0 003.891 1.791 5.123 5.123 0 003.889-8.454l-18.674-21.803v-37.853l26.125 26.665 1.903 28.901a5.122 5.122 0 005.106 4.787l.342-.012a5.121 5.121 0 004.774-5.447l-1.118-16.996 5.278 5.387 1.873 23.094a5.12 5.12 0 005.1 4.706l.42-.014a5.127 5.127 0 004.692-5.522l-.879-10.827 7.142 7.29a5.114 5.114 0 003.66 1.537 5.124 5.124 0 003.659-8.708l-7.407-7.561 10.706.908a5.124 5.124 0 00.863-10.21l-22.553-1.91-5.496-5.608 16.749 1.15a5.12 5.12 0 005.46-4.76 5.123 5.123 0 00-4.759-5.463l-28.235-1.934-26.34-26.883h37.103l21.32 19.017a5.09 5.09 0 003.407 1.301 5.104 5.104 0 003.823-1.713 5.12 5.12 0 00-.411-7.231l-12.749-11.374h7.638l17.273 14.933a5.113 5.113 0 003.348 1.248 5.123 5.123 0 003.352-8.999l-8.308-7.182h10.368a5.122 5.122 0 000-10.244z" fill="#FFFFFE" stroke="#DBDCD6" stroke-width="6" mask="url(#a)"/><path fill-rule="evenodd" clip-rule="evenodd" d="M201.825 100.378h-10.366l8.306-7.18a5.122 5.122 0 10-6.7-7.751l-17.271 14.931h-7.64l12.748-11.374a5.12 5.12 0 00.412-7.231 5.118 5.118 0 00-7.231-.412l-21.319 19.017h-37.103l26.337-26.879 28.237-1.938a5.123 5.123 0 004.76-5.46 5.135 5.135 0 00-5.46-4.763l-16.749 1.15 5.496-5.608 22.553-1.91a5.124 5.124 0 004.674-5.536 5.105 5.105 0 00-5.537-4.674l-10.706.908 7.407-7.561a5.125 5.125 0 00-.073-7.245 5.126 5.126 0 00-7.246.074l-7.142 7.29.879-10.827a5.127 5.127 0 00-4.692-5.522c-2.773-.188-5.291 1.873-5.52 4.694l-1.873 23.092-5.278 5.387 1.118-16.996a5.12 5.12 0 00-4.774-5.447c-2.799-.196-5.264 1.95-5.448 4.775l-1.901 28.9-26.127 26.666V55.095l18.674-21.803a5.123 5.123 0 00-7.78-6.663l-10.894 12.718v-7.754l14.671-17.68a5.125 5.125 0 00-7.885-6.545l-6.786 8.182V5.122A5.123 5.123 0 00103.474 0v211a5.123 5.123 0 005.122-5.122v-10.43l6.786 8.178a5.127 5.127 0 007.215.67 5.125 5.125 0 00.67-7.215l-14.671-17.676v-7.752l10.894 12.718a5.1 5.1 0 003.891 1.791 5.123 5.123 0 003.889-8.454l-18.674-21.803v-37.853l26.124 26.665 1.904 28.901a5.122 5.122 0 005.106 4.787l.342-.012a5.121 5.121 0 004.774-5.447l-1.118-16.996 5.278 5.387 1.873 23.094a5.12 5.12 0 005.099 4.706l.421-.014a5.127 5.127 0 004.692-5.522l-.879-10.827 7.142 7.29a5.114 5.114 0 003.66 1.537 5.124 5.124 0 003.659-8.708l-7.407-7.561 10.706.908a5.124 5.124 0 00.863-10.21l-22.553-1.91-5.496-5.608 16.749 1.15a5.12 5.12 0 005.46-4.76 5.123 5.123 0 00-4.76-5.463l-28.234-1.934-26.34-26.883h37.103l21.319 19.017a5.095 5.095 0 003.408 1.301 5.104 5.104 0 003.823-1.713 5.12 5.12 0 00-.412-7.231l-12.748-11.374h7.638l17.273 14.933a5.113 5.113 0 003.348 1.248 5.123 5.123 0 003.352-8.999l-8.308-7.182h10.368a5.122 5.122 0 000-10.244z" fill="#DBDCD6"/></svg>