<svg fill="none" xmlns="http://www.w3.org/2000/svg" viewBox="0 0 213 211"><path fill-rule="evenodd" clip-rule="evenodd" d="M27.623 105.499c0-43.662 35.396-79.058 79.058-79.058 43.662 0 79.058 35.396 79.058 79.058 0 43.664-35.396 79.06-79.058 79.06-43.662 0-79.058-35.396-79.058-79.06zm-6.774 11.979l-14.266 27.54 28.94 11.155.166 31.015 30.81-3.573L81.06 211l25.621-17.482L132.302 211l14.559-27.385 30.812 3.573.165-31.015 28.941-11.155-14.266-27.54 20.443-23.327-25.43-17.757 7.259-30.154-30.769-3.904-7.584-30.074-29.059 10.842L106.681 0 85.989 23.104 56.93 12.262l-7.583 30.074-30.769 3.904 7.259 30.154L.406 94.151l20.443 23.327z" fill="#F0A64D"/><path fill-rule="evenodd" clip-rule="evenodd" d="M106.681 36.42c38.15 0 69.078 30.928 69.078 69.078 0 38.153-30.928 69.079-69.078 69.079-38.15 0-69.079-30.926-69.079-69.079 0-38.15 30.928-69.078 69.079-69.078z" fill="#F0A64D"/><path fill-rule="evenodd" clip-rule="evenodd" d="M185.739 105.499c0-43.662-35.396-79.058-79.058-79.058V0l20.692 23.104 29.059-10.842 7.584 30.074 30.769 3.904-7.259 30.154 25.43 17.757-20.443 23.327 14.266 27.54-28.941 11.155-.166 31.015-30.811-3.573L132.302 211l-25.621-17.482v-8.959c43.662 0 79.058-35.396 79.058-79.06z" fill="#EB8C3C"/><path fill-rule="evenodd" clip-rule="evenodd" d="M175.759 105.498c0 38.153-30.928 69.079-69.078 69.079V36.42c38.15 0 69.078 30.928 69.078 69.078z" fill="#EB8C3C"/></svg>